<svg xmlns="http://www.w3.org/2000/svg" width="150" height="36.311" viewBox="0 0 150 36.311">
  <g id="logo" transform="translate(-2773.999 -6940.998)">
    <path id="Path_3149" data-name="Path 3149" d="M-115.667-44.239a2.315,2.315,0,0,0,1.7-.677,2.315,2.315,0,0,0,.677-1.7,2.315,2.315,0,0,0-.677-1.7,2.315,2.315,0,0,0-1.7-.677,2.315,2.315,0,0,0-1.7.677,2.315,2.315,0,0,0-.677,1.7,2.315,2.315,0,0,0,.677,1.7A2.315,2.315,0,0,0-115.667-44.239Zm5.952,0a2.315,2.315,0,0,0,1.7-.677,2.315,2.315,0,0,0,.677-1.7,2.315,2.315,0,0,0-.677-1.7,2.315,2.315,0,0,0-1.7-.677,2.315,2.315,0,0,0-1.7.677,2.315,2.315,0,0,0-.677,1.7,2.315,2.315,0,0,0,.677,1.7A2.315,2.315,0,0,0-109.715-44.239Zm-11.9,5.952a2.315,2.315,0,0,0,1.7-.677,2.315,2.315,0,0,0,.677-1.7,2.315,2.315,0,0,0-.677-1.7,2.315,2.315,0,0,0-1.7-.677,2.315,2.315,0,0,0-1.7.677,2.315,2.315,0,0,0-.677,1.7,2.315,2.315,0,0,0,.677,1.7,2.315,2.315,0,0,0,1.7.677Zm0,5.952a2.315,2.315,0,0,0,1.7-.677,2.315,2.315,0,0,0,.677-1.7,2.315,2.315,0,0,0-.677-1.7,2.315,2.315,0,0,0-1.7-.677,2.315,2.315,0,0,0-1.7.677,2.315,2.315,0,0,0-.677,1.7,2.315,2.315,0,0,0,.677,1.7,2.315,2.315,0,0,0,1.7.677Zm11.9,0a2.315,2.315,0,0,0,1.7-.677,2.315,2.315,0,0,0,.677-1.7,2.315,2.315,0,0,0-.677-1.7,2.315,2.315,0,0,0-1.7-.677,2.315,2.315,0,0,0-1.7.677,2.315,2.315,0,0,0-.677,1.7,2.315,2.315,0,0,0,.677,1.7,2.315,2.315,0,0,0,1.7.677Zm-11.9,5.952a2.315,2.315,0,0,0,1.7-.677,2.315,2.315,0,0,0,.677-1.7,2.315,2.315,0,0,0-.677-1.7,2.315,2.315,0,0,0-1.7-.677,2.315,2.315,0,0,0-1.7.677,2.315,2.315,0,0,0-.677,1.7,2.315,2.315,0,0,0,.677,1.7A2.315,2.315,0,0,0-121.62-26.382Zm11.9,0a2.315,2.315,0,0,0,1.7-.677,2.315,2.315,0,0,0,.677-1.7,2.315,2.315,0,0,0-.677-1.7,2.315,2.315,0,0,0-1.7-.677,2.315,2.315,0,0,0-1.7.677,2.315,2.315,0,0,0-.677,1.7,2.315,2.315,0,0,0,.677,1.7A2.315,2.315,0,0,0-109.715-26.382Zm-5.952,5.952a2.315,2.315,0,0,0,1.7-.677,2.315,2.315,0,0,0,.677-1.7,2.315,2.315,0,0,0-.677-1.7,2.315,2.315,0,0,0-1.7-.677,2.315,2.315,0,0,0-1.7.677,2.315,2.315,0,0,0-.677,1.7,2.315,2.315,0,0,0,.677,1.7A2.315,2.315,0,0,0-115.667-20.43Zm5.952,0a2.315,2.315,0,0,0,1.7-.677,2.315,2.315,0,0,0,.677-1.7,2.315,2.315,0,0,0-.677-1.7,2.315,2.315,0,0,0-1.7-.677,2.315,2.315,0,0,0-1.7.677,2.315,2.315,0,0,0-.677,1.7,2.315,2.315,0,0,0,.677,1.7A2.315,2.315,0,0,0-109.715-20.43Zm11.9-23.809a2.315,2.315,0,0,0,1.7-.677,2.315,2.315,0,0,0,.677-1.7,2.315,2.315,0,0,0-.677-1.7,2.315,2.315,0,0,0-1.7-.677,2.315,2.315,0,0,0-1.7.677,2.315,2.315,0,0,0-.677,1.7,2.315,2.315,0,0,0,.677,1.7A2.315,2.315,0,0,0-97.811-44.239Zm5.952,0a2.315,2.315,0,0,0,1.7-.677,2.315,2.315,0,0,0,.677-1.7,2.315,2.315,0,0,0-.677-1.7,2.315,2.315,0,0,0-1.7-.677,2.315,2.315,0,0,0-1.7.677,2.315,2.315,0,0,0-.677,1.7,2.315,2.315,0,0,0,.677,1.7,2.315,2.315,0,0,0,1.7.677Zm-5.952,5.952a2.315,2.315,0,0,0,1.7-.677,2.315,2.315,0,0,0,.677-1.7,2.315,2.315,0,0,0-.677-1.7,2.315,2.315,0,0,0-1.7-.677,2.315,2.315,0,0,0-1.7.677,2.315,2.315,0,0,0-.677,1.7,2.315,2.315,0,0,0,.677,1.7,2.315,2.315,0,0,0,1.7.677Zm0,5.952a2.315,2.315,0,0,0,1.7-.677,2.315,2.315,0,0,0,.677-1.7,2.315,2.315,0,0,0-.677-1.7,2.315,2.315,0,0,0-1.7-.677,2.315,2.315,0,0,0-1.7.677,2.315,2.315,0,0,0-.677,1.7,2.315,2.315,0,0,0,.677,1.7,2.315,2.315,0,0,0,1.7.677Zm5.952,0a2.315,2.315,0,0,0,1.7-.677,2.315,2.315,0,0,0,.677-1.7,2.315,2.315,0,0,0-.677-1.7,2.315,2.315,0,0,0-1.7-.677,2.315,2.315,0,0,0-1.7.677,2.315,2.315,0,0,0-.677,1.7,2.315,2.315,0,0,0,.677,1.7,2.315,2.315,0,0,0,1.7.677Zm-5.952,5.952a2.315,2.315,0,0,0,1.7-.677,2.315,2.315,0,0,0,.677-1.7,2.315,2.315,0,0,0-.677-1.7,2.315,2.315,0,0,0-1.7-.677,2.315,2.315,0,0,0-1.7.677,2.315,2.315,0,0,0-.677,1.7,2.315,2.315,0,0,0,.677,1.7A2.315,2.315,0,0,0-97.811-26.382Zm0,5.952a2.315,2.315,0,0,0,1.7-.677,2.315,2.315,0,0,0,.677-1.7,2.315,2.315,0,0,0-.677-1.7,2.315,2.315,0,0,0-1.7-.677,2.315,2.315,0,0,0-1.7.677,2.315,2.315,0,0,0-.677,1.7,2.315,2.315,0,0,0,.677,1.7A2.315,2.315,0,0,0-97.811-20.43Zm5.952,0a2.315,2.315,0,0,0,1.7-.677,2.315,2.315,0,0,0,.677-1.7,2.315,2.315,0,0,0-.677-1.7,2.315,2.315,0,0,0-1.7-.677,2.315,2.315,0,0,0-1.7.677,2.315,2.315,0,0,0-.677,1.7,2.315,2.315,0,0,0,.677,1.7,2.315,2.315,0,0,0,1.7.677Zm61.9-23.809a2.315,2.315,0,0,0,1.7-.677,2.315,2.315,0,0,0,.677-1.7,2.315,2.315,0,0,0-.677-1.7,2.315,2.315,0,0,0-1.7-.677,2.315,2.315,0,0,0-1.7.677,2.315,2.315,0,0,0-.677,1.7,2.315,2.315,0,0,0,.677,1.7,2.315,2.315,0,0,0,1.7.677Zm5.952,0a2.315,2.315,0,0,0,1.7-.677,2.315,2.315,0,0,0,.677-1.7,2.315,2.315,0,0,0-.677-1.7A2.315,2.315,0,0,0-24-49a2.315,2.315,0,0,0-1.7.677,2.315,2.315,0,0,0-.677,1.7,2.315,2.315,0,0,0,.677,1.7A2.315,2.315,0,0,0-24-44.239Zm-5.952,5.952a2.315,2.315,0,0,0,1.7-.677,2.315,2.315,0,0,0,.677-1.7,2.315,2.315,0,0,0-.677-1.7,2.315,2.315,0,0,0-1.7-.677,2.315,2.315,0,0,0-1.7.677,2.315,2.315,0,0,0-.677,1.7,2.315,2.315,0,0,0,.677,1.7,2.315,2.315,0,0,0,1.7.677Zm11.9,0a2.315,2.315,0,0,0,1.7-.677,2.315,2.315,0,0,0,.677-1.7,2.315,2.315,0,0,0-.677-1.7,2.315,2.315,0,0,0-1.7-.677,2.315,2.315,0,0,0-1.7.677,2.315,2.315,0,0,0-.677,1.7,2.315,2.315,0,0,0,.677,1.7,2.315,2.315,0,0,0,1.7.677Zm-11.9,5.952a2.315,2.315,0,0,0,1.7-.677,2.315,2.315,0,0,0,.677-1.7,2.315,2.315,0,0,0-.677-1.7,2.315,2.315,0,0,0-1.7-.677,2.315,2.315,0,0,0-1.7.677,2.315,2.315,0,0,0-.677,1.7,2.315,2.315,0,0,0,.677,1.7,2.315,2.315,0,0,0,1.7.677Zm11.9,0a2.315,2.315,0,0,0,1.7-.677,2.315,2.315,0,0,0,.677-1.7,2.315,2.315,0,0,0-.677-1.7,2.315,2.315,0,0,0-1.7-.677,2.315,2.315,0,0,0-1.7.677,2.315,2.315,0,0,0-.677,1.7,2.315,2.315,0,0,0,.677,1.7,2.315,2.315,0,0,0,1.7.677Zm-11.9,5.952a2.315,2.315,0,0,0,1.7-.677,2.315,2.315,0,0,0,.677-1.7,2.315,2.315,0,0,0-.677-1.7,2.315,2.315,0,0,0-1.7-.677,2.315,2.315,0,0,0-1.7.677,2.315,2.315,0,0,0-.677,1.7,2.315,2.315,0,0,0,.677,1.7,2.315,2.315,0,0,0,1.7.677Zm11.9,0a2.315,2.315,0,0,0,1.7-.677,2.315,2.315,0,0,0,.677-1.7,2.315,2.315,0,0,0-.677-1.7,2.315,2.315,0,0,0-1.7-.677,2.315,2.315,0,0,0-1.7.677,2.315,2.315,0,0,0-.677,1.7,2.315,2.315,0,0,0,.677,1.7A2.315,2.315,0,0,0-18.05-26.382Zm-11.9,5.952a2.315,2.315,0,0,0,1.7-.677,2.315,2.315,0,0,0,.677-1.7,2.315,2.315,0,0,0-.677-1.7,2.315,2.315,0,0,0-1.7-.677,2.315,2.315,0,0,0-1.7.677,2.315,2.315,0,0,0-.677,1.7,2.315,2.315,0,0,0,.677,1.7,2.315,2.315,0,0,0,1.7.677Zm5.952,0a2.315,2.315,0,0,0,1.7-.677,2.315,2.315,0,0,0,.677-1.7,2.315,2.315,0,0,0-.677-1.7,2.315,2.315,0,0,0-1.7-.677,2.315,2.315,0,0,0-1.7.677,2.315,2.315,0,0,0-.677,1.7,2.315,2.315,0,0,0,.677,1.7A2.315,2.315,0,0,0-24-20.43ZM-6.145-44.239a2.315,2.315,0,0,0,1.7-.677,2.315,2.315,0,0,0,.677-1.7,2.315,2.315,0,0,0-.677-1.7A2.315,2.315,0,0,0-6.145-49a2.315,2.315,0,0,0-1.7.677,2.315,2.315,0,0,0-.677,1.7,2.315,2.315,0,0,0,.677,1.7,2.315,2.315,0,0,0,1.7.677Zm5.952,0a2.315,2.315,0,0,0,1.7-.677,2.315,2.315,0,0,0,.677-1.7,2.315,2.315,0,0,0-.677-1.7A2.315,2.315,0,0,0-.193-49a2.315,2.315,0,0,0-1.7.677,2.315,2.315,0,0,0-.677,1.7,2.315,2.315,0,0,0,.677,1.7A2.315,2.315,0,0,0-.193-44.239Zm-5.952,5.952a2.315,2.315,0,0,0,1.7-.677,2.315,2.315,0,0,0,.677-1.7,2.315,2.315,0,0,0-.677-1.7,2.315,2.315,0,0,0-1.7-.677,2.315,2.315,0,0,0-1.7.677,2.315,2.315,0,0,0-.677,1.7,2.315,2.315,0,0,0,.677,1.7,2.315,2.315,0,0,0,1.7.677Zm0,5.952a2.315,2.315,0,0,0,1.7-.677,2.315,2.315,0,0,0,.677-1.7,2.315,2.315,0,0,0-.677-1.7,2.315,2.315,0,0,0-1.7-.677,2.315,2.315,0,0,0-1.7.677,2.315,2.315,0,0,0-.677,1.7,2.315,2.315,0,0,0,.677,1.7,2.315,2.315,0,0,0,1.7.677Zm5.952,0a2.315,2.315,0,0,0,1.7-.677,2.315,2.315,0,0,0,.677-1.7,2.315,2.315,0,0,0-.677-1.7,2.315,2.315,0,0,0-1.7-.677,2.315,2.315,0,0,0-1.7.677,2.315,2.315,0,0,0-.677,1.7,2.315,2.315,0,0,0,.677,1.7,2.315,2.315,0,0,0,1.7.677Zm-5.952,5.952a2.315,2.315,0,0,0,1.7-.677,2.315,2.315,0,0,0,.677-1.7,2.315,2.315,0,0,0-.677-1.7,2.315,2.315,0,0,0-1.7-.677,2.315,2.315,0,0,0-1.7.677,2.315,2.315,0,0,0-.677,1.7,2.315,2.315,0,0,0,.677,1.7A2.315,2.315,0,0,0-6.145-26.382Zm0,5.952a2.315,2.315,0,0,0,1.7-.677,2.315,2.315,0,0,0,.677-1.7,2.315,2.315,0,0,0-.677-1.7,2.315,2.315,0,0,0-1.7-.677,2.315,2.315,0,0,0-1.7.677,2.315,2.315,0,0,0-.677,1.7,2.315,2.315,0,0,0,.677,1.7A2.315,2.315,0,0,0-6.145-20.43Zm5.952,0a2.315,2.315,0,0,0,1.7-.677,2.315,2.315,0,0,0,.677-1.7,2.315,2.315,0,0,0-.677-1.7,2.315,2.315,0,0,0-1.7-.677,2.315,2.315,0,0,0-1.7.677,2.315,2.315,0,0,0-.677,1.7,2.315,2.315,0,0,0,.677,1.7A2.315,2.315,0,0,0-.193-20.43ZM17.664-44.239a2.315,2.315,0,0,0,1.7-.677,2.315,2.315,0,0,0,.677-1.7,2.315,2.315,0,0,0-.677-1.7,2.315,2.315,0,0,0-1.7-.677,2.315,2.315,0,0,0-1.7.677,2.315,2.315,0,0,0-.677,1.7,2.315,2.315,0,0,0,.677,1.7A2.315,2.315,0,0,0,17.664-44.239Zm5.952,0a2.315,2.315,0,0,0,1.7-.677A2.315,2.315,0,0,0,26-46.62a2.315,2.315,0,0,0-.677-1.7,2.315,2.315,0,0,0-1.7-.677,2.315,2.315,0,0,0-1.7.677,2.315,2.315,0,0,0-.677,1.7,2.315,2.315,0,0,0,.677,1.7A2.315,2.315,0,0,0,23.616-44.239Zm-11.9,5.952a2.315,2.315,0,0,0,1.7-.677,2.315,2.315,0,0,0,.677-1.7,2.315,2.315,0,0,0-.677-1.7,2.315,2.315,0,0,0-1.7-.677,2.315,2.315,0,0,0-1.7.677,2.315,2.315,0,0,0-.677,1.7,2.315,2.315,0,0,0,.677,1.7,2.315,2.315,0,0,0,1.7.677Zm5.952,5.952a2.315,2.315,0,0,0,1.7-.677,2.315,2.315,0,0,0,.677-1.7,2.315,2.315,0,0,0-.677-1.7,2.315,2.315,0,0,0-1.7-.677,2.315,2.315,0,0,0-1.7.677,2.315,2.315,0,0,0-.677,1.7,2.315,2.315,0,0,0,.677,1.7,2.315,2.315,0,0,0,1.7.677Zm5.952,5.952a2.315,2.315,0,0,0,1.7-.677,2.315,2.315,0,0,0,.677-1.7,2.315,2.315,0,0,0-.677-1.7,2.315,2.315,0,0,0-1.7-.677,2.315,2.315,0,0,0-1.7.677,2.315,2.315,0,0,0-.677,1.7,2.315,2.315,0,0,0,.677,1.7A2.315,2.315,0,0,0,23.616-26.382Zm-11.9,5.952a2.315,2.315,0,0,0,1.7-.677,2.315,2.315,0,0,0,.677-1.7,2.315,2.315,0,0,0-.677-1.7,2.315,2.315,0,0,0-1.7-.677,2.315,2.315,0,0,0-1.7.677,2.315,2.315,0,0,0-.677,1.7,2.315,2.315,0,0,0,.677,1.7A2.315,2.315,0,0,0,11.712-20.43Zm5.952,0a2.315,2.315,0,0,0,1.7-.677,2.315,2.315,0,0,0,.677-1.7,2.315,2.315,0,0,0-.677-1.7,2.315,2.315,0,0,0-1.7-.677,2.315,2.315,0,0,0-1.7.677,2.315,2.315,0,0,0-.677,1.7,2.315,2.315,0,0,0,.677,1.7A2.315,2.315,0,0,0,17.664-20.43Z" transform="translate(2898 6994.167)" fill="#161616"/>
    <g id="Group_3602" data-name="Group 3602" transform="translate(2857.332 6940.998) rotate(90)">
      <path id="Path_3147" data-name="Path 3147" d="M2.382,4.763A2.315,2.315,0,0,0,4.763,2.382,2.315,2.315,0,0,0,2.382,0,2.315,2.315,0,0,0,0,2.382,2.315,2.315,0,0,0,2.382,4.763Zm0,5.952A2.315,2.315,0,0,0,4.763,8.334,2.315,2.315,0,0,0,2.382,5.953,2.315,2.315,0,0,0,0,8.334a2.315,2.315,0,0,0,2.381,2.381Zm0,5.952a2.381,2.381,0,1,0,0-4.762,2.381,2.381,0,1,0,0,4.762Zm0,5.952a2.381,2.381,0,1,0,0-4.762,2.381,2.381,0,1,0,0,4.762Zm0,5.952a2.381,2.381,0,1,0,0-4.762,2.381,2.381,0,1,0,0,4.762Z" transform="translate(0 0)" fill="#161616"/>
      <path id="Path_3148" data-name="Path 3148" d="M2.382,4.763A2.315,2.315,0,0,0,4.763,2.382,2.315,2.315,0,0,0,2.382,0,2.315,2.315,0,0,0,0,2.382,2.315,2.315,0,0,0,2.382,4.763Zm0,5.952A2.315,2.315,0,0,0,4.763,8.334,2.315,2.315,0,0,0,2.382,5.953,2.315,2.315,0,0,0,0,8.334a2.315,2.315,0,0,0,2.381,2.381Z" transform="translate(0 29.761)" fill="#161616"/>
    </g>
    <g id="Group_3604" data-name="Group 3604" transform="translate(2857.332 6961.831) rotate(90)">
      <path id="Path_3147-2" data-name="Path 3147" d="M2.382,4.763A2.315,2.315,0,0,0,4.763,2.382,2.315,2.315,0,0,0,2.382,0,2.315,2.315,0,0,0,0,2.382,2.315,2.315,0,0,0,2.382,4.763Zm0,5.952A2.315,2.315,0,0,0,4.763,8.334,2.315,2.315,0,0,0,2.382,5.953,2.315,2.315,0,0,0,0,8.334a2.315,2.315,0,0,0,2.381,2.381Zm0,5.952a2.381,2.381,0,1,0,0-4.762,2.381,2.381,0,1,0,0,4.762Zm0,5.952a2.381,2.381,0,1,0,0-4.762,2.381,2.381,0,1,0,0,4.762Zm0,5.952a2.381,2.381,0,1,0,0-4.762,2.381,2.381,0,1,0,0,4.762Z" transform="translate(0 0)" fill="#161616"/>
      <path id="Path_3148-2" data-name="Path 3148" d="M2.382,4.763A2.315,2.315,0,0,0,4.763,2.382,2.315,2.315,0,0,0,2.382,0,2.315,2.315,0,0,0,0,2.382,2.315,2.315,0,0,0,2.382,4.763Zm0,5.952A2.315,2.315,0,0,0,4.763,8.334,2.315,2.315,0,0,0,2.382,5.953,2.315,2.315,0,0,0,0,8.334a2.315,2.315,0,0,0,2.381,2.381Z" transform="translate(0 29.761)" fill="#161616"/>
    </g>
    <g id="Group_3603" data-name="Group 3603" transform="translate(2857.332 6951.712) rotate(90)">
      <path id="Path_3147-3" data-name="Path 3147" d="M2.382,4.763A2.315,2.315,0,0,0,4.763,2.382,2.315,2.315,0,0,0,2.382,0,2.315,2.315,0,0,0,0,2.382,2.315,2.315,0,0,0,2.382,4.763Zm0,5.952A2.315,2.315,0,0,0,4.763,8.334,2.315,2.315,0,0,0,2.382,5.953,2.315,2.315,0,0,0,0,8.334a2.315,2.315,0,0,0,2.381,2.381Zm0,5.952a2.381,2.381,0,1,0,0-4.762,2.381,2.381,0,1,0,0,4.762Zm0,5.952a2.381,2.381,0,1,0,0-4.762,2.381,2.381,0,1,0,0,4.762Zm0,5.952a2.381,2.381,0,1,0,0-4.762,2.381,2.381,0,1,0,0,4.762Z" transform="translate(0 0)" fill="#161616"/>
      <path id="Path_3148-3" data-name="Path 3148" d="M2.382,4.763A2.315,2.315,0,0,0,4.763,2.382,2.315,2.315,0,0,0,2.382,0,2.315,2.315,0,0,0,0,2.382,2.315,2.315,0,0,0,2.382,4.763Zm0,5.952A2.315,2.315,0,0,0,4.763,8.334,2.315,2.315,0,0,0,2.382,5.953,2.315,2.315,0,0,0,0,8.334a2.315,2.315,0,0,0,2.381,2.381Z" transform="translate(0 29.761)" fill="#161616"/>
    </g>
    <g id="Group_3605" data-name="Group 3605" transform="translate(2857.332 6972.545) rotate(90)">
      <path id="Path_3147-4" data-name="Path 3147" d="M2.382,4.763A2.315,2.315,0,0,0,4.763,2.382,2.315,2.315,0,0,0,2.382,0,2.315,2.315,0,0,0,0,2.382,2.315,2.315,0,0,0,2.382,4.763Zm0,5.952A2.315,2.315,0,0,0,4.763,8.334,2.315,2.315,0,0,0,2.382,5.953,2.315,2.315,0,0,0,0,8.334a2.315,2.315,0,0,0,2.381,2.381Zm0,5.952a2.381,2.381,0,1,0,0-4.762,2.381,2.381,0,1,0,0,4.762Zm0,5.952a2.381,2.381,0,1,0,0-4.762,2.381,2.381,0,1,0,0,4.762Zm0,5.952a2.381,2.381,0,1,0,0-4.762,2.381,2.381,0,1,0,0,4.762Z" transform="translate(0 0)" fill="#161616"/>
      <path id="Path_3148-4" data-name="Path 3148" d="M2.382,4.763A2.315,2.315,0,0,0,4.763,2.382,2.315,2.315,0,0,0,2.382,0,2.315,2.315,0,0,0,0,2.382,2.315,2.315,0,0,0,2.382,4.763Zm0,5.952A2.315,2.315,0,0,0,4.763,8.334,2.315,2.315,0,0,0,2.382,5.953,2.315,2.315,0,0,0,0,8.334a2.315,2.315,0,0,0,2.381,2.381Z" transform="translate(0 29.761)" fill="#161616"/>
    </g>
  </g>
</svg>
