<?xml version="1.0" standalone="no"?>
<!DOCTYPE svg PUBLIC "-//W3C//DTD SVG 1.1//EN" "http://www.w3.org/Graphics/SVG/1.1/DTD/svg11.dtd" >
<svg xmlns="http://www.w3.org/2000/svg" xmlns:xlink="http://www.w3.org/1999/xlink" version="1.1">
<metadata>
Created by FontForge 20201107 at Thu Apr 18 19:34:13 2019
 By Jimmy Wärting
Copyright \(c\) 2018 by Jack Halten Fahnestock. All rights reserved.
</metadata>
<defs>
<font id="TINY5x3-200" horiz-adv-x="400" >
  <font-face 
    font-family="TINY 5x3 200"
    font-weight="500"
    font-stretch="normal"
    units-per-em="1000"
    panose-1="0 0 6 0 0 0 0 0 0 0"
    ascent="800"
    descent="-200"
    x-height="450"
    cap-height="550"
    bbox="-500 -450 2300 950"
    underline-thickness="50"
    underline-position="-100"
    stemh="200"
    stemv="200"
    unicode-range="U+0020-1F6F9"
  />
<missing-glyph 
d="M387 400c8 -15 13 -32 13 -50s-5 -35 -13 -50c8 -15 13 -32 13 -50s-5 -35 -13 -50c8 -15 13 -32 13 -50s-5 -35 -13 -50c8 -15 13 -32 13 -50c0 -56 -44 -100 -100 -100c-18 0 -35 5 -50 13c-15 -8 -32 -13 -50 -13s-35 5 -50 13c-15 -8 -32 -13 -50 -13
c-56 0 -100 44 -100 100c0 18 5 35 13 50c-8 15 -13 32 -13 50s5 35 13 50c-8 15 -13 32 -13 50s5 35 13 50c-8 15 -13 32 -13 50s5 35 13 50c-8 15 -13 32 -13 50c0 56 44 100 100 100c18 0 35 -5 50 -13c15 8 32 13 50 13s35 -5 50 -13c15 8 32 13 50 13
c56 0 100 -44 100 -100c0 -18 -5 -35 -13 -50z" />
    <glyph glyph-name=".notdef" 
d="M387 400c8 -15 13 -32 13 -50s-5 -35 -13 -50c8 -15 13 -32 13 -50s-5 -35 -13 -50c8 -15 13 -32 13 -50s-5 -35 -13 -50c8 -15 13 -32 13 -50c0 -56 -44 -100 -100 -100c-18 0 -35 5 -50 13c-15 -8 -32 -13 -50 -13s-35 5 -50 13c-15 -8 -32 -13 -50 -13
c-56 0 -100 44 -100 100c0 18 5 35 13 50c-8 15 -13 32 -13 50s5 35 13 50c-8 15 -13 32 -13 50s5 35 13 50c-8 15 -13 32 -13 50s5 35 13 50c-8 15 -13 32 -13 50c0 56 44 100 100 100c18 0 35 -5 50 -13c15 8 32 13 50 13s35 -5 50 -13c15 8 32 13 50 13
c56 0 100 -44 100 -100c0 -18 -5 -35 -13 -50z" />
    <glyph glyph-name="space" unicode=" " horiz-adv-x="200" 
 />
    <glyph glyph-name="A" unicode="A" 
d="M387 300c8 -15 13 -32 13 -50s-5 -35 -13 -50c8 -15 13 -32 13 -50s-5 -35 -13 -50c8 -15 13 -32 13 -50c0 -56 -44 -100 -100 -100s-100 44 -100 100c0 18 5 35 13 50c-8 15 -13 32 -13 50c0 -18 -5 -35 -13 -50c8 -15 13 -32 13 -50c0 -56 -44 -100 -100 -100
s-100 44 -100 100c0 18 5 35 13 50c-8 15 -13 32 -13 50s5 35 13 50c-8 15 -13 32 -13 50s5 35 13 50c-8 15 -13 32 -13 50c0 56 44 100 100 100c0 56 44 100 100 100s100 -44 100 -100c56 0 100 -44 100 -100c0 -18 -5 -35 -13 -50z" />
    <glyph glyph-name="Aacute" unicode="&#xc1;" 
d="M300 650c0 -56 -44 -100 -100 -100s-100 44 -100 100s44 100 100 100c0 56 44 100 100 100s100 -44 100 -100s-44 -100 -100 -100zM300 450c56 0 100 -44 100 -100c0 -18 -5 -35 -13 -50c8 -15 13 -32 13 -50s-5 -35 -13 -50c8 -15 13 -32 13 -50s-5 -35 -13 -50
c8 -15 13 -32 13 -50c0 -56 -44 -100 -100 -100s-100 44 -100 100c0 18 5 35 13 50c-8 15 -13 32 -13 50c0 -18 -5 -35 -13 -50c8 -15 13 -32 13 -50c0 -56 -44 -100 -100 -100s-100 44 -100 100c0 18 5 35 13 50c-8 15 -13 32 -13 50s5 35 13 50c-8 15 -13 32 -13 50
s5 35 13 50c-8 15 -13 32 -13 50c0 56 44 100 100 100c0 56 44 100 100 100s100 -44 100 -100z" />
    <glyph glyph-name="Abreve" unicode="&#x102;" 
d="M300 550c-18 0 -35 5 -50 13c-15 -8 -32 -13 -50 -13s-35 5 -50 13c-15 -8 -32 -13 -50 -13c-56 0 -100 44 -100 100c0 18 5 35 13 50c-8 15 -13 32 -13 50c0 56 44 100 100 100s100 -44 100 -100c0 56 44 100 100 100s100 -44 100 -100c0 -18 -5 -35 -13 -50
c8 -15 13 -32 13 -50c0 -56 -44 -100 -100 -100zM100 450c0 56 44 100 100 100s100 -44 100 -100c56 0 100 -44 100 -100c0 -18 -5 -35 -13 -50c8 -15 13 -32 13 -50s-5 -35 -13 -50c8 -15 13 -32 13 -50s-5 -35 -13 -50c8 -15 13 -32 13 -50c0 -56 -44 -100 -100 -100
s-100 44 -100 100c0 18 5 35 13 50c-8 15 -13 32 -13 50c0 -18 -5 -35 -13 -50c8 -15 13 -32 13 -50c0 -56 -44 -100 -100 -100s-100 44 -100 100c0 18 5 35 13 50c-8 15 -13 32 -13 50s5 35 13 50c-8 15 -13 32 -13 50s5 35 13 50c-8 15 -13 32 -13 50c0 56 44 100 100 100
z" />
    <glyph glyph-name="Acircumflex" unicode="&#xc2;" 
d="M100 550c-56 0 -100 44 -100 100s44 100 100 100c0 56 44 100 100 100s100 -44 100 -100c56 0 100 -44 100 -100s-44 -100 -100 -100s-100 44 -100 100c0 -56 -44 -100 -100 -100zM300 450c56 0 100 -44 100 -100c0 -18 -5 -35 -13 -50c8 -15 13 -32 13 -50
s-5 -35 -13 -50c8 -15 13 -32 13 -50s-5 -35 -13 -50c8 -15 13 -32 13 -50c0 -56 -44 -100 -100 -100s-100 44 -100 100c0 18 5 35 13 50c-8 15 -13 32 -13 50c0 -18 -5 -35 -13 -50c8 -15 13 -32 13 -50c0 -56 -44 -100 -100 -100s-100 44 -100 100c0 18 5 35 13 50
c-8 15 -13 32 -13 50s5 35 13 50c-8 15 -13 32 -13 50s5 35 13 50c-8 15 -13 32 -13 50c0 56 44 100 100 100c0 56 44 100 100 100s100 -44 100 -100z" />
    <glyph glyph-name="Adieresis" unicode="&#xc4;" 
d="M100 550c-56 0 -100 44 -100 100s44 100 100 100s100 -44 100 -100s-44 -100 -100 -100zM300 550c-56 0 -100 44 -100 100s44 100 100 100s100 -44 100 -100s-44 -100 -100 -100zM300 450c56 0 100 -44 100 -100c0 -18 -5 -35 -13 -50c8 -15 13 -32 13 -50
s-5 -35 -13 -50c8 -15 13 -32 13 -50s-5 -35 -13 -50c8 -15 13 -32 13 -50c0 -56 -44 -100 -100 -100s-100 44 -100 100c0 18 5 35 13 50c-8 15 -13 32 -13 50c0 -18 -5 -35 -13 -50c8 -15 13 -32 13 -50c0 -56 -44 -100 -100 -100s-100 44 -100 100c0 18 5 35 13 50
c-8 15 -13 32 -13 50s5 35 13 50c-8 15 -13 32 -13 50s5 35 13 50c-8 15 -13 32 -13 50c0 56 44 100 100 100c0 56 44 100 100 100s100 -44 100 -100z" />
    <glyph glyph-name="Agrave" unicode="&#xc0;" 
d="M300 650c0 -56 -44 -100 -100 -100s-100 44 -100 100c-56 0 -100 44 -100 100s44 100 100 100s100 -44 100 -100c56 0 100 -44 100 -100zM387 300c8 -15 13 -32 13 -50s-5 -35 -13 -50c8 -15 13 -32 13 -50s-5 -35 -13 -50c8 -15 13 -32 13 -50c0 -56 -44 -100 -100 -100
s-100 44 -100 100c0 18 5 35 13 50c-8 15 -13 32 -13 50c0 -18 -5 -35 -13 -50c8 -15 13 -32 13 -50c0 -56 -44 -100 -100 -100s-100 44 -100 100c0 18 5 35 13 50c-8 15 -13 32 -13 50s5 35 13 50c-8 15 -13 32 -13 50s5 35 13 50c-8 15 -13 32 -13 50c0 56 44 100 100 100
c0 56 44 100 100 100s100 -44 100 -100c56 0 100 -44 100 -100c0 -18 -5 -35 -13 -50z" />
    <glyph glyph-name="Amacron" unicode="&#x100;" 
d="M300 550c-18 0 -35 5 -50 13c-15 -8 -32 -13 -50 -13s-35 5 -50 13c-15 -8 -32 -13 -50 -13c-56 0 -100 44 -100 100s44 100 100 100c18 0 35 -5 50 -13c15 8 32 13 50 13s35 -5 50 -13c15 8 32 13 50 13c56 0 100 -44 100 -100s-44 -100 -100 -100zM300 450
c56 0 100 -44 100 -100c0 -18 -5 -35 -13 -50c8 -15 13 -32 13 -50s-5 -35 -13 -50c8 -15 13 -32 13 -50s-5 -35 -13 -50c8 -15 13 -32 13 -50c0 -56 -44 -100 -100 -100s-100 44 -100 100c0 18 5 35 13 50c-8 15 -13 32 -13 50c0 -18 -5 -35 -13 -50c8 -15 13 -32 13 -50
c0 -56 -44 -100 -100 -100s-100 44 -100 100c0 18 5 35 13 50c-8 15 -13 32 -13 50s5 35 13 50c-8 15 -13 32 -13 50s5 35 13 50c-8 15 -13 32 -13 50c0 56 44 100 100 100c0 56 44 100 100 100s100 -44 100 -100z" />
    <glyph glyph-name="Aogonek" unicode="&#x104;" 
d="M387 300c8 -15 13 -32 13 -50s-5 -35 -13 -50c8 -15 13 -32 13 -50s-5 -35 -13 -50c8 -15 13 -32 13 -50c0 -56 -44 -100 -100 -100c56 0 100 -44 100 -100s-44 -100 -100 -100c-18 0 -35 5 -50 13c-15 -8 -32 -13 -50 -13c-56 0 -100 44 -100 100c0 18 5 35 13 50
c-8 15 -13 32 -13 50c-56 0 -100 44 -100 100c0 18 5 35 13 50c-8 15 -13 32 -13 50s5 35 13 50c-8 15 -13 32 -13 50s5 35 13 50c-8 15 -13 32 -13 50c0 56 44 100 100 100c0 56 44 100 100 100s100 -44 100 -100c56 0 100 -44 100 -100c0 -18 -5 -35 -13 -50zM187 100
c8 -15 13 -32 13 -50c0 18 5 35 13 50c-8 15 -13 32 -13 50c0 -18 -5 -35 -13 -50z" />
    <glyph glyph-name="Aring" unicode="&#xc5;" 
d="M300 450c56 0 100 -44 100 -100c0 -18 -5 -35 -13 -50c8 -15 13 -32 13 -50s-5 -35 -13 -50c8 -15 13 -32 13 -50s-5 -35 -13 -50c8 -15 13 -32 13 -50c0 -56 -44 -100 -100 -100s-100 44 -100 100c0 18 5 35 13 50c-8 15 -13 32 -13 50c0 -18 -5 -35 -13 -50
c8 -15 13 -32 13 -50c0 -56 -44 -100 -100 -100s-100 44 -100 100c0 18 5 35 13 50c-8 15 -13 32 -13 50s5 35 13 50c-8 15 -13 32 -13 50s5 35 13 50c-8 15 -13 32 -13 50c0 56 44 100 100 100c-56 0 -100 44 -100 100s44 100 100 100c0 56 44 100 100 100
s100 -44 100 -100c56 0 100 -44 100 -100s-44 -100 -100 -100z" />
    <glyph glyph-name="Atilde" unicode="&#xc3;" 
d="M400 850c56 0 100 -44 100 -100s-44 -100 -100 -100c0 -56 -44 -100 -100 -100s-100 44 -100 100c0 -56 -44 -100 -100 -100s-100 44 -100 100s44 100 100 100c0 56 44 100 100 100s100 -44 100 -100c0 56 44 100 100 100zM300 450c56 0 100 -44 100 -100
c0 -18 -5 -35 -13 -50c8 -15 13 -32 13 -50s-5 -35 -13 -50c8 -15 13 -32 13 -50s-5 -35 -13 -50c8 -15 13 -32 13 -50c0 -56 -44 -100 -100 -100s-100 44 -100 100c0 18 5 35 13 50c-8 15 -13 32 -13 50c0 -18 -5 -35 -13 -50c8 -15 13 -32 13 -50
c0 -56 -44 -100 -100 -100s-100 44 -100 100c0 18 5 35 13 50c-8 15 -13 32 -13 50s5 35 13 50c-8 15 -13 32 -13 50s5 35 13 50c-8 15 -13 32 -13 50c0 56 44 100 100 100c0 56 44 100 100 100s100 -44 100 -100z" />
    <glyph glyph-name="AE" unicode="&#xc6;" horiz-adv-x="500" 
d="M500 250c0 -56 -44 -100 -100 -100c56 0 100 -44 100 -100s-44 -100 -100 -100c-18 0 -35 5 -50 13c-15 -8 -32 -13 -50 -13c-56 0 -100 44 -100 100c0 18 5 35 13 50c-8 15 -13 32 -13 50c0 -18 -5 -35 -13 -50c8 -15 13 -32 13 -50c0 -56 -44 -100 -100 -100
s-100 44 -100 100c0 18 5 35 13 50c-8 15 -13 32 -13 50s5 35 13 50c-8 15 -13 32 -13 50s5 35 13 50c-8 15 -13 32 -13 50c0 56 44 100 100 100c0 56 44 100 100 100c18 0 35 -5 50 -13c15 8 32 13 50 13s35 -5 50 -13c15 8 32 13 50 13c56 0 100 -44 100 -100
s-44 -100 -100 -100c56 0 100 -44 100 -100z" />
    <glyph glyph-name="B" unicode="B" 
d="M300 250c56 0 100 -44 100 -100s-44 -100 -100 -100c0 -56 -44 -100 -100 -100c-18 0 -35 5 -50 13c-15 -8 -32 -13 -50 -13c-56 0 -100 44 -100 100c0 18 5 35 13 50c-8 15 -13 32 -13 50s5 35 13 50c-8 15 -13 32 -13 50s5 35 13 50c-8 15 -13 32 -13 50s5 35 13 50
c-8 15 -13 32 -13 50c0 56 44 100 100 100c18 0 35 -5 50 -13c15 8 32 13 50 13c56 0 100 -44 100 -100c56 0 100 -44 100 -100s-44 -100 -100 -100z" />
    <glyph glyph-name="C" unicode="C" 
d="M300 250c56 0 100 -44 100 -100s-44 -100 -100 -100c0 -56 -44 -100 -100 -100s-100 44 -100 100c-56 0 -100 44 -100 100c0 18 5 35 13 50c-8 15 -13 32 -13 50s5 35 13 50c-8 15 -13 32 -13 50c0 56 44 100 100 100c0 56 44 100 100 100s100 -44 100 -100
c56 0 100 -44 100 -100s-44 -100 -100 -100s-100 44 -100 100c0 -18 -5 -35 -13 -50c8 -15 13 -32 13 -50s-5 -35 -13 -50c8 -15 13 -32 13 -50c0 56 44 100 100 100z" />
    <glyph glyph-name="Cacute" unicode="&#x106;" 
d="M300 650c0 -56 -44 -100 -100 -100s-100 44 -100 100s44 100 100 100c0 56 44 100 100 100s100 -44 100 -100s-44 -100 -100 -100zM400 350c0 -56 -44 -100 -100 -100s-100 44 -100 100c0 -18 -5 -35 -13 -50c8 -15 13 -32 13 -50s-5 -35 -13 -50c8 -15 13 -32 13 -50
c0 56 44 100 100 100s100 -44 100 -100s-44 -100 -100 -100c0 -56 -44 -100 -100 -100s-100 44 -100 100c-56 0 -100 44 -100 100c0 18 5 35 13 50c-8 15 -13 32 -13 50s5 35 13 50c-8 15 -13 32 -13 50c0 56 44 100 100 100c0 56 44 100 100 100s100 -44 100 -100
c56 0 100 -44 100 -100z" />
    <glyph glyph-name="Ccaron" unicode="&#x10c;" 
d="M300 650c0 -56 -44 -100 -100 -100s-100 44 -100 100c-56 0 -100 44 -100 100s44 100 100 100s100 -44 100 -100c0 56 44 100 100 100s100 -44 100 -100s-44 -100 -100 -100zM400 350c0 -56 -44 -100 -100 -100s-100 44 -100 100c0 -18 -5 -35 -13 -50
c8 -15 13 -32 13 -50s-5 -35 -13 -50c8 -15 13 -32 13 -50c0 56 44 100 100 100s100 -44 100 -100s-44 -100 -100 -100c0 -56 -44 -100 -100 -100s-100 44 -100 100c-56 0 -100 44 -100 100c0 18 5 35 13 50c-8 15 -13 32 -13 50s5 35 13 50c-8 15 -13 32 -13 50
c0 56 44 100 100 100c0 56 44 100 100 100s100 -44 100 -100c56 0 100 -44 100 -100z" />
    <glyph glyph-name="Ccedilla" unicode="&#xc7;" 
d="M300 250c56 0 100 -44 100 -100s-44 -100 -100 -100c0 -18 -5 -35 -13 -50c8 -15 13 -32 13 -50c0 -56 -44 -100 -100 -100c-18 0 -35 5 -50 13c-15 -8 -32 -13 -50 -13c-56 0 -100 44 -100 100s44 100 100 100c-56 0 -100 44 -100 100c0 18 5 35 13 50
c-8 15 -13 32 -13 50s5 35 13 50c-8 15 -13 32 -13 50c0 56 44 100 100 100c0 56 44 100 100 100s100 -44 100 -100c56 0 100 -44 100 -100s-44 -100 -100 -100s-100 44 -100 100c0 -18 -5 -35 -13 -50c8 -15 13 -32 13 -50s-5 -35 -13 -50c8 -15 13 -32 13 -50
c0 56 44 100 100 100z" />
    <glyph glyph-name="Cdotaccent" unicode="&#x10a;" 
d="M300 650c0 -56 -44 -100 -100 -100s-100 44 -100 100s44 100 100 100s100 -44 100 -100zM300 250c56 0 100 -44 100 -100s-44 -100 -100 -100c0 -56 -44 -100 -100 -100s-100 44 -100 100c-56 0 -100 44 -100 100c0 18 5 35 13 50c-8 15 -13 32 -13 50s5 35 13 50
c-8 15 -13 32 -13 50c0 56 44 100 100 100c0 56 44 100 100 100s100 -44 100 -100c56 0 100 -44 100 -100s-44 -100 -100 -100s-100 44 -100 100c0 -18 -5 -35 -13 -50c8 -15 13 -32 13 -50s-5 -35 -13 -50c8 -15 13 -32 13 -50c0 56 44 100 100 100z" />
    <glyph glyph-name="D" unicode="D" 
d="M387 300c8 -15 13 -32 13 -50s-5 -35 -13 -50c8 -15 13 -32 13 -50c0 -56 -44 -100 -100 -100c0 -56 -44 -100 -100 -100c-18 0 -35 5 -50 13c-15 -8 -32 -13 -50 -13c-56 0 -100 44 -100 100c0 18 5 35 13 50c-8 15 -13 32 -13 50s5 35 13 50c-8 15 -13 32 -13 50
s5 35 13 50c-8 15 -13 32 -13 50s5 35 13 50c-8 15 -13 32 -13 50c0 56 44 100 100 100c18 0 35 -5 50 -13c15 8 32 13 50 13c56 0 100 -44 100 -100c56 0 100 -44 100 -100c0 -18 -5 -35 -13 -50zM187 200c8 -15 13 -32 13 -50c0 18 5 35 13 50c-8 15 -13 32 -13 50
s5 35 13 50c-8 15 -13 32 -13 50c0 -18 -5 -35 -13 -50c8 -15 13 -32 13 -50s-5 -35 -13 -50z" />
    <glyph glyph-name="Eth" unicode="&#xd0;" horiz-adv-x="500" 
d="M487 300c8 -15 13 -32 13 -50s-5 -35 -13 -50c8 -15 13 -32 13 -50c0 -56 -44 -100 -100 -100c0 -56 -44 -100 -100 -100c-18 0 -35 5 -50 13c-15 -8 -32 -13 -50 -13c-56 0 -100 44 -100 100c0 18 5 35 13 50c-8 15 -13 32 -13 50c-56 0 -100 44 -100 100
s44 100 100 100c0 18 5 35 13 50c-8 15 -13 32 -13 50c0 56 44 100 100 100c18 0 35 -5 50 -13c15 8 32 13 50 13c56 0 100 -44 100 -100c56 0 100 -44 100 -100c0 -18 -5 -35 -13 -50zM287 200c8 -15 13 -32 13 -50c0 18 5 35 13 50c-8 15 -13 32 -13 50s5 35 13 50
c-8 15 -13 32 -13 50c0 -18 -5 -35 -13 -50c8 -15 13 -32 13 -50s-5 -35 -13 -50z" />
    <glyph glyph-name="Dcaron" unicode="&#x10e;" 
d="M300 650c0 -56 -44 -100 -100 -100s-100 44 -100 100c-56 0 -100 44 -100 100s44 100 100 100s100 -44 100 -100c0 56 44 100 100 100s100 -44 100 -100s-44 -100 -100 -100zM300 450c56 0 100 -44 100 -100c0 -18 -5 -35 -13 -50c8 -15 13 -32 13 -50s-5 -35 -13 -50
c8 -15 13 -32 13 -50c0 -56 -44 -100 -100 -100c0 -56 -44 -100 -100 -100c-18 0 -35 5 -50 13c-15 -8 -32 -13 -50 -13c-56 0 -100 44 -100 100c0 18 5 35 13 50c-8 15 -13 32 -13 50s5 35 13 50c-8 15 -13 32 -13 50s5 35 13 50c-8 15 -13 32 -13 50s5 35 13 50
c-8 15 -13 32 -13 50c0 56 44 100 100 100c18 0 35 -5 50 -13c15 8 32 13 50 13c56 0 100 -44 100 -100zM187 200c8 -15 13 -32 13 -50c0 18 5 35 13 50c-8 15 -13 32 -13 50s5 35 13 50c-8 15 -13 32 -13 50c0 -18 -5 -35 -13 -50c8 -15 13 -32 13 -50s-5 -35 -13 -50z" />
    <glyph glyph-name="Dcroat" unicode="&#x110;" horiz-adv-x="500" 
d="M487 300c8 -15 13 -32 13 -50s-5 -35 -13 -50c8 -15 13 -32 13 -50c0 -56 -44 -100 -100 -100c0 -56 -44 -100 -100 -100c-18 0 -35 5 -50 13c-15 -8 -32 -13 -50 -13c-56 0 -100 44 -100 100c0 18 5 35 13 50c-8 15 -13 32 -13 50c-56 0 -100 44 -100 100
s44 100 100 100c0 18 5 35 13 50c-8 15 -13 32 -13 50c0 56 44 100 100 100c18 0 35 -5 50 -13c15 8 32 13 50 13c56 0 100 -44 100 -100c56 0 100 -44 100 -100c0 -18 -5 -35 -13 -50zM287 200c8 -15 13 -32 13 -50c0 18 5 35 13 50c-8 15 -13 32 -13 50s5 35 13 50
c-8 15 -13 32 -13 50c0 -18 -5 -35 -13 -50c8 -15 13 -32 13 -50s-5 -35 -13 -50z" />
    <glyph glyph-name="E" unicode="E" horiz-adv-x="300" 
d="M300 250c0 -56 -44 -100 -100 -100c56 0 100 -44 100 -100s-44 -100 -100 -100c-18 0 -35 5 -50 13c-15 -8 -32 -13 -50 -13c-56 0 -100 44 -100 100c0 18 5 35 13 50c-8 15 -13 32 -13 50s5 35 13 50c-8 15 -13 32 -13 50s5 35 13 50c-8 15 -13 32 -13 50s5 35 13 50
c-8 15 -13 32 -13 50c0 56 44 100 100 100c18 0 35 -5 50 -13c15 8 32 13 50 13c56 0 100 -44 100 -100s-44 -100 -100 -100c56 0 100 -44 100 -100z" />
    <glyph glyph-name="Eacute" unicode="&#xc9;" horiz-adv-x="300" 
d="M200 650c0 -56 -44 -100 -100 -100s-100 44 -100 100s44 100 100 100c0 56 44 100 100 100s100 -44 100 -100s-44 -100 -100 -100zM300 450c0 -56 -44 -100 -100 -100c56 0 100 -44 100 -100s-44 -100 -100 -100c56 0 100 -44 100 -100s-44 -100 -100 -100
c-18 0 -35 5 -50 13c-15 -8 -32 -13 -50 -13c-56 0 -100 44 -100 100c0 18 5 35 13 50c-8 15 -13 32 -13 50s5 35 13 50c-8 15 -13 32 -13 50s5 35 13 50c-8 15 -13 32 -13 50s5 35 13 50c-8 15 -13 32 -13 50c0 56 44 100 100 100c18 0 35 -5 50 -13c15 8 32 13 50 13
c56 0 100 -44 100 -100z" />
    <glyph glyph-name="Ecaron" unicode="&#x11a;" horiz-adv-x="300" 
d="M200 650c0 -56 -44 -100 -100 -100s-100 44 -100 100c-56 0 -100 44 -100 100s44 100 100 100s100 -44 100 -100c0 56 44 100 100 100s100 -44 100 -100s-44 -100 -100 -100zM300 450c0 -56 -44 -100 -100 -100c56 0 100 -44 100 -100s-44 -100 -100 -100
c56 0 100 -44 100 -100s-44 -100 -100 -100c-18 0 -35 5 -50 13c-15 -8 -32 -13 -50 -13c-56 0 -100 44 -100 100c0 18 5 35 13 50c-8 15 -13 32 -13 50s5 35 13 50c-8 15 -13 32 -13 50s5 35 13 50c-8 15 -13 32 -13 50s5 35 13 50c-8 15 -13 32 -13 50
c0 56 44 100 100 100c18 0 35 -5 50 -13c15 8 32 13 50 13c56 0 100 -44 100 -100z" />
    <glyph glyph-name="Ecircumflex" unicode="&#xca;" horiz-adv-x="300" 
d="M300 750c56 0 100 -44 100 -100s-44 -100 -100 -100s-100 44 -100 100c0 -56 -44 -100 -100 -100s-100 44 -100 100s44 100 100 100c0 56 44 100 100 100s100 -44 100 -100zM0 450c0 56 44 100 100 100c18 0 35 -5 50 -13c15 8 32 13 50 13c56 0 100 -44 100 -100
s-44 -100 -100 -100c56 0 100 -44 100 -100s-44 -100 -100 -100c56 0 100 -44 100 -100s-44 -100 -100 -100c-18 0 -35 5 -50 13c-15 -8 -32 -13 -50 -13c-56 0 -100 44 -100 100c0 18 5 35 13 50c-8 15 -13 32 -13 50s5 35 13 50c-8 15 -13 32 -13 50s5 35 13 50
c-8 15 -13 32 -13 50s5 35 13 50c-8 15 -13 32 -13 50z" />
    <glyph glyph-name="Edieresis" unicode="&#xcb;" horiz-adv-x="300" 
d="M100 750c56 0 100 -44 100 -100s-44 -100 -100 -100s-100 44 -100 100s44 100 100 100zM300 750c56 0 100 -44 100 -100s-44 -100 -100 -100s-100 44 -100 100s44 100 100 100zM0 450c0 56 44 100 100 100c18 0 35 -5 50 -13c15 8 32 13 50 13c56 0 100 -44 100 -100
s-44 -100 -100 -100c56 0 100 -44 100 -100s-44 -100 -100 -100c56 0 100 -44 100 -100s-44 -100 -100 -100c-18 0 -35 5 -50 13c-15 -8 -32 -13 -50 -13c-56 0 -100 44 -100 100c0 18 5 35 13 50c-8 15 -13 32 -13 50s5 35 13 50c-8 15 -13 32 -13 50s5 35 13 50
c-8 15 -13 32 -13 50s5 35 13 50c-8 15 -13 32 -13 50z" />
    <glyph glyph-name="Edotaccent" unicode="&#x116;" horiz-adv-x="300" 
d="M200 650c0 -56 -44 -100 -100 -100s-100 44 -100 100s44 100 100 100s100 -44 100 -100zM300 250c0 -56 -44 -100 -100 -100c56 0 100 -44 100 -100s-44 -100 -100 -100c-18 0 -35 5 -50 13c-15 -8 -32 -13 -50 -13c-56 0 -100 44 -100 100c0 18 5 35 13 50
c-8 15 -13 32 -13 50s5 35 13 50c-8 15 -13 32 -13 50s5 35 13 50c-8 15 -13 32 -13 50s5 35 13 50c-8 15 -13 32 -13 50c0 56 44 100 100 100c18 0 35 -5 50 -13c15 8 32 13 50 13c56 0 100 -44 100 -100s-44 -100 -100 -100c56 0 100 -44 100 -100z" />
    <glyph glyph-name="Egrave" unicode="&#xc8;" horiz-adv-x="300" 
d="M300 650c0 -56 -44 -100 -100 -100s-100 44 -100 100c-56 0 -100 44 -100 100s44 100 100 100s100 -44 100 -100c56 0 100 -44 100 -100zM300 450c0 -56 -44 -100 -100 -100c56 0 100 -44 100 -100s-44 -100 -100 -100c56 0 100 -44 100 -100s-44 -100 -100 -100
c-18 0 -35 5 -50 13c-15 -8 -32 -13 -50 -13c-56 0 -100 44 -100 100c0 18 5 35 13 50c-8 15 -13 32 -13 50s5 35 13 50c-8 15 -13 32 -13 50s5 35 13 50c-8 15 -13 32 -13 50s5 35 13 50c-8 15 -13 32 -13 50c0 56 44 100 100 100c18 0 35 -5 50 -13c15 8 32 13 50 13
c56 0 100 -44 100 -100z" />
    <glyph glyph-name="Emacron" unicode="&#x112;" horiz-adv-x="300" 
d="M300 750c56 0 100 -44 100 -100s-44 -100 -100 -100c-18 0 -35 5 -50 13c-15 -8 -32 -13 -50 -13s-35 5 -50 13c-15 -8 -32 -13 -50 -13c-56 0 -100 44 -100 100s44 100 100 100c18 0 35 -5 50 -13c15 8 32 13 50 13s35 -5 50 -13c15 8 32 13 50 13zM100 550
c18 0 35 -5 50 -13c15 8 32 13 50 13c56 0 100 -44 100 -100s-44 -100 -100 -100c56 0 100 -44 100 -100s-44 -100 -100 -100c56 0 100 -44 100 -100s-44 -100 -100 -100c-18 0 -35 5 -50 13c-15 -8 -32 -13 -50 -13c-56 0 -100 44 -100 100c0 18 5 35 13 50
c-8 15 -13 32 -13 50s5 35 13 50c-8 15 -13 32 -13 50s5 35 13 50c-8 15 -13 32 -13 50s5 35 13 50c-8 15 -13 32 -13 50c0 56 44 100 100 100z" />
    <glyph glyph-name="Eogonek" unicode="&#x118;" horiz-adv-x="300" 
d="M300 -50c56 0 100 -44 100 -100s-44 -100 -100 -100c-18 0 -35 5 -50 13c-15 -8 -32 -13 -50 -13c-56 0 -100 44 -100 100c0 18 5 35 13 50c-8 15 -13 32 -13 50c-56 0 -100 44 -100 100c0 18 5 35 13 50c-8 15 -13 32 -13 50s5 35 13 50c-8 15 -13 32 -13 50s5 35 13 50
c-8 15 -13 32 -13 50s5 35 13 50c-8 15 -13 32 -13 50c0 56 44 100 100 100c18 0 35 -5 50 -13c15 8 32 13 50 13c56 0 100 -44 100 -100s-44 -100 -100 -100c56 0 100 -44 100 -100s-44 -100 -100 -100c56 0 100 -44 100 -100c0 -18 -5 -35 -13 -50c8 -15 13 -32 13 -50z
" />
    <glyph glyph-name="F" unicode="F" horiz-adv-x="300" 
d="M200 350c56 0 100 -44 100 -100s-44 -100 -100 -100c0 -18 -5 -35 -13 -50c8 -15 13 -32 13 -50c0 -56 -44 -100 -100 -100s-100 44 -100 100c0 18 5 35 13 50c-8 15 -13 32 -13 50s5 35 13 50c-8 15 -13 32 -13 50s5 35 13 50c-8 15 -13 32 -13 50s5 35 13 50
c-8 15 -13 32 -13 50c0 56 44 100 100 100c18 0 35 -5 50 -13c15 8 32 13 50 13c56 0 100 -44 100 -100s-44 -100 -100 -100z" />
    <glyph glyph-name="G" unicode="G" 
d="M300 350c56 0 100 -44 100 -100c0 -18 -5 -35 -13 -50c8 -15 13 -32 13 -50s-5 -35 -13 -50c8 -15 13 -32 13 -50c0 -56 -44 -100 -100 -100c-18 0 -35 5 -50 13c-15 -8 -32 -13 -50 -13c-56 0 -100 44 -100 100c-56 0 -100 44 -100 100c0 18 5 35 13 50
c-8 15 -13 32 -13 50s5 35 13 50c-8 15 -13 32 -13 50c0 56 44 100 100 100c0 56 44 100 100 100c18 0 35 -5 50 -13c15 8 32 13 50 13c56 0 100 -44 100 -100s-44 -100 -100 -100c-18 0 -35 5 -50 13c-15 -8 -32 -13 -50 -13c0 -18 -5 -35 -13 -50c8 -15 13 -32 13 -50
s-5 -35 -13 -50c8 -15 13 -32 13 -50c0 18 5 35 13 50c-8 15 -13 32 -13 50c0 56 44 100 100 100z" />
    <glyph glyph-name="Gbreve" unicode="&#x11e;" 
d="M400 650c0 -56 -44 -100 -100 -100c-18 0 -35 5 -50 13c-15 -8 -32 -13 -50 -13s-35 5 -50 13c-15 -8 -32 -13 -50 -13c-56 0 -100 44 -100 100c0 18 5 35 13 50c-8 15 -13 32 -13 50c0 56 44 100 100 100s100 -44 100 -100c0 56 44 100 100 100s100 -44 100 -100
c0 -18 -5 -35 -13 -50c8 -15 13 -32 13 -50zM200 550c18 0 35 -5 50 -13c15 8 32 13 50 13c56 0 100 -44 100 -100s-44 -100 -100 -100c-18 0 -35 5 -50 13c-15 -8 -32 -13 -50 -13c0 -18 -5 -35 -13 -50c8 -15 13 -32 13 -50s-5 -35 -13 -50c8 -15 13 -32 13 -50
c0 18 5 35 13 50c-8 15 -13 32 -13 50c0 56 44 100 100 100s100 -44 100 -100c0 -18 -5 -35 -13 -50c8 -15 13 -32 13 -50s-5 -35 -13 -50c8 -15 13 -32 13 -50c0 -56 -44 -100 -100 -100c-18 0 -35 5 -50 13c-15 -8 -32 -13 -50 -13c-56 0 -100 44 -100 100
c-56 0 -100 44 -100 100c0 18 5 35 13 50c-8 15 -13 32 -13 50s5 35 13 50c-8 15 -13 32 -13 50c0 56 44 100 100 100c0 56 44 100 100 100z" />
    <glyph glyph-name="uni0122" unicode="&#x122;" 
d="M300 350c56 0 100 -44 100 -100c0 -18 -5 -35 -13 -50c8 -15 13 -32 13 -50s-5 -35 -13 -50c8 -15 13 -32 13 -50c0 -56 -44 -100 -100 -100c-18 0 -35 5 -50 13c-15 -8 -32 -13 -50 -13c-56 0 -100 44 -100 100c-56 0 -100 44 -100 100c0 18 5 35 13 50
c-8 15 -13 32 -13 50s5 35 13 50c-8 15 -13 32 -13 50c0 56 44 100 100 100c0 56 44 100 100 100c18 0 35 -5 50 -13c15 8 32 13 50 13c56 0 100 -44 100 -100s-44 -100 -100 -100c-18 0 -35 5 -50 13c-15 -8 -32 -13 -50 -13c0 -18 -5 -35 -13 -50c8 -15 13 -32 13 -50
s-5 -35 -13 -50c8 -15 13 -32 13 -50c0 18 5 35 13 50c-8 15 -13 32 -13 50c0 56 44 100 100 100zM200 -50c18 0 35 -5 50 -13c15 8 32 13 50 13c56 0 100 -44 100 -100c0 -18 -5 -35 -13 -50c8 -15 13 -32 13 -50c0 -56 -44 -100 -100 -100c0 -56 -44 -100 -100 -100
s-100 44 -100 100s44 100 100 100c-56 0 -100 44 -100 100s44 100 100 100z" />
    <glyph glyph-name="Gdotaccent" unicode="&#x120;" 
d="M300 650c0 -56 -44 -100 -100 -100s-100 44 -100 100s44 100 100 100s100 -44 100 -100zM300 350c56 0 100 -44 100 -100c0 -18 -5 -35 -13 -50c8 -15 13 -32 13 -50s-5 -35 -13 -50c8 -15 13 -32 13 -50c0 -56 -44 -100 -100 -100c-18 0 -35 5 -50 13
c-15 -8 -32 -13 -50 -13c-56 0 -100 44 -100 100c-56 0 -100 44 -100 100c0 18 5 35 13 50c-8 15 -13 32 -13 50s5 35 13 50c-8 15 -13 32 -13 50c0 56 44 100 100 100c0 56 44 100 100 100c18 0 35 -5 50 -13c15 8 32 13 50 13c56 0 100 -44 100 -100s-44 -100 -100 -100
c-18 0 -35 5 -50 13c-15 -8 -32 -13 -50 -13c0 -18 -5 -35 -13 -50c8 -15 13 -32 13 -50s-5 -35 -13 -50c8 -15 13 -32 13 -50c0 18 5 35 13 50c-8 15 -13 32 -13 50c0 56 44 100 100 100z" />
    <glyph glyph-name="H" unicode="H" 
d="M387 400c8 -15 13 -32 13 -50s-5 -35 -13 -50c8 -15 13 -32 13 -50s-5 -35 -13 -50c8 -15 13 -32 13 -50s-5 -35 -13 -50c8 -15 13 -32 13 -50c0 -56 -44 -100 -100 -100s-100 44 -100 100c0 18 5 35 13 50c-8 15 -13 32 -13 50c0 -18 -5 -35 -13 -50
c8 -15 13 -32 13 -50c0 -56 -44 -100 -100 -100s-100 44 -100 100c0 18 5 35 13 50c-8 15 -13 32 -13 50s5 35 13 50c-8 15 -13 32 -13 50s5 35 13 50c-8 15 -13 32 -13 50s5 35 13 50c-8 15 -13 32 -13 50c0 56 44 100 100 100s100 -44 100 -100c0 -18 -5 -35 -13 -50
c8 -15 13 -32 13 -50c0 18 5 35 13 50c-8 15 -13 32 -13 50c0 56 44 100 100 100s100 -44 100 -100c0 -18 -5 -35 -13 -50z" />
    <glyph glyph-name="Hbar" unicode="&#x126;" horiz-adv-x="700" 
d="M600 450c56 0 100 -44 100 -100s-44 -100 -100 -100c0 -18 -5 -35 -13 -50c8 -15 13 -32 13 -50s-5 -35 -13 -50c8 -15 13 -32 13 -50c0 -56 -44 -100 -100 -100s-100 44 -100 100c-18 0 -35 5 -50 13c-15 -8 -32 -13 -50 -13c0 -56 -44 -100 -100 -100s-100 44 -100 100
c0 18 5 35 13 50c-8 15 -13 32 -13 50s5 35 13 50c-8 15 -13 32 -13 50c-56 0 -100 44 -100 100s44 100 100 100c0 56 44 100 100 100s100 -44 100 -100c18 0 35 -5 50 -13c15 8 32 13 50 13c0 56 44 100 100 100s100 -44 100 -100zM300 250c18 0 35 -5 50 -13
c15 8 32 13 50 13c-18 0 -35 5 -50 13c-15 -8 -32 -13 -50 -13z" />
    <glyph glyph-name="I" unicode="I" horiz-adv-x="200" 
d="M187 400c8 -15 13 -32 13 -50s-5 -35 -13 -50c8 -15 13 -32 13 -50s-5 -35 -13 -50c8 -15 13 -32 13 -50s-5 -35 -13 -50c8 -15 13 -32 13 -50c0 -56 -44 -100 -100 -100s-100 44 -100 100c0 18 5 35 13 50c-8 15 -13 32 -13 50s5 35 13 50c-8 15 -13 32 -13 50
s5 35 13 50c-8 15 -13 32 -13 50s5 35 13 50c-8 15 -13 32 -13 50c0 56 44 100 100 100s100 -44 100 -100c0 -18 -5 -35 -13 -50z" />
    <glyph glyph-name="Iacute" unicode="&#xcd;" horiz-adv-x="200" 
d="M200 850c56 0 100 -44 100 -100s-44 -100 -100 -100c0 -56 -44 -100 -100 -100s-100 44 -100 100s44 100 100 100c0 56 44 100 100 100zM0 450c0 56 44 100 100 100s100 -44 100 -100c0 -18 -5 -35 -13 -50c8 -15 13 -32 13 -50s-5 -35 -13 -50c8 -15 13 -32 13 -50
s-5 -35 -13 -50c8 -15 13 -32 13 -50s-5 -35 -13 -50c8 -15 13 -32 13 -50c0 -56 -44 -100 -100 -100s-100 44 -100 100c0 18 5 35 13 50c-8 15 -13 32 -13 50s5 35 13 50c-8 15 -13 32 -13 50s5 35 13 50c-8 15 -13 32 -13 50s5 35 13 50c-8 15 -13 32 -13 50z" />
    <glyph glyph-name="Icircumflex" unicode="&#xce;" horiz-adv-x="200" 
d="M200 750c56 0 100 -44 100 -100s-44 -100 -100 -100s-100 44 -100 100c0 -56 -44 -100 -100 -100s-100 44 -100 100s44 100 100 100c0 56 44 100 100 100s100 -44 100 -100zM100 550c56 0 100 -44 100 -100c0 -18 -5 -35 -13 -50c8 -15 13 -32 13 -50s-5 -35 -13 -50
c8 -15 13 -32 13 -50s-5 -35 -13 -50c8 -15 13 -32 13 -50s-5 -35 -13 -50c8 -15 13 -32 13 -50c0 -56 -44 -100 -100 -100s-100 44 -100 100c0 18 5 35 13 50c-8 15 -13 32 -13 50s5 35 13 50c-8 15 -13 32 -13 50s5 35 13 50c-8 15 -13 32 -13 50s5 35 13 50
c-8 15 -13 32 -13 50c0 56 44 100 100 100z" />
    <glyph glyph-name="Idieresis" unicode="&#xcf;" horiz-adv-x="200" 
d="M0 750c56 0 100 -44 100 -100s-44 -100 -100 -100s-100 44 -100 100s44 100 100 100zM200 750c56 0 100 -44 100 -100s-44 -100 -100 -100s-100 44 -100 100s44 100 100 100zM100 550c56 0 100 -44 100 -100c0 -18 -5 -35 -13 -50c8 -15 13 -32 13 -50s-5 -35 -13 -50
c8 -15 13 -32 13 -50s-5 -35 -13 -50c8 -15 13 -32 13 -50s-5 -35 -13 -50c8 -15 13 -32 13 -50c0 -56 -44 -100 -100 -100s-100 44 -100 100c0 18 5 35 13 50c-8 15 -13 32 -13 50s5 35 13 50c-8 15 -13 32 -13 50s5 35 13 50c-8 15 -13 32 -13 50s5 35 13 50
c-8 15 -13 32 -13 50c0 56 44 100 100 100z" />
    <glyph glyph-name="Idotaccent" unicode="&#x130;" horiz-adv-x="200" 
d="M200 650c0 -56 -44 -100 -100 -100s-100 44 -100 100s44 100 100 100s100 -44 100 -100zM100 550c56 0 100 -44 100 -100c0 -18 -5 -35 -13 -50c8 -15 13 -32 13 -50s-5 -35 -13 -50c8 -15 13 -32 13 -50s-5 -35 -13 -50c8 -15 13 -32 13 -50s-5 -35 -13 -50
c8 -15 13 -32 13 -50c0 -56 -44 -100 -100 -100s-100 44 -100 100c0 18 5 35 13 50c-8 15 -13 32 -13 50s5 35 13 50c-8 15 -13 32 -13 50s5 35 13 50c-8 15 -13 32 -13 50s5 35 13 50c-8 15 -13 32 -13 50c0 56 44 100 100 100z" />
    <glyph glyph-name="Igrave" unicode="&#xcc;" horiz-adv-x="200" 
d="M200 650c0 -56 -44 -100 -100 -100s-100 44 -100 100c-56 0 -100 44 -100 100s44 100 100 100s100 -44 100 -100c56 0 100 -44 100 -100zM100 550c56 0 100 -44 100 -100c0 -18 -5 -35 -13 -50c8 -15 13 -32 13 -50s-5 -35 -13 -50c8 -15 13 -32 13 -50s-5 -35 -13 -50
c8 -15 13 -32 13 -50s-5 -35 -13 -50c8 -15 13 -32 13 -50c0 -56 -44 -100 -100 -100s-100 44 -100 100c0 18 5 35 13 50c-8 15 -13 32 -13 50s5 35 13 50c-8 15 -13 32 -13 50s5 35 13 50c-8 15 -13 32 -13 50s5 35 13 50c-8 15 -13 32 -13 50c0 56 44 100 100 100z" />
    <glyph glyph-name="Imacron" unicode="&#x12a;" horiz-adv-x="200" 
d="M200 750c56 0 100 -44 100 -100s-44 -100 -100 -100c-18 0 -35 5 -50 13c-15 -8 -32 -13 -50 -13s-35 5 -50 13c-15 -8 -32 -13 -50 -13c-56 0 -100 44 -100 100s44 100 100 100c18 0 35 -5 50 -13c15 8 32 13 50 13s35 -5 50 -13c15 8 32 13 50 13zM0 450
c0 56 44 100 100 100s100 -44 100 -100c0 -18 -5 -35 -13 -50c8 -15 13 -32 13 -50s-5 -35 -13 -50c8 -15 13 -32 13 -50s-5 -35 -13 -50c8 -15 13 -32 13 -50s-5 -35 -13 -50c8 -15 13 -32 13 -50c0 -56 -44 -100 -100 -100s-100 44 -100 100c0 18 5 35 13 50
c-8 15 -13 32 -13 50s5 35 13 50c-8 15 -13 32 -13 50s5 35 13 50c-8 15 -13 32 -13 50s5 35 13 50c-8 15 -13 32 -13 50z" />
    <glyph glyph-name="Iogonek" unicode="&#x12e;" horiz-adv-x="200" 
d="M187 400c8 -15 13 -32 13 -50s-5 -35 -13 -50c8 -15 13 -32 13 -50s-5 -35 -13 -50c8 -15 13 -32 13 -50s-5 -35 -13 -50c8 -15 13 -32 13 -50c0 -56 -44 -100 -100 -100c56 0 100 -44 100 -100s-44 -100 -100 -100c-18 0 -35 5 -50 13c-15 -8 -32 -13 -50 -13
c-56 0 -100 44 -100 100c0 18 5 35 13 50c-8 15 -13 32 -13 50c0 56 44 100 100 100c0 18 5 35 13 50c-8 15 -13 32 -13 50s5 35 13 50c-8 15 -13 32 -13 50s5 35 13 50c-8 15 -13 32 -13 50s5 35 13 50c-8 15 -13 32 -13 50c0 56 44 100 100 100s100 -44 100 -100
c0 -18 -5 -35 -13 -50z" />
    <glyph glyph-name="J" unicode="J" 
d="M387 400c8 -15 13 -32 13 -50s-5 -35 -13 -50c8 -15 13 -32 13 -50s-5 -35 -13 -50c8 -15 13 -32 13 -50c0 -56 -44 -100 -100 -100c0 -56 -44 -100 -100 -100s-100 44 -100 100c-56 0 -100 44 -100 100c0 18 5 35 13 50c-8 15 -13 32 -13 50c0 56 44 100 100 100
s100 -44 100 -100c0 -18 -5 -35 -13 -50c8 -15 13 -32 13 -50c0 18 5 35 13 50c-8 15 -13 32 -13 50s5 35 13 50c-8 15 -13 32 -13 50s5 35 13 50c-8 15 -13 32 -13 50c0 56 44 100 100 100s100 -44 100 -100c0 -18 -5 -35 -13 -50z" />
    <glyph glyph-name="K" unicode="K" 
d="M300 150c56 0 100 -44 100 -100s-44 -100 -100 -100s-100 44 -100 100c0 -56 -44 -100 -100 -100s-100 44 -100 100c0 18 5 35 13 50c-8 15 -13 32 -13 50s5 35 13 50c-8 15 -13 32 -13 50s5 35 13 50c-8 15 -13 32 -13 50s5 35 13 50c-8 15 -13 32 -13 50
c0 56 44 100 100 100s100 -44 100 -100c0 56 44 100 100 100s100 -44 100 -100s-44 -100 -100 -100c0 -56 -44 -100 -100 -100c56 0 100 -44 100 -100z" />
    <glyph glyph-name="uni0136" unicode="&#x136;" 
d="M300 150c56 0 100 -44 100 -100s-44 -100 -100 -100s-100 44 -100 100c0 -56 -44 -100 -100 -100s-100 44 -100 100c0 18 5 35 13 50c-8 15 -13 32 -13 50s5 35 13 50c-8 15 -13 32 -13 50s5 35 13 50c-8 15 -13 32 -13 50s5 35 13 50c-8 15 -13 32 -13 50
c0 56 44 100 100 100s100 -44 100 -100c0 56 44 100 100 100s100 -44 100 -100s-44 -100 -100 -100c0 -56 -44 -100 -100 -100c56 0 100 -44 100 -100zM0 -150c0 56 44 100 100 100c18 0 35 -5 50 -13c15 8 32 13 50 13c56 0 100 -44 100 -100c0 -18 -5 -35 -13 -50
c8 -15 13 -32 13 -50c0 -56 -44 -100 -100 -100c0 -56 -44 -100 -100 -100s-100 44 -100 100s44 100 100 100c-56 0 -100 44 -100 100z" />
    <glyph glyph-name="L" unicode="L" horiz-adv-x="300" 
d="M200 150c56 0 100 -44 100 -100s-44 -100 -100 -100c-18 0 -35 5 -50 13c-15 -8 -32 -13 -50 -13c-56 0 -100 44 -100 100c0 18 5 35 13 50c-8 15 -13 32 -13 50s5 35 13 50c-8 15 -13 32 -13 50s5 35 13 50c-8 15 -13 32 -13 50s5 35 13 50c-8 15 -13 32 -13 50
c0 56 44 100 100 100s100 -44 100 -100c0 -18 -5 -35 -13 -50c8 -15 13 -32 13 -50s-5 -35 -13 -50c8 -15 13 -32 13 -50s-5 -35 -13 -50c8 -15 13 -32 13 -50z" />
    <glyph glyph-name="Lacute" unicode="&#x139;" horiz-adv-x="300" 
d="M200 650c0 -56 -44 -100 -100 -100s-100 44 -100 100s44 100 100 100c0 56 44 100 100 100s100 -44 100 -100s-44 -100 -100 -100zM200 150c56 0 100 -44 100 -100s-44 -100 -100 -100c-18 0 -35 5 -50 13c-15 -8 -32 -13 -50 -13c-56 0 -100 44 -100 100
c0 18 5 35 13 50c-8 15 -13 32 -13 50s5 35 13 50c-8 15 -13 32 -13 50s5 35 13 50c-8 15 -13 32 -13 50s5 35 13 50c-8 15 -13 32 -13 50c0 56 44 100 100 100s100 -44 100 -100c0 -18 -5 -35 -13 -50c8 -15 13 -32 13 -50s-5 -35 -13 -50c8 -15 13 -32 13 -50
s-5 -35 -13 -50c8 -15 13 -32 13 -50z" />
    <glyph glyph-name="Lcaron" unicode="&#x13d;" horiz-adv-x="500" 
d="M200 350c0 -18 -5 -35 -13 -50c8 -15 13 -32 13 -50s-5 -35 -13 -50c8 -15 13 -32 13 -50c56 0 100 -44 100 -100s-44 -100 -100 -100c-18 0 -35 5 -50 13c-15 -8 -32 -13 -50 -13c-56 0 -100 44 -100 100c0 18 5 35 13 50c-8 15 -13 32 -13 50s5 35 13 50
c-8 15 -13 32 -13 50s5 35 13 50c-8 15 -13 32 -13 50s5 35 13 50c-8 15 -13 32 -13 50c0 56 44 100 100 100s100 -44 100 -100c0 -18 -5 -35 -13 -50c8 -15 13 -32 13 -50zM500 450c0 -18 -5 -35 -13 -50c8 -15 13 -32 13 -50c0 -56 -44 -100 -100 -100
c0 -56 -44 -100 -100 -100s-100 44 -100 100s44 100 100 100c-56 0 -100 44 -100 100s44 100 100 100c18 0 35 -5 50 -13c15 8 32 13 50 13c56 0 100 -44 100 -100z" />
    <glyph glyph-name="uni013B" unicode="&#x13b;" horiz-adv-x="300" 
d="M200 -50c-18 0 -35 5 -50 13c-15 -8 -32 -13 -50 -13c-56 0 -100 44 -100 100c0 18 5 35 13 50c-8 15 -13 32 -13 50s5 35 13 50c-8 15 -13 32 -13 50s5 35 13 50c-8 15 -13 32 -13 50s5 35 13 50c-8 15 -13 32 -13 50c0 56 44 100 100 100s100 -44 100 -100
c0 -18 -5 -35 -13 -50c8 -15 13 -32 13 -50s-5 -35 -13 -50c8 -15 13 -32 13 -50s-5 -35 -13 -50c8 -15 13 -32 13 -50c56 0 100 -44 100 -100s-44 -100 -100 -100zM200 -50c56 0 100 -44 100 -100c0 -18 -5 -35 -13 -50c8 -15 13 -32 13 -50c0 -56 -44 -100 -100 -100
c0 -56 -44 -100 -100 -100s-100 44 -100 100s44 100 100 100c-56 0 -100 44 -100 100s44 100 100 100c18 0 35 -5 50 -13c15 8 32 13 50 13z" />
    <glyph glyph-name="Lslash" unicode="&#x141;" 
d="M300 150c56 0 100 -44 100 -100s-44 -100 -100 -100c-18 0 -35 5 -50 13c-15 -8 -32 -13 -50 -13c-56 0 -100 44 -100 100c0 18 5 35 13 50c-8 15 -13 32 -13 50c-56 0 -100 44 -100 100s44 100 100 100c0 18 5 35 13 50c-8 15 -13 32 -13 50c0 56 44 100 100 100
s100 -44 100 -100c56 0 100 -44 100 -100s-44 -100 -100 -100c0 -18 -5 -35 -13 -50c8 -15 13 -32 13 -50z" />
    <glyph glyph-name="M" unicode="M" horiz-adv-x="600" 
d="M587 400c8 -15 13 -32 13 -50s-5 -35 -13 -50c8 -15 13 -32 13 -50s-5 -35 -13 -50c8 -15 13 -32 13 -50s-5 -35 -13 -50c8 -15 13 -32 13 -50c0 -56 -44 -100 -100 -100s-100 44 -100 100c0 18 5 35 13 50c-8 15 -13 32 -13 50s5 35 13 50c-8 15 -13 32 -13 50
c0 -56 -44 -100 -100 -100s-100 44 -100 100c0 -18 -5 -35 -13 -50c8 -15 13 -32 13 -50s-5 -35 -13 -50c8 -15 13 -32 13 -50c0 -56 -44 -100 -100 -100s-100 44 -100 100c0 18 5 35 13 50c-8 15 -13 32 -13 50s5 35 13 50c-8 15 -13 32 -13 50s5 35 13 50
c-8 15 -13 32 -13 50s5 35 13 50c-8 15 -13 32 -13 50c0 56 44 100 100 100s100 -44 100 -100c56 0 100 -44 100 -100c0 56 44 100 100 100c0 56 44 100 100 100s100 -44 100 -100c0 -18 -5 -35 -13 -50z" />
    <glyph glyph-name="N" unicode="N" 
d="M387 300c8 -15 13 -32 13 -50s-5 -35 -13 -50c8 -15 13 -32 13 -50s-5 -35 -13 -50c8 -15 13 -32 13 -50c0 -56 -44 -100 -100 -100s-100 44 -100 100c0 18 5 35 13 50c-8 15 -13 32 -13 50s5 35 13 50c-8 15 -13 32 -13 50s5 35 13 50c-8 15 -13 32 -13 50
c0 -18 -5 -35 -13 -50c8 -15 13 -32 13 -50s-5 -35 -13 -50c8 -15 13 -32 13 -50s-5 -35 -13 -50c8 -15 13 -32 13 -50c0 -56 -44 -100 -100 -100s-100 44 -100 100c0 18 5 35 13 50c-8 15 -13 32 -13 50s5 35 13 50c-8 15 -13 32 -13 50s5 35 13 50c-8 15 -13 32 -13 50
s5 35 13 50c-8 15 -13 32 -13 50c0 56 44 100 100 100c18 0 35 -5 50 -13c15 8 32 13 50 13c56 0 100 -44 100 -100c56 0 100 -44 100 -100c0 -18 -5 -35 -13 -50z" />
    <glyph glyph-name="Nacute" unicode="&#x143;" 
d="M300 650c0 -56 -44 -100 -100 -100s-100 44 -100 100s44 100 100 100c0 56 44 100 100 100s100 -44 100 -100s-44 -100 -100 -100zM300 450c56 0 100 -44 100 -100c0 -18 -5 -35 -13 -50c8 -15 13 -32 13 -50s-5 -35 -13 -50c8 -15 13 -32 13 -50s-5 -35 -13 -50
c8 -15 13 -32 13 -50c0 -56 -44 -100 -100 -100s-100 44 -100 100c0 18 5 35 13 50c-8 15 -13 32 -13 50s5 35 13 50c-8 15 -13 32 -13 50s5 35 13 50c-8 15 -13 32 -13 50c0 -18 -5 -35 -13 -50c8 -15 13 -32 13 -50s-5 -35 -13 -50c8 -15 13 -32 13 -50s-5 -35 -13 -50
c8 -15 13 -32 13 -50c0 -56 -44 -100 -100 -100s-100 44 -100 100c0 18 5 35 13 50c-8 15 -13 32 -13 50s5 35 13 50c-8 15 -13 32 -13 50s5 35 13 50c-8 15 -13 32 -13 50s5 35 13 50c-8 15 -13 32 -13 50c0 56 44 100 100 100c18 0 35 -5 50 -13c15 8 32 13 50 13
c56 0 100 -44 100 -100z" />
    <glyph glyph-name="Ncaron" unicode="&#x147;" 
d="M300 650c0 -56 -44 -100 -100 -100s-100 44 -100 100c-56 0 -100 44 -100 100s44 100 100 100s100 -44 100 -100c0 56 44 100 100 100s100 -44 100 -100s-44 -100 -100 -100zM300 450c56 0 100 -44 100 -100c0 -18 -5 -35 -13 -50c8 -15 13 -32 13 -50s-5 -35 -13 -50
c8 -15 13 -32 13 -50s-5 -35 -13 -50c8 -15 13 -32 13 -50c0 -56 -44 -100 -100 -100s-100 44 -100 100c0 18 5 35 13 50c-8 15 -13 32 -13 50s5 35 13 50c-8 15 -13 32 -13 50s5 35 13 50c-8 15 -13 32 -13 50c0 -18 -5 -35 -13 -50c8 -15 13 -32 13 -50s-5 -35 -13 -50
c8 -15 13 -32 13 -50s-5 -35 -13 -50c8 -15 13 -32 13 -50c0 -56 -44 -100 -100 -100s-100 44 -100 100c0 18 5 35 13 50c-8 15 -13 32 -13 50s5 35 13 50c-8 15 -13 32 -13 50s5 35 13 50c-8 15 -13 32 -13 50s5 35 13 50c-8 15 -13 32 -13 50c0 56 44 100 100 100
c18 0 35 -5 50 -13c15 8 32 13 50 13c56 0 100 -44 100 -100z" />
    <glyph glyph-name="uni0145" unicode="&#x145;" 
d="M387 300c8 -15 13 -32 13 -50s-5 -35 -13 -50c8 -15 13 -32 13 -50s-5 -35 -13 -50c8 -15 13 -32 13 -50c0 -56 -44 -100 -100 -100s-100 44 -100 100c0 18 5 35 13 50c-8 15 -13 32 -13 50s5 35 13 50c-8 15 -13 32 -13 50s5 35 13 50c-8 15 -13 32 -13 50
c0 -18 -5 -35 -13 -50c8 -15 13 -32 13 -50s-5 -35 -13 -50c8 -15 13 -32 13 -50s-5 -35 -13 -50c8 -15 13 -32 13 -50c0 -56 -44 -100 -100 -100s-100 44 -100 100c0 18 5 35 13 50c-8 15 -13 32 -13 50s5 35 13 50c-8 15 -13 32 -13 50s5 35 13 50c-8 15 -13 32 -13 50
s5 35 13 50c-8 15 -13 32 -13 50c0 56 44 100 100 100c18 0 35 -5 50 -13c15 8 32 13 50 13c56 0 100 -44 100 -100c56 0 100 -44 100 -100c0 -18 -5 -35 -13 -50zM0 -150c0 56 44 100 100 100c18 0 35 -5 50 -13c15 8 32 13 50 13c56 0 100 -44 100 -100
c0 -18 -5 -35 -13 -50c8 -15 13 -32 13 -50c0 -56 -44 -100 -100 -100c0 -56 -44 -100 -100 -100s-100 44 -100 100s44 100 100 100c-56 0 -100 44 -100 100z" />
    <glyph glyph-name="Eng" unicode="&#x14a;" 
d="M387 300c8 -15 13 -32 13 -50s-5 -35 -13 -50c8 -15 13 -32 13 -50s-5 -35 -13 -50c8 -15 13 -32 13 -50s-5 -35 -13 -50c8 -15 13 -32 13 -50s-5 -35 -13 -50c8 -15 13 -32 13 -50c0 -56 -44 -100 -100 -100c-18 0 -35 5 -50 13c-15 -8 -32 -13 -50 -13
c-56 0 -100 44 -100 100s44 100 100 100c0 18 5 35 13 50c-8 15 -13 32 -13 50s5 35 13 50c-8 15 -13 32 -13 50s5 35 13 50c-8 15 -13 32 -13 50s5 35 13 50c-8 15 -13 32 -13 50c0 -18 -5 -35 -13 -50c8 -15 13 -32 13 -50s-5 -35 -13 -50c8 -15 13 -32 13 -50
s-5 -35 -13 -50c8 -15 13 -32 13 -50c0 -56 -44 -100 -100 -100s-100 44 -100 100c0 18 5 35 13 50c-8 15 -13 32 -13 50s5 35 13 50c-8 15 -13 32 -13 50s5 35 13 50c-8 15 -13 32 -13 50s5 35 13 50c-8 15 -13 32 -13 50c0 56 44 100 100 100c18 0 35 -5 50 -13
c15 8 32 13 50 13c56 0 100 -44 100 -100c56 0 100 -44 100 -100c0 -18 -5 -35 -13 -50z" />
    <glyph glyph-name="Ntilde" unicode="&#xd1;" 
d="M400 850c56 0 100 -44 100 -100s-44 -100 -100 -100c0 -56 -44 -100 -100 -100s-100 44 -100 100c0 -56 -44 -100 -100 -100s-100 44 -100 100s44 100 100 100c0 56 44 100 100 100s100 -44 100 -100c0 56 44 100 100 100zM0 450c0 56 44 100 100 100c18 0 35 -5 50 -13
c15 8 32 13 50 13c56 0 100 -44 100 -100c56 0 100 -44 100 -100c0 -18 -5 -35 -13 -50c8 -15 13 -32 13 -50s-5 -35 -13 -50c8 -15 13 -32 13 -50s-5 -35 -13 -50c8 -15 13 -32 13 -50c0 -56 -44 -100 -100 -100s-100 44 -100 100c0 18 5 35 13 50c-8 15 -13 32 -13 50
s5 35 13 50c-8 15 -13 32 -13 50s5 35 13 50c-8 15 -13 32 -13 50c0 -18 -5 -35 -13 -50c8 -15 13 -32 13 -50s-5 -35 -13 -50c8 -15 13 -32 13 -50s-5 -35 -13 -50c8 -15 13 -32 13 -50c0 -56 -44 -100 -100 -100s-100 44 -100 100c0 18 5 35 13 50c-8 15 -13 32 -13 50
s5 35 13 50c-8 15 -13 32 -13 50s5 35 13 50c-8 15 -13 32 -13 50s5 35 13 50c-8 15 -13 32 -13 50z" />
    <glyph glyph-name="O" unicode="O" 
d="M387 300c8 -15 13 -32 13 -50s-5 -35 -13 -50c8 -15 13 -32 13 -50c0 -56 -44 -100 -100 -100c0 -56 -44 -100 -100 -100s-100 44 -100 100c-56 0 -100 44 -100 100c0 18 5 35 13 50c-8 15 -13 32 -13 50s5 35 13 50c-8 15 -13 32 -13 50c0 56 44 100 100 100
c0 56 44 100 100 100s100 -44 100 -100c56 0 100 -44 100 -100c0 -18 -5 -35 -13 -50zM187 200c8 -15 13 -32 13 -50c0 18 5 35 13 50c-8 15 -13 32 -13 50s5 35 13 50c-8 15 -13 32 -13 50c0 -18 -5 -35 -13 -50c8 -15 13 -32 13 -50s-5 -35 -13 -50z" />
    <glyph glyph-name="Oacute" unicode="&#xd3;" 
d="M300 650c0 -56 -44 -100 -100 -100s-100 44 -100 100s44 100 100 100c0 56 44 100 100 100s100 -44 100 -100s-44 -100 -100 -100zM300 450c56 0 100 -44 100 -100c0 -18 -5 -35 -13 -50c8 -15 13 -32 13 -50s-5 -35 -13 -50c8 -15 13 -32 13 -50
c0 -56 -44 -100 -100 -100c0 -56 -44 -100 -100 -100s-100 44 -100 100c-56 0 -100 44 -100 100c0 18 5 35 13 50c-8 15 -13 32 -13 50s5 35 13 50c-8 15 -13 32 -13 50c0 56 44 100 100 100c0 56 44 100 100 100s100 -44 100 -100zM187 200c8 -15 13 -32 13 -50
c0 18 5 35 13 50c-8 15 -13 32 -13 50s5 35 13 50c-8 15 -13 32 -13 50c0 -18 -5 -35 -13 -50c8 -15 13 -32 13 -50s-5 -35 -13 -50z" />
    <glyph glyph-name="Ocircumflex" unicode="&#xd4;" 
d="M100 550c-56 0 -100 44 -100 100s44 100 100 100c0 56 44 100 100 100s100 -44 100 -100c56 0 100 -44 100 -100s-44 -100 -100 -100s-100 44 -100 100c0 -56 -44 -100 -100 -100zM300 450c56 0 100 -44 100 -100c0 -18 -5 -35 -13 -50c8 -15 13 -32 13 -50
s-5 -35 -13 -50c8 -15 13 -32 13 -50c0 -56 -44 -100 -100 -100c0 -56 -44 -100 -100 -100s-100 44 -100 100c-56 0 -100 44 -100 100c0 18 5 35 13 50c-8 15 -13 32 -13 50s5 35 13 50c-8 15 -13 32 -13 50c0 56 44 100 100 100c0 56 44 100 100 100s100 -44 100 -100z
M187 200c8 -15 13 -32 13 -50c0 18 5 35 13 50c-8 15 -13 32 -13 50s5 35 13 50c-8 15 -13 32 -13 50c0 -18 -5 -35 -13 -50c8 -15 13 -32 13 -50s-5 -35 -13 -50z" />
    <glyph glyph-name="Odieresis" unicode="&#xd6;" 
d="M100 550c-56 0 -100 44 -100 100s44 100 100 100s100 -44 100 -100s-44 -100 -100 -100zM300 550c-56 0 -100 44 -100 100s44 100 100 100s100 -44 100 -100s-44 -100 -100 -100zM300 450c56 0 100 -44 100 -100c0 -18 -5 -35 -13 -50c8 -15 13 -32 13 -50
s-5 -35 -13 -50c8 -15 13 -32 13 -50c0 -56 -44 -100 -100 -100c0 -56 -44 -100 -100 -100s-100 44 -100 100c-56 0 -100 44 -100 100c0 18 5 35 13 50c-8 15 -13 32 -13 50s5 35 13 50c-8 15 -13 32 -13 50c0 56 44 100 100 100c0 56 44 100 100 100s100 -44 100 -100z
M187 200c8 -15 13 -32 13 -50c0 18 5 35 13 50c-8 15 -13 32 -13 50s5 35 13 50c-8 15 -13 32 -13 50c0 -18 -5 -35 -13 -50c8 -15 13 -32 13 -50s-5 -35 -13 -50z" />
    <glyph glyph-name="Ograve" unicode="&#xd2;" 
d="M300 650c0 -56 -44 -100 -100 -100s-100 44 -100 100c-56 0 -100 44 -100 100s44 100 100 100s100 -44 100 -100c56 0 100 -44 100 -100zM387 300c8 -15 13 -32 13 -50s-5 -35 -13 -50c8 -15 13 -32 13 -50c0 -56 -44 -100 -100 -100c0 -56 -44 -100 -100 -100
s-100 44 -100 100c-56 0 -100 44 -100 100c0 18 5 35 13 50c-8 15 -13 32 -13 50s5 35 13 50c-8 15 -13 32 -13 50c0 56 44 100 100 100c0 56 44 100 100 100s100 -44 100 -100c56 0 100 -44 100 -100c0 -18 -5 -35 -13 -50zM187 200c8 -15 13 -32 13 -50c0 18 5 35 13 50
c-8 15 -13 32 -13 50s5 35 13 50c-8 15 -13 32 -13 50c0 -18 -5 -35 -13 -50c8 -15 13 -32 13 -50s-5 -35 -13 -50z" />
    <glyph glyph-name="Ohungarumlaut" unicode="&#x150;" 
d="M400 850c56 0 100 -44 100 -100s-44 -100 -100 -100c0 -56 -44 -100 -100 -100s-100 44 -100 100c0 -56 -44 -100 -100 -100s-100 44 -100 100s44 100 100 100c0 56 44 100 100 100s100 -44 100 -100c0 56 44 100 100 100zM300 450c56 0 100 -44 100 -100
c0 -18 -5 -35 -13 -50c8 -15 13 -32 13 -50s-5 -35 -13 -50c8 -15 13 -32 13 -50c0 -56 -44 -100 -100 -100c0 -56 -44 -100 -100 -100s-100 44 -100 100c-56 0 -100 44 -100 100c0 18 5 35 13 50c-8 15 -13 32 -13 50s5 35 13 50c-8 15 -13 32 -13 50c0 56 44 100 100 100
c0 56 44 100 100 100s100 -44 100 -100zM187 200c8 -15 13 -32 13 -50c0 18 5 35 13 50c-8 15 -13 32 -13 50s5 35 13 50c-8 15 -13 32 -13 50c0 -18 -5 -35 -13 -50c8 -15 13 -32 13 -50s-5 -35 -13 -50z" />
    <glyph glyph-name="Omacron" unicode="&#x14c;" 
d="M300 550c-18 0 -35 5 -50 13c-15 -8 -32 -13 -50 -13s-35 5 -50 13c-15 -8 -32 -13 -50 -13c-56 0 -100 44 -100 100s44 100 100 100c18 0 35 -5 50 -13c15 8 32 13 50 13s35 -5 50 -13c15 8 32 13 50 13c56 0 100 -44 100 -100s-44 -100 -100 -100zM300 450
c56 0 100 -44 100 -100c0 -18 -5 -35 -13 -50c8 -15 13 -32 13 -50s-5 -35 -13 -50c8 -15 13 -32 13 -50c0 -56 -44 -100 -100 -100c0 -56 -44 -100 -100 -100s-100 44 -100 100c-56 0 -100 44 -100 100c0 18 5 35 13 50c-8 15 -13 32 -13 50s5 35 13 50
c-8 15 -13 32 -13 50c0 56 44 100 100 100c0 56 44 100 100 100s100 -44 100 -100zM187 200c8 -15 13 -32 13 -50c0 18 5 35 13 50c-8 15 -13 32 -13 50s5 35 13 50c-8 15 -13 32 -13 50c0 -18 -5 -35 -13 -50c8 -15 13 -32 13 -50s-5 -35 -13 -50z" />
    <glyph glyph-name="Oslash" unicode="&#xd8;" horiz-adv-x="600" 
d="M500 350c56 0 100 -44 100 -100c0 -18 -5 -35 -13 -50c8 -15 13 -32 13 -50c0 -56 -44 -100 -100 -100c0 -56 -44 -100 -100 -100c-18 0 -35 5 -50 13c-15 -8 -32 -13 -50 -13c-56 0 -100 44 -100 100c0 -56 -44 -100 -100 -100s-100 44 -100 100s44 100 100 100
c-56 0 -100 44 -100 100c0 18 5 35 13 50c-8 15 -13 32 -13 50c0 56 44 100 100 100c0 56 44 100 100 100c18 0 35 -5 50 -13c15 8 32 13 50 13c56 0 100 -44 100 -100c0 56 44 100 100 100s100 -44 100 -100s-44 -100 -100 -100zM250 363c-15 -8 -32 -13 -50 -13
c0 -18 -5 -35 -13 -50c8 -15 13 -32 13 -50c0 56 44 100 100 100c-18 0 -35 5 -50 13zM350 137c15 8 32 13 50 13c0 18 5 35 13 50c-8 15 -13 32 -13 50c0 -56 -44 -100 -100 -100c18 0 35 -5 50 -13z" />
    <glyph glyph-name="Otilde" unicode="&#xd5;" 
d="M400 850c56 0 100 -44 100 -100s-44 -100 -100 -100c0 -56 -44 -100 -100 -100s-100 44 -100 100c0 -56 -44 -100 -100 -100s-100 44 -100 100s44 100 100 100c0 56 44 100 100 100s100 -44 100 -100c0 56 44 100 100 100zM300 450c56 0 100 -44 100 -100
c0 -18 -5 -35 -13 -50c8 -15 13 -32 13 -50s-5 -35 -13 -50c8 -15 13 -32 13 -50c0 -56 -44 -100 -100 -100c0 -56 -44 -100 -100 -100s-100 44 -100 100c-56 0 -100 44 -100 100c0 18 5 35 13 50c-8 15 -13 32 -13 50s5 35 13 50c-8 15 -13 32 -13 50c0 56 44 100 100 100
c0 56 44 100 100 100s100 -44 100 -100zM187 200c8 -15 13 -32 13 -50c0 18 5 35 13 50c-8 15 -13 32 -13 50s5 35 13 50c-8 15 -13 32 -13 50c0 -18 -5 -35 -13 -50c8 -15 13 -32 13 -50s-5 -35 -13 -50z" />
    <glyph glyph-name="OE" unicode="&#x152;" horiz-adv-x="500" 
d="M500 250c0 -56 -44 -100 -100 -100c56 0 100 -44 100 -100s-44 -100 -100 -100c-18 0 -35 5 -50 13c-15 -8 -32 -13 -50 -13s-35 5 -50 13c-15 -8 -32 -13 -50 -13c-56 0 -100 44 -100 100c-56 0 -100 44 -100 100c0 18 5 35 13 50c-8 15 -13 32 -13 50s5 35 13 50
c-8 15 -13 32 -13 50c0 56 44 100 100 100c0 56 44 100 100 100c18 0 35 -5 50 -13c15 8 32 13 50 13s35 -5 50 -13c15 8 32 13 50 13c56 0 100 -44 100 -100s-44 -100 -100 -100c56 0 100 -44 100 -100zM213 300c-8 15 -13 32 -13 50c0 -18 -5 -35 -13 -50
c8 -15 13 -32 13 -50s-5 -35 -13 -50c8 -15 13 -32 13 -50c0 18 5 35 13 50c-8 15 -13 32 -13 50s5 35 13 50z" />
    <glyph glyph-name="P" unicode="P" 
d="M300 450c56 0 100 -44 100 -100s-44 -100 -100 -100c0 -56 -44 -100 -100 -100c0 -18 -5 -35 -13 -50c8 -15 13 -32 13 -50c0 -56 -44 -100 -100 -100s-100 44 -100 100c0 18 5 35 13 50c-8 15 -13 32 -13 50s5 35 13 50c-8 15 -13 32 -13 50s5 35 13 50
c-8 15 -13 32 -13 50s5 35 13 50c-8 15 -13 32 -13 50c0 56 44 100 100 100c18 0 35 -5 50 -13c15 8 32 13 50 13c56 0 100 -44 100 -100z" />
    <glyph glyph-name="Thorn" unicode="&#xde;" 
d="M300 350c56 0 100 -44 100 -100s-44 -100 -100 -100c0 -56 -44 -100 -100 -100c0 -56 -44 -100 -100 -100s-100 44 -100 100c0 18 5 35 13 50c-8 15 -13 32 -13 50s5 35 13 50c-8 15 -13 32 -13 50s5 35 13 50c-8 15 -13 32 -13 50s5 35 13 50c-8 15 -13 32 -13 50
c0 56 44 100 100 100s100 -44 100 -100c56 0 100 -44 100 -100z" />
    <glyph glyph-name="Q" unicode="Q" 
d="M400 250c0 -56 -44 -100 -100 -100c56 0 100 -44 100 -100s-44 -100 -100 -100c-18 0 -35 5 -50 13c-15 -8 -32 -13 -50 -13c-56 0 -100 44 -100 100c-56 0 -100 44 -100 100c0 18 5 35 13 50c-8 15 -13 32 -13 50s5 35 13 50c-8 15 -13 32 -13 50c0 56 44 100 100 100
c0 56 44 100 100 100s100 -44 100 -100c56 0 100 -44 100 -100c0 -18 -5 -35 -13 -50c8 -15 13 -32 13 -50zM213 300c-8 15 -13 32 -13 50c0 -18 -5 -35 -13 -50c8 -15 13 -32 13 -50c0 18 5 35 13 50z" />
    <glyph glyph-name="R" unicode="R" 
d="M300 250c56 0 100 -44 100 -100c0 -18 -5 -35 -13 -50c8 -15 13 -32 13 -50c0 -56 -44 -100 -100 -100s-100 44 -100 100c0 18 5 35 13 50c-8 15 -13 32 -13 50c0 -18 -5 -35 -13 -50c8 -15 13 -32 13 -50c0 -56 -44 -100 -100 -100s-100 44 -100 100c0 18 5 35 13 50
c-8 15 -13 32 -13 50s5 35 13 50c-8 15 -13 32 -13 50s5 35 13 50c-8 15 -13 32 -13 50s5 35 13 50c-8 15 -13 32 -13 50c0 56 44 100 100 100c18 0 35 -5 50 -13c15 8 32 13 50 13c56 0 100 -44 100 -100c56 0 100 -44 100 -100s-44 -100 -100 -100z" />
    <glyph glyph-name="Racute" unicode="&#x154;" 
d="M300 650c0 -56 -44 -100 -100 -100s-100 44 -100 100s44 100 100 100c0 56 44 100 100 100s100 -44 100 -100s-44 -100 -100 -100zM400 350c0 -56 -44 -100 -100 -100c56 0 100 -44 100 -100c0 -18 -5 -35 -13 -50c8 -15 13 -32 13 -50c0 -56 -44 -100 -100 -100
s-100 44 -100 100c0 18 5 35 13 50c-8 15 -13 32 -13 50c0 -18 -5 -35 -13 -50c8 -15 13 -32 13 -50c0 -56 -44 -100 -100 -100s-100 44 -100 100c0 18 5 35 13 50c-8 15 -13 32 -13 50s5 35 13 50c-8 15 -13 32 -13 50s5 35 13 50c-8 15 -13 32 -13 50s5 35 13 50
c-8 15 -13 32 -13 50c0 56 44 100 100 100c18 0 35 -5 50 -13c15 8 32 13 50 13c56 0 100 -44 100 -100c56 0 100 -44 100 -100z" />
    <glyph glyph-name="Rcaron" unicode="&#x158;" 
d="M300 650c0 -56 -44 -100 -100 -100s-100 44 -100 100c-56 0 -100 44 -100 100s44 100 100 100s100 -44 100 -100c0 56 44 100 100 100s100 -44 100 -100s-44 -100 -100 -100zM400 350c0 -56 -44 -100 -100 -100c56 0 100 -44 100 -100c0 -18 -5 -35 -13 -50
c8 -15 13 -32 13 -50c0 -56 -44 -100 -100 -100s-100 44 -100 100c0 18 5 35 13 50c-8 15 -13 32 -13 50c0 -18 -5 -35 -13 -50c8 -15 13 -32 13 -50c0 -56 -44 -100 -100 -100s-100 44 -100 100c0 18 5 35 13 50c-8 15 -13 32 -13 50s5 35 13 50c-8 15 -13 32 -13 50
s5 35 13 50c-8 15 -13 32 -13 50s5 35 13 50c-8 15 -13 32 -13 50c0 56 44 100 100 100c18 0 35 -5 50 -13c15 8 32 13 50 13c56 0 100 -44 100 -100c56 0 100 -44 100 -100z" />
    <glyph glyph-name="uni0156" unicode="&#x156;" 
d="M300 250c56 0 100 -44 100 -100c0 -18 -5 -35 -13 -50c8 -15 13 -32 13 -50c0 -56 -44 -100 -100 -100s-100 44 -100 100c0 18 5 35 13 50c-8 15 -13 32 -13 50c0 -18 -5 -35 -13 -50c8 -15 13 -32 13 -50c0 -56 -44 -100 -100 -100s-100 44 -100 100c0 18 5 35 13 50
c-8 15 -13 32 -13 50s5 35 13 50c-8 15 -13 32 -13 50s5 35 13 50c-8 15 -13 32 -13 50s5 35 13 50c-8 15 -13 32 -13 50c0 56 44 100 100 100c18 0 35 -5 50 -13c15 8 32 13 50 13c56 0 100 -44 100 -100c56 0 100 -44 100 -100s-44 -100 -100 -100zM0 -150
c0 56 44 100 100 100c18 0 35 -5 50 -13c15 8 32 13 50 13c56 0 100 -44 100 -100c0 -18 -5 -35 -13 -50c8 -15 13 -32 13 -50c0 -56 -44 -100 -100 -100c0 -56 -44 -100 -100 -100s-100 44 -100 100s44 100 100 100c-56 0 -100 44 -100 100z" />
    <glyph glyph-name="S" unicode="S" 
d="M300 250c56 0 100 -44 100 -100s-44 -100 -100 -100c0 -56 -44 -100 -100 -100c-18 0 -35 5 -50 13c-15 -8 -32 -13 -50 -13c-56 0 -100 44 -100 100s44 100 100 100c18 0 35 -5 50 -13c15 8 32 13 50 13c-56 0 -100 44 -100 100c-56 0 -100 44 -100 100s44 100 100 100
c0 56 44 100 100 100c18 0 35 -5 50 -13c15 8 32 13 50 13c56 0 100 -44 100 -100s-44 -100 -100 -100c-18 0 -35 5 -50 13c-15 -8 -32 -13 -50 -13c56 0 100 -44 100 -100z" />
    <glyph glyph-name="Sacute" unicode="&#x15a;" 
d="M300 650c0 -56 -44 -100 -100 -100s-100 44 -100 100s44 100 100 100c0 56 44 100 100 100s100 -44 100 -100s-44 -100 -100 -100zM300 350c-18 0 -35 5 -50 13c-15 -8 -32 -13 -50 -13c56 0 100 -44 100 -100c56 0 100 -44 100 -100s-44 -100 -100 -100
c0 -56 -44 -100 -100 -100c-18 0 -35 5 -50 13c-15 -8 -32 -13 -50 -13c-56 0 -100 44 -100 100s44 100 100 100c18 0 35 -5 50 -13c15 8 32 13 50 13c-56 0 -100 44 -100 100c-56 0 -100 44 -100 100s44 100 100 100c0 56 44 100 100 100c18 0 35 -5 50 -13
c15 8 32 13 50 13c56 0 100 -44 100 -100s-44 -100 -100 -100z" />
    <glyph glyph-name="Scaron" unicode="&#x160;" 
d="M300 650c0 -56 -44 -100 -100 -100s-100 44 -100 100c-56 0 -100 44 -100 100s44 100 100 100s100 -44 100 -100c0 56 44 100 100 100s100 -44 100 -100s-44 -100 -100 -100zM300 350c-18 0 -35 5 -50 13c-15 -8 -32 -13 -50 -13c56 0 100 -44 100 -100
c56 0 100 -44 100 -100s-44 -100 -100 -100c0 -56 -44 -100 -100 -100c-18 0 -35 5 -50 13c-15 -8 -32 -13 -50 -13c-56 0 -100 44 -100 100s44 100 100 100c18 0 35 -5 50 -13c15 8 32 13 50 13c-56 0 -100 44 -100 100c-56 0 -100 44 -100 100s44 100 100 100
c0 56 44 100 100 100c18 0 35 -5 50 -13c15 8 32 13 50 13c56 0 100 -44 100 -100s-44 -100 -100 -100z" />
    <glyph glyph-name="Scedilla" unicode="&#x15e;" 
d="M300 250c56 0 100 -44 100 -100s-44 -100 -100 -100c0 -18 -5 -35 -13 -50c8 -15 13 -32 13 -50s-5 -35 -13 -50c8 -15 13 -32 13 -50c0 -56 -44 -100 -100 -100c-18 0 -35 5 -50 13c-15 -8 -32 -13 -50 -13c-56 0 -100 44 -100 100s44 100 100 100
c-56 0 -100 44 -100 100s44 100 100 100c18 0 35 -5 50 -13c15 8 32 13 50 13c-56 0 -100 44 -100 100c-56 0 -100 44 -100 100s44 100 100 100c0 56 44 100 100 100c18 0 35 -5 50 -13c15 8 32 13 50 13c56 0 100 -44 100 -100s-44 -100 -100 -100c-18 0 -35 5 -50 13
c-15 -8 -32 -13 -50 -13c56 0 100 -44 100 -100z" />
    <glyph glyph-name="uni0218" unicode="&#x218;" 
d="M300 250c56 0 100 -44 100 -100s-44 -100 -100 -100c0 -56 -44 -100 -100 -100c-18 0 -35 5 -50 13c-15 -8 -32 -13 -50 -13c-56 0 -100 44 -100 100s44 100 100 100c18 0 35 -5 50 -13c15 8 32 13 50 13c-56 0 -100 44 -100 100c-56 0 -100 44 -100 100s44 100 100 100
c0 56 44 100 100 100c18 0 35 -5 50 -13c15 8 32 13 50 13c56 0 100 -44 100 -100s-44 -100 -100 -100c-18 0 -35 5 -50 13c-15 -8 -32 -13 -50 -13c56 0 100 -44 100 -100zM100 -50c18 0 35 -5 50 -13c15 8 32 13 50 13c56 0 100 -44 100 -100c0 -18 -5 -35 -13 -50
c8 -15 13 -32 13 -50c0 -56 -44 -100 -100 -100c0 -56 -44 -100 -100 -100s-100 44 -100 100s44 100 100 100c-56 0 -100 44 -100 100s44 100 100 100z" />
    <glyph glyph-name="uni1E9E" unicode="&#x1e9e;" horiz-adv-x="500" 
d="M500 350c0 -56 -44 -100 -100 -100c56 0 100 -44 100 -100s-44 -100 -100 -100c0 -56 -44 -100 -100 -100s-100 44 -100 100s44 100 100 100c-56 0 -100 44 -100 100s44 100 100 100c-18 0 -35 5 -50 13c-15 -8 -32 -13 -50 -13c0 -18 -5 -35 -13 -50
c8 -15 13 -32 13 -50s-5 -35 -13 -50c8 -15 13 -32 13 -50s-5 -35 -13 -50c8 -15 13 -32 13 -50c0 -56 -44 -100 -100 -100s-100 44 -100 100c0 18 5 35 13 50c-8 15 -13 32 -13 50s5 35 13 50c-8 15 -13 32 -13 50s5 35 13 50c-8 15 -13 32 -13 50c0 56 44 100 100 100
c0 56 44 100 100 100c18 0 35 -5 50 -13c15 8 32 13 50 13s35 -5 50 -13c15 8 32 13 50 13c56 0 100 -44 100 -100c0 -18 -5 -35 -13 -50c8 -15 13 -32 13 -50z" />
    <glyph glyph-name="T" unicode="T" 
d="M300 550c56 0 100 -44 100 -100s-44 -100 -100 -100c0 -18 -5 -35 -13 -50c8 -15 13 -32 13 -50s-5 -35 -13 -50c8 -15 13 -32 13 -50s-5 -35 -13 -50c8 -15 13 -32 13 -50c0 -56 -44 -100 -100 -100s-100 44 -100 100c0 18 5 35 13 50c-8 15 -13 32 -13 50s5 35 13 50
c-8 15 -13 32 -13 50s5 35 13 50c-8 15 -13 32 -13 50c-56 0 -100 44 -100 100s44 100 100 100c18 0 35 -5 50 -13c15 8 32 13 50 13s35 -5 50 -13c15 8 32 13 50 13z" />
    <glyph glyph-name="Tbar" unicode="&#x166;" 
d="M300 350c56 0 100 -44 100 -100s-44 -100 -100 -100c0 -18 -5 -35 -13 -50c8 -15 13 -32 13 -50c0 -56 -44 -100 -100 -100s-100 44 -100 100c0 18 5 35 13 50c-8 15 -13 32 -13 50c-56 0 -100 44 -100 100s44 100 100 100c-56 0 -100 44 -100 100s44 100 100 100
c18 0 35 -5 50 -13c15 8 32 13 50 13s35 -5 50 -13c15 8 32 13 50 13c56 0 100 -44 100 -100s-44 -100 -100 -100z" />
    <glyph glyph-name="Tcaron" unicode="&#x164;" 
d="M300 650c0 -56 -44 -100 -100 -100s-100 44 -100 100c-56 0 -100 44 -100 100s44 100 100 100s100 -44 100 -100c0 56 44 100 100 100s100 -44 100 -100s-44 -100 -100 -100zM300 550c56 0 100 -44 100 -100s-44 -100 -100 -100c0 -18 -5 -35 -13 -50
c8 -15 13 -32 13 -50s-5 -35 -13 -50c8 -15 13 -32 13 -50s-5 -35 -13 -50c8 -15 13 -32 13 -50c0 -56 -44 -100 -100 -100s-100 44 -100 100c0 18 5 35 13 50c-8 15 -13 32 -13 50s5 35 13 50c-8 15 -13 32 -13 50s5 35 13 50c-8 15 -13 32 -13 50c-56 0 -100 44 -100 100
s44 100 100 100c18 0 35 -5 50 -13c15 8 32 13 50 13s35 -5 50 -13c15 8 32 13 50 13z" />
    <glyph glyph-name="uni0162" unicode="&#x162;" 
d="M300 50c56 0 100 -44 100 -100c0 -18 -5 -35 -13 -50c8 -15 13 -32 13 -50c0 -56 -44 -100 -100 -100c-18 0 -35 5 -50 13c-15 -8 -32 -13 -50 -13c-56 0 -100 44 -100 100s44 100 100 100c-56 0 -100 44 -100 100c0 18 5 35 13 50c-8 15 -13 32 -13 50s5 35 13 50
c-8 15 -13 32 -13 50s5 35 13 50c-8 15 -13 32 -13 50c-56 0 -100 44 -100 100s44 100 100 100c18 0 35 -5 50 -13c15 8 32 13 50 13s35 -5 50 -13c15 8 32 13 50 13c56 0 100 -44 100 -100s-44 -100 -100 -100c0 -18 -5 -35 -13 -50c8 -15 13 -32 13 -50s-5 -35 -13 -50
c8 -15 13 -32 13 -50s-5 -35 -13 -50c8 -15 13 -32 13 -50z" />
    <glyph glyph-name="uni021A" unicode="&#x21a;" 
d="M300 550c56 0 100 -44 100 -100s-44 -100 -100 -100c0 -18 -5 -35 -13 -50c8 -15 13 -32 13 -50s-5 -35 -13 -50c8 -15 13 -32 13 -50s-5 -35 -13 -50c8 -15 13 -32 13 -50c0 -56 -44 -100 -100 -100s-100 44 -100 100c0 18 5 35 13 50c-8 15 -13 32 -13 50s5 35 13 50
c-8 15 -13 32 -13 50s5 35 13 50c-8 15 -13 32 -13 50c-56 0 -100 44 -100 100s44 100 100 100c18 0 35 -5 50 -13c15 8 32 13 50 13s35 -5 50 -13c15 8 32 13 50 13zM100 -50c18 0 35 -5 50 -13c15 8 32 13 50 13c56 0 100 -44 100 -100c0 -18 -5 -35 -13 -50
c8 -15 13 -32 13 -50c0 -56 -44 -100 -100 -100c0 -56 -44 -100 -100 -100s-100 44 -100 100s44 100 100 100c-56 0 -100 44 -100 100s44 100 100 100z" />
    <glyph glyph-name="U" unicode="U" 
d="M387 400c8 -15 13 -32 13 -50s-5 -35 -13 -50c8 -15 13 -32 13 -50s-5 -35 -13 -50c8 -15 13 -32 13 -50s-5 -35 -13 -50c8 -15 13 -32 13 -50c0 -56 -44 -100 -100 -100c-18 0 -35 5 -50 13c-15 -8 -32 -13 -50 -13c-56 0 -100 44 -100 100c-56 0 -100 44 -100 100
c0 18 5 35 13 50c-8 15 -13 32 -13 50s5 35 13 50c-8 15 -13 32 -13 50s5 35 13 50c-8 15 -13 32 -13 50c0 56 44 100 100 100s100 -44 100 -100c0 -18 -5 -35 -13 -50c8 -15 13 -32 13 -50s-5 -35 -13 -50c8 -15 13 -32 13 -50s-5 -35 -13 -50c8 -15 13 -32 13 -50
c0 18 5 35 13 50c-8 15 -13 32 -13 50s5 35 13 50c-8 15 -13 32 -13 50s5 35 13 50c-8 15 -13 32 -13 50c0 56 44 100 100 100s100 -44 100 -100c0 -18 -5 -35 -13 -50z" />
    <glyph glyph-name="Uacute" unicode="&#xda;" 
d="M200 550c-56 0 -100 44 -100 100s44 100 100 100c0 56 44 100 100 100s100 -44 100 -100s-44 -100 -100 -100c0 -56 -44 -100 -100 -100zM300 550c56 0 100 -44 100 -100c0 -18 -5 -35 -13 -50c8 -15 13 -32 13 -50s-5 -35 -13 -50c8 -15 13 -32 13 -50s-5 -35 -13 -50
c8 -15 13 -32 13 -50s-5 -35 -13 -50c8 -15 13 -32 13 -50c0 -56 -44 -100 -100 -100c-18 0 -35 5 -50 13c-15 -8 -32 -13 -50 -13c-56 0 -100 44 -100 100c-56 0 -100 44 -100 100c0 18 5 35 13 50c-8 15 -13 32 -13 50s5 35 13 50c-8 15 -13 32 -13 50s5 35 13 50
c-8 15 -13 32 -13 50c0 56 44 100 100 100s100 -44 100 -100c0 -18 -5 -35 -13 -50c8 -15 13 -32 13 -50s-5 -35 -13 -50c8 -15 13 -32 13 -50s-5 -35 -13 -50c8 -15 13 -32 13 -50c0 18 5 35 13 50c-8 15 -13 32 -13 50s5 35 13 50c-8 15 -13 32 -13 50s5 35 13 50
c-8 15 -13 32 -13 50c0 56 44 100 100 100z" />
    <glyph glyph-name="Ucircumflex" unicode="&#xdb;" 
d="M200 650c0 -56 -44 -100 -100 -100s-100 44 -100 100s44 100 100 100c0 56 44 100 100 100s100 -44 100 -100c56 0 100 -44 100 -100s-44 -100 -100 -100s-100 44 -100 100zM300 550c56 0 100 -44 100 -100c0 -18 -5 -35 -13 -50c8 -15 13 -32 13 -50s-5 -35 -13 -50
c8 -15 13 -32 13 -50s-5 -35 -13 -50c8 -15 13 -32 13 -50s-5 -35 -13 -50c8 -15 13 -32 13 -50c0 -56 -44 -100 -100 -100c-18 0 -35 5 -50 13c-15 -8 -32 -13 -50 -13c-56 0 -100 44 -100 100c-56 0 -100 44 -100 100c0 18 5 35 13 50c-8 15 -13 32 -13 50s5 35 13 50
c-8 15 -13 32 -13 50s5 35 13 50c-8 15 -13 32 -13 50c0 56 44 100 100 100s100 -44 100 -100c0 -18 -5 -35 -13 -50c8 -15 13 -32 13 -50s-5 -35 -13 -50c8 -15 13 -32 13 -50s-5 -35 -13 -50c8 -15 13 -32 13 -50c0 18 5 35 13 50c-8 15 -13 32 -13 50s5 35 13 50
c-8 15 -13 32 -13 50s5 35 13 50c-8 15 -13 32 -13 50c0 56 44 100 100 100z" />
    <glyph glyph-name="Udieresis" unicode="&#xdc;" 
d="M200 650c0 -56 -44 -100 -100 -100s-100 44 -100 100s44 100 100 100s100 -44 100 -100zM300 550c-56 0 -100 44 -100 100s44 100 100 100s100 -44 100 -100s-44 -100 -100 -100zM300 550c56 0 100 -44 100 -100c0 -18 -5 -35 -13 -50c8 -15 13 -32 13 -50
s-5 -35 -13 -50c8 -15 13 -32 13 -50s-5 -35 -13 -50c8 -15 13 -32 13 -50s-5 -35 -13 -50c8 -15 13 -32 13 -50c0 -56 -44 -100 -100 -100c-18 0 -35 5 -50 13c-15 -8 -32 -13 -50 -13c-56 0 -100 44 -100 100c-56 0 -100 44 -100 100c0 18 5 35 13 50c-8 15 -13 32 -13 50
s5 35 13 50c-8 15 -13 32 -13 50s5 35 13 50c-8 15 -13 32 -13 50c0 56 44 100 100 100s100 -44 100 -100c0 -18 -5 -35 -13 -50c8 -15 13 -32 13 -50s-5 -35 -13 -50c8 -15 13 -32 13 -50s-5 -35 -13 -50c8 -15 13 -32 13 -50c0 18 5 35 13 50c-8 15 -13 32 -13 50
s5 35 13 50c-8 15 -13 32 -13 50s5 35 13 50c-8 15 -13 32 -13 50c0 56 44 100 100 100z" />
    <glyph glyph-name="Ugrave" unicode="&#xd9;" 
d="M100 650c-56 0 -100 44 -100 100s44 100 100 100s100 -44 100 -100c56 0 100 -44 100 -100s-44 -100 -100 -100s-100 44 -100 100zM387 400c8 -15 13 -32 13 -50s-5 -35 -13 -50c8 -15 13 -32 13 -50s-5 -35 -13 -50c8 -15 13 -32 13 -50s-5 -35 -13 -50
c8 -15 13 -32 13 -50c0 -56 -44 -100 -100 -100c-18 0 -35 5 -50 13c-15 -8 -32 -13 -50 -13c-56 0 -100 44 -100 100c-56 0 -100 44 -100 100c0 18 5 35 13 50c-8 15 -13 32 -13 50s5 35 13 50c-8 15 -13 32 -13 50s5 35 13 50c-8 15 -13 32 -13 50c0 56 44 100 100 100
s100 -44 100 -100c0 -18 -5 -35 -13 -50c8 -15 13 -32 13 -50s-5 -35 -13 -50c8 -15 13 -32 13 -50s-5 -35 -13 -50c8 -15 13 -32 13 -50c0 18 5 35 13 50c-8 15 -13 32 -13 50s5 35 13 50c-8 15 -13 32 -13 50s5 35 13 50c-8 15 -13 32 -13 50c0 56 44 100 100 100
s100 -44 100 -100c0 -18 -5 -35 -13 -50z" />
    <glyph glyph-name="Uhungarumlaut" unicode="&#x170;" 
d="M400 850c56 0 100 -44 100 -100s-44 -100 -100 -100c0 -56 -44 -100 -100 -100s-100 44 -100 100c0 -56 -44 -100 -100 -100s-100 44 -100 100s44 100 100 100c0 56 44 100 100 100s100 -44 100 -100c0 56 44 100 100 100zM200 450c0 56 44 100 100 100s100 -44 100 -100
c0 -18 -5 -35 -13 -50c8 -15 13 -32 13 -50s-5 -35 -13 -50c8 -15 13 -32 13 -50s-5 -35 -13 -50c8 -15 13 -32 13 -50s-5 -35 -13 -50c8 -15 13 -32 13 -50c0 -56 -44 -100 -100 -100c-18 0 -35 5 -50 13c-15 -8 -32 -13 -50 -13c-56 0 -100 44 -100 100
c-56 0 -100 44 -100 100c0 18 5 35 13 50c-8 15 -13 32 -13 50s5 35 13 50c-8 15 -13 32 -13 50s5 35 13 50c-8 15 -13 32 -13 50c0 56 44 100 100 100s100 -44 100 -100c0 -18 -5 -35 -13 -50c8 -15 13 -32 13 -50s-5 -35 -13 -50c8 -15 13 -32 13 -50s-5 -35 -13 -50
c8 -15 13 -32 13 -50c0 18 5 35 13 50c-8 15 -13 32 -13 50s5 35 13 50c-8 15 -13 32 -13 50s5 35 13 50c-8 15 -13 32 -13 50z" />
    <glyph glyph-name="Umacron" unicode="&#x16a;" 
d="M200 550c-18 0 -35 5 -50 13c-15 -8 -32 -13 -50 -13c-56 0 -100 44 -100 100s44 100 100 100c18 0 35 -5 50 -13c15 8 32 13 50 13s35 -5 50 -13c15 8 32 13 50 13c56 0 100 -44 100 -100s-44 -100 -100 -100c-18 0 -35 5 -50 13c-15 -8 -32 -13 -50 -13zM300 550
c56 0 100 -44 100 -100c0 -18 -5 -35 -13 -50c8 -15 13 -32 13 -50s-5 -35 -13 -50c8 -15 13 -32 13 -50s-5 -35 -13 -50c8 -15 13 -32 13 -50s-5 -35 -13 -50c8 -15 13 -32 13 -50c0 -56 -44 -100 -100 -100c-18 0 -35 5 -50 13c-15 -8 -32 -13 -50 -13
c-56 0 -100 44 -100 100c-56 0 -100 44 -100 100c0 18 5 35 13 50c-8 15 -13 32 -13 50s5 35 13 50c-8 15 -13 32 -13 50s5 35 13 50c-8 15 -13 32 -13 50c0 56 44 100 100 100s100 -44 100 -100c0 -18 -5 -35 -13 -50c8 -15 13 -32 13 -50s-5 -35 -13 -50
c8 -15 13 -32 13 -50s-5 -35 -13 -50c8 -15 13 -32 13 -50c0 18 5 35 13 50c-8 15 -13 32 -13 50s5 35 13 50c-8 15 -13 32 -13 50s5 35 13 50c-8 15 -13 32 -13 50c0 56 44 100 100 100z" />
    <glyph glyph-name="Uogonek" unicode="&#x172;" 
d="M387 400c8 -15 13 -32 13 -50s-5 -35 -13 -50c8 -15 13 -32 13 -50s-5 -35 -13 -50c8 -15 13 -32 13 -50s-5 -35 -13 -50c8 -15 13 -32 13 -50c0 -56 -44 -100 -100 -100c56 0 100 -44 100 -100s-44 -100 -100 -100c-18 0 -35 5 -50 13c-15 -8 -32 -13 -50 -13
c-56 0 -100 44 -100 100c0 18 5 35 13 50c-8 15 -13 32 -13 50s5 35 13 50c-8 15 -13 32 -13 50c-56 0 -100 44 -100 100c0 18 5 35 13 50c-8 15 -13 32 -13 50s5 35 13 50c-8 15 -13 32 -13 50s5 35 13 50c-8 15 -13 32 -13 50c0 56 44 100 100 100s100 -44 100 -100
c0 -18 -5 -35 -13 -50c8 -15 13 -32 13 -50s-5 -35 -13 -50c8 -15 13 -32 13 -50s-5 -35 -13 -50c8 -15 13 -32 13 -50c0 18 5 35 13 50c-8 15 -13 32 -13 50s5 35 13 50c-8 15 -13 32 -13 50s5 35 13 50c-8 15 -13 32 -13 50c0 56 44 100 100 100s100 -44 100 -100
c0 -18 -5 -35 -13 -50z" />
    <glyph glyph-name="Uring" unicode="&#x16e;" 
d="M300 550c56 0 100 -44 100 -100c0 -18 -5 -35 -13 -50c8 -15 13 -32 13 -50s-5 -35 -13 -50c8 -15 13 -32 13 -50s-5 -35 -13 -50c8 -15 13 -32 13 -50s-5 -35 -13 -50c8 -15 13 -32 13 -50c0 -56 -44 -100 -100 -100c-18 0 -35 5 -50 13c-15 -8 -32 -13 -50 -13
c-56 0 -100 44 -100 100c-56 0 -100 44 -100 100c0 18 5 35 13 50c-8 15 -13 32 -13 50s5 35 13 50c-8 15 -13 32 -13 50s5 35 13 50c-8 15 -13 32 -13 50c0 56 44 100 100 100c-56 0 -100 44 -100 100s44 100 100 100c0 56 44 100 100 100s100 -44 100 -100
c56 0 100 -44 100 -100s-44 -100 -100 -100zM187 200c8 -15 13 -32 13 -50c0 18 5 35 13 50c-8 15 -13 32 -13 50s5 35 13 50c-8 15 -13 32 -13 50s5 35 13 50c-8 15 -13 32 -13 50c0 -18 -5 -35 -13 -50c8 -15 13 -32 13 -50s-5 -35 -13 -50c8 -15 13 -32 13 -50
s-5 -35 -13 -50z" />
    <glyph glyph-name="V" unicode="V" 
d="M387 400c8 -15 13 -32 13 -50s-5 -35 -13 -50c8 -15 13 -32 13 -50s-5 -35 -13 -50c8 -15 13 -32 13 -50c0 -56 -44 -100 -100 -100c0 -56 -44 -100 -100 -100s-100 44 -100 100c-56 0 -100 44 -100 100c0 18 5 35 13 50c-8 15 -13 32 -13 50s5 35 13 50
c-8 15 -13 32 -13 50s5 35 13 50c-8 15 -13 32 -13 50c0 56 44 100 100 100s100 -44 100 -100c0 -18 -5 -35 -13 -50c8 -15 13 -32 13 -50s-5 -35 -13 -50c8 -15 13 -32 13 -50s-5 -35 -13 -50c8 -15 13 -32 13 -50c0 18 5 35 13 50c-8 15 -13 32 -13 50s5 35 13 50
c-8 15 -13 32 -13 50s5 35 13 50c-8 15 -13 32 -13 50c0 56 44 100 100 100s100 -44 100 -100c0 -18 -5 -35 -13 -50z" />
    <glyph glyph-name="W" unicode="W" horiz-adv-x="600" 
d="M587 400c8 -15 13 -32 13 -50s-5 -35 -13 -50c8 -15 13 -32 13 -50s-5 -35 -13 -50c8 -15 13 -32 13 -50c0 -56 -44 -100 -100 -100c0 -56 -44 -100 -100 -100s-100 44 -100 100c0 -56 -44 -100 -100 -100s-100 44 -100 100c-56 0 -100 44 -100 100c0 18 5 35 13 50
c-8 15 -13 32 -13 50s5 35 13 50c-8 15 -13 32 -13 50s5 35 13 50c-8 15 -13 32 -13 50c0 56 44 100 100 100s100 -44 100 -100c0 -18 -5 -35 -13 -50c8 -15 13 -32 13 -50s-5 -35 -13 -50c8 -15 13 -32 13 -50s-5 -35 -13 -50c8 -15 13 -32 13 -50c0 18 5 35 13 50
c-8 15 -13 32 -13 50s5 35 13 50c-8 15 -13 32 -13 50s5 35 13 50c-8 15 -13 32 -13 50c0 56 44 100 100 100s100 -44 100 -100c0 -18 -5 -35 -13 -50c8 -15 13 -32 13 -50s-5 -35 -13 -50c8 -15 13 -32 13 -50s-5 -35 -13 -50c8 -15 13 -32 13 -50c0 18 5 35 13 50
c-8 15 -13 32 -13 50s5 35 13 50c-8 15 -13 32 -13 50s5 35 13 50c-8 15 -13 32 -13 50c0 56 44 100 100 100s100 -44 100 -100c0 -18 -5 -35 -13 -50z" />
    <glyph glyph-name="Wacute" unicode="&#x1e82;" horiz-adv-x="600" 
d="M400 650c0 -56 -44 -100 -100 -100s-100 44 -100 100s44 100 100 100c0 56 44 100 100 100s100 -44 100 -100s-44 -100 -100 -100zM587 400c8 -15 13 -32 13 -50s-5 -35 -13 -50c8 -15 13 -32 13 -50s-5 -35 -13 -50c8 -15 13 -32 13 -50c0 -56 -44 -100 -100 -100
c0 -56 -44 -100 -100 -100s-100 44 -100 100c0 -56 -44 -100 -100 -100s-100 44 -100 100c-56 0 -100 44 -100 100c0 18 5 35 13 50c-8 15 -13 32 -13 50s5 35 13 50c-8 15 -13 32 -13 50s5 35 13 50c-8 15 -13 32 -13 50c0 56 44 100 100 100s100 -44 100 -100
c0 -18 -5 -35 -13 -50c8 -15 13 -32 13 -50s-5 -35 -13 -50c8 -15 13 -32 13 -50s-5 -35 -13 -50c8 -15 13 -32 13 -50c0 18 5 35 13 50c-8 15 -13 32 -13 50s5 35 13 50c-8 15 -13 32 -13 50s5 35 13 50c-8 15 -13 32 -13 50c0 56 44 100 100 100s100 -44 100 -100
c0 -18 -5 -35 -13 -50c8 -15 13 -32 13 -50s-5 -35 -13 -50c8 -15 13 -32 13 -50s-5 -35 -13 -50c8 -15 13 -32 13 -50c0 18 5 35 13 50c-8 15 -13 32 -13 50s5 35 13 50c-8 15 -13 32 -13 50s5 35 13 50c-8 15 -13 32 -13 50c0 56 44 100 100 100s100 -44 100 -100
c0 -18 -5 -35 -13 -50z" />
    <glyph glyph-name="Wcircumflex" unicode="&#x174;" horiz-adv-x="600" 
d="M200 550c-56 0 -100 44 -100 100s44 100 100 100c0 56 44 100 100 100s100 -44 100 -100c56 0 100 -44 100 -100s-44 -100 -100 -100s-100 44 -100 100c0 -56 -44 -100 -100 -100zM587 400c8 -15 13 -32 13 -50s-5 -35 -13 -50c8 -15 13 -32 13 -50s-5 -35 -13 -50
c8 -15 13 -32 13 -50c0 -56 -44 -100 -100 -100c0 -56 -44 -100 -100 -100s-100 44 -100 100c0 -56 -44 -100 -100 -100s-100 44 -100 100c-56 0 -100 44 -100 100c0 18 5 35 13 50c-8 15 -13 32 -13 50s5 35 13 50c-8 15 -13 32 -13 50s5 35 13 50c-8 15 -13 32 -13 50
c0 56 44 100 100 100s100 -44 100 -100c0 -18 -5 -35 -13 -50c8 -15 13 -32 13 -50s-5 -35 -13 -50c8 -15 13 -32 13 -50s-5 -35 -13 -50c8 -15 13 -32 13 -50c0 18 5 35 13 50c-8 15 -13 32 -13 50s5 35 13 50c-8 15 -13 32 -13 50s5 35 13 50c-8 15 -13 32 -13 50
c0 56 44 100 100 100s100 -44 100 -100c0 -18 -5 -35 -13 -50c8 -15 13 -32 13 -50s-5 -35 -13 -50c8 -15 13 -32 13 -50s-5 -35 -13 -50c8 -15 13 -32 13 -50c0 18 5 35 13 50c-8 15 -13 32 -13 50s5 35 13 50c-8 15 -13 32 -13 50s5 35 13 50c-8 15 -13 32 -13 50
c0 56 44 100 100 100s100 -44 100 -100c0 -18 -5 -35 -13 -50z" />
    <glyph glyph-name="Wdieresis" unicode="&#x1e84;" horiz-adv-x="600" 
d="M200 550c-56 0 -100 44 -100 100s44 100 100 100s100 -44 100 -100s-44 -100 -100 -100zM400 550c-56 0 -100 44 -100 100s44 100 100 100s100 -44 100 -100s-44 -100 -100 -100zM587 400c8 -15 13 -32 13 -50s-5 -35 -13 -50c8 -15 13 -32 13 -50s-5 -35 -13 -50
c8 -15 13 -32 13 -50c0 -56 -44 -100 -100 -100c0 -56 -44 -100 -100 -100s-100 44 -100 100c0 -56 -44 -100 -100 -100s-100 44 -100 100c-56 0 -100 44 -100 100c0 18 5 35 13 50c-8 15 -13 32 -13 50s5 35 13 50c-8 15 -13 32 -13 50s5 35 13 50c-8 15 -13 32 -13 50
c0 56 44 100 100 100s100 -44 100 -100c0 -18 -5 -35 -13 -50c8 -15 13 -32 13 -50s-5 -35 -13 -50c8 -15 13 -32 13 -50s-5 -35 -13 -50c8 -15 13 -32 13 -50c0 18 5 35 13 50c-8 15 -13 32 -13 50s5 35 13 50c-8 15 -13 32 -13 50s5 35 13 50c-8 15 -13 32 -13 50
c0 56 44 100 100 100s100 -44 100 -100c0 -18 -5 -35 -13 -50c8 -15 13 -32 13 -50s-5 -35 -13 -50c8 -15 13 -32 13 -50s-5 -35 -13 -50c8 -15 13 -32 13 -50c0 18 5 35 13 50c-8 15 -13 32 -13 50s5 35 13 50c-8 15 -13 32 -13 50s5 35 13 50c-8 15 -13 32 -13 50
c0 56 44 100 100 100s100 -44 100 -100c0 -18 -5 -35 -13 -50z" />
    <glyph glyph-name="Wgrave" unicode="&#x1e80;" horiz-adv-x="600" 
d="M400 650c0 -56 -44 -100 -100 -100s-100 44 -100 100c-56 0 -100 44 -100 100s44 100 100 100s100 -44 100 -100c56 0 100 -44 100 -100zM587 400c8 -15 13 -32 13 -50s-5 -35 -13 -50c8 -15 13 -32 13 -50s-5 -35 -13 -50c8 -15 13 -32 13 -50c0 -56 -44 -100 -100 -100
c0 -56 -44 -100 -100 -100s-100 44 -100 100c0 -56 -44 -100 -100 -100s-100 44 -100 100c-56 0 -100 44 -100 100c0 18 5 35 13 50c-8 15 -13 32 -13 50s5 35 13 50c-8 15 -13 32 -13 50s5 35 13 50c-8 15 -13 32 -13 50c0 56 44 100 100 100s100 -44 100 -100
c0 -18 -5 -35 -13 -50c8 -15 13 -32 13 -50s-5 -35 -13 -50c8 -15 13 -32 13 -50s-5 -35 -13 -50c8 -15 13 -32 13 -50c0 18 5 35 13 50c-8 15 -13 32 -13 50s5 35 13 50c-8 15 -13 32 -13 50s5 35 13 50c-8 15 -13 32 -13 50c0 56 44 100 100 100s100 -44 100 -100
c0 -18 -5 -35 -13 -50c8 -15 13 -32 13 -50s-5 -35 -13 -50c8 -15 13 -32 13 -50s-5 -35 -13 -50c8 -15 13 -32 13 -50c0 18 5 35 13 50c-8 15 -13 32 -13 50s5 35 13 50c-8 15 -13 32 -13 50s5 35 13 50c-8 15 -13 32 -13 50c0 56 44 100 100 100s100 -44 100 -100
c0 -18 -5 -35 -13 -50z" />
    <glyph glyph-name="X" unicode="X" 
d="M400 350c0 -56 -44 -100 -100 -100c56 0 100 -44 100 -100c0 -18 -5 -35 -13 -50c8 -15 13 -32 13 -50c0 -56 -44 -100 -100 -100s-100 44 -100 100c0 18 5 35 13 50c-8 15 -13 32 -13 50c0 -18 -5 -35 -13 -50c8 -15 13 -32 13 -50c0 -56 -44 -100 -100 -100
s-100 44 -100 100c0 18 5 35 13 50c-8 15 -13 32 -13 50c0 56 44 100 100 100c-56 0 -100 44 -100 100c0 18 5 35 13 50c-8 15 -13 32 -13 50c0 56 44 100 100 100s100 -44 100 -100c0 -18 -5 -35 -13 -50c8 -15 13 -32 13 -50c0 18 5 35 13 50c-8 15 -13 32 -13 50
c0 56 44 100 100 100s100 -44 100 -100c0 -18 -5 -35 -13 -50c8 -15 13 -32 13 -50z" />
    <glyph glyph-name="Y" unicode="Y" 
d="M400 450c0 -18 -5 -35 -13 -50c8 -15 13 -32 13 -50c0 -56 -44 -100 -100 -100c0 -18 -5 -35 -13 -50c8 -15 13 -32 13 -50s-5 -35 -13 -50c8 -15 13 -32 13 -50c0 -56 -44 -100 -100 -100s-100 44 -100 100c0 18 5 35 13 50c-8 15 -13 32 -13 50s5 35 13 50
c-8 15 -13 32 -13 50c-56 0 -100 44 -100 100c0 18 5 35 13 50c-8 15 -13 32 -13 50c0 56 44 100 100 100s100 -44 100 -100c0 -18 -5 -35 -13 -50c8 -15 13 -32 13 -50c0 18 5 35 13 50c-8 15 -13 32 -13 50c0 56 44 100 100 100s100 -44 100 -100z" />
    <glyph glyph-name="Yacute" unicode="&#xdd;" 
d="M200 550c-56 0 -100 44 -100 100s44 100 100 100c0 56 44 100 100 100s100 -44 100 -100s-44 -100 -100 -100c0 -56 -44 -100 -100 -100zM300 550c56 0 100 -44 100 -100c0 -18 -5 -35 -13 -50c8 -15 13 -32 13 -50c0 -56 -44 -100 -100 -100c0 -18 -5 -35 -13 -50
c8 -15 13 -32 13 -50s-5 -35 -13 -50c8 -15 13 -32 13 -50c0 -56 -44 -100 -100 -100s-100 44 -100 100c0 18 5 35 13 50c-8 15 -13 32 -13 50s5 35 13 50c-8 15 -13 32 -13 50c-56 0 -100 44 -100 100c0 18 5 35 13 50c-8 15 -13 32 -13 50c0 56 44 100 100 100
s100 -44 100 -100c0 -18 -5 -35 -13 -50c8 -15 13 -32 13 -50c0 18 5 35 13 50c-8 15 -13 32 -13 50c0 56 44 100 100 100z" />
    <glyph glyph-name="Ycircumflex" unicode="&#x176;" 
d="M200 650c0 -56 -44 -100 -100 -100s-100 44 -100 100s44 100 100 100c0 56 44 100 100 100s100 -44 100 -100c56 0 100 -44 100 -100s-44 -100 -100 -100s-100 44 -100 100zM300 550c56 0 100 -44 100 -100c0 -18 -5 -35 -13 -50c8 -15 13 -32 13 -50
c0 -56 -44 -100 -100 -100c0 -18 -5 -35 -13 -50c8 -15 13 -32 13 -50s-5 -35 -13 -50c8 -15 13 -32 13 -50c0 -56 -44 -100 -100 -100s-100 44 -100 100c0 18 5 35 13 50c-8 15 -13 32 -13 50s5 35 13 50c-8 15 -13 32 -13 50c-56 0 -100 44 -100 100c0 18 5 35 13 50
c-8 15 -13 32 -13 50c0 56 44 100 100 100s100 -44 100 -100c0 -18 -5 -35 -13 -50c8 -15 13 -32 13 -50c0 18 5 35 13 50c-8 15 -13 32 -13 50c0 56 44 100 100 100z" />
    <glyph glyph-name="Ydieresis" unicode="&#x178;" 
d="M200 650c0 -56 -44 -100 -100 -100s-100 44 -100 100s44 100 100 100s100 -44 100 -100zM300 550c-56 0 -100 44 -100 100s44 100 100 100s100 -44 100 -100s-44 -100 -100 -100zM300 550c56 0 100 -44 100 -100c0 -18 -5 -35 -13 -50c8 -15 13 -32 13 -50
c0 -56 -44 -100 -100 -100c0 -18 -5 -35 -13 -50c8 -15 13 -32 13 -50s-5 -35 -13 -50c8 -15 13 -32 13 -50c0 -56 -44 -100 -100 -100s-100 44 -100 100c0 18 5 35 13 50c-8 15 -13 32 -13 50s5 35 13 50c-8 15 -13 32 -13 50c-56 0 -100 44 -100 100c0 18 5 35 13 50
c-8 15 -13 32 -13 50c0 56 44 100 100 100s100 -44 100 -100c0 -18 -5 -35 -13 -50c8 -15 13 -32 13 -50c0 18 5 35 13 50c-8 15 -13 32 -13 50c0 56 44 100 100 100z" />
    <glyph glyph-name="Ygrave" unicode="&#x1ef2;" 
d="M100 650c-56 0 -100 44 -100 100s44 100 100 100s100 -44 100 -100c56 0 100 -44 100 -100s-44 -100 -100 -100s-100 44 -100 100zM400 450c0 -18 -5 -35 -13 -50c8 -15 13 -32 13 -50c0 -56 -44 -100 -100 -100c0 -18 -5 -35 -13 -50c8 -15 13 -32 13 -50
s-5 -35 -13 -50c8 -15 13 -32 13 -50c0 -56 -44 -100 -100 -100s-100 44 -100 100c0 18 5 35 13 50c-8 15 -13 32 -13 50s5 35 13 50c-8 15 -13 32 -13 50c-56 0 -100 44 -100 100c0 18 5 35 13 50c-8 15 -13 32 -13 50c0 56 44 100 100 100s100 -44 100 -100
c0 -18 -5 -35 -13 -50c8 -15 13 -32 13 -50c0 18 5 35 13 50c-8 15 -13 32 -13 50c0 56 44 100 100 100s100 -44 100 -100z" />
    <glyph glyph-name="Z" unicode="Z" 
d="M300 250c0 -56 -44 -100 -100 -100c18 0 35 -5 50 -13c15 8 32 13 50 13c56 0 100 -44 100 -100s-44 -100 -100 -100c-18 0 -35 5 -50 13c-15 -8 -32 -13 -50 -13s-35 5 -50 13c-15 -8 -32 -13 -50 -13c-56 0 -100 44 -100 100c0 18 5 35 13 50c-8 15 -13 32 -13 50
c0 56 44 100 100 100c0 56 44 100 100 100c-18 0 -35 5 -50 13c-15 -8 -32 -13 -50 -13c-56 0 -100 44 -100 100s44 100 100 100c18 0 35 -5 50 -13c15 8 32 13 50 13s35 -5 50 -13c15 8 32 13 50 13c56 0 100 -44 100 -100c0 -18 -5 -35 -13 -50c8 -15 13 -32 13 -50
c0 -56 -44 -100 -100 -100z" />
    <glyph glyph-name="Zacute" unicode="&#x179;" 
d="M300 650c0 -56 -44 -100 -100 -100s-100 44 -100 100s44 100 100 100c0 56 44 100 100 100s100 -44 100 -100s-44 -100 -100 -100zM300 550c56 0 100 -44 100 -100c0 -18 -5 -35 -13 -50c8 -15 13 -32 13 -50c0 -56 -44 -100 -100 -100c0 -56 -44 -100 -100 -100
c18 0 35 -5 50 -13c15 8 32 13 50 13c56 0 100 -44 100 -100s-44 -100 -100 -100c-18 0 -35 5 -50 13c-15 -8 -32 -13 -50 -13s-35 5 -50 13c-15 -8 -32 -13 -50 -13c-56 0 -100 44 -100 100c0 18 5 35 13 50c-8 15 -13 32 -13 50c0 56 44 100 100 100c0 56 44 100 100 100
c-18 0 -35 5 -50 13c-15 -8 -32 -13 -50 -13c-56 0 -100 44 -100 100s44 100 100 100c18 0 35 -5 50 -13c15 8 32 13 50 13s35 -5 50 -13c15 8 32 13 50 13z" />
    <glyph glyph-name="Zcaron" unicode="&#x17d;" 
d="M300 650c0 -56 -44 -100 -100 -100s-100 44 -100 100c-56 0 -100 44 -100 100s44 100 100 100s100 -44 100 -100c0 56 44 100 100 100s100 -44 100 -100s-44 -100 -100 -100zM300 550c56 0 100 -44 100 -100c0 -18 -5 -35 -13 -50c8 -15 13 -32 13 -50
c0 -56 -44 -100 -100 -100c0 -56 -44 -100 -100 -100c18 0 35 -5 50 -13c15 8 32 13 50 13c56 0 100 -44 100 -100s-44 -100 -100 -100c-18 0 -35 5 -50 13c-15 -8 -32 -13 -50 -13s-35 5 -50 13c-15 -8 -32 -13 -50 -13c-56 0 -100 44 -100 100c0 18 5 35 13 50
c-8 15 -13 32 -13 50c0 56 44 100 100 100c0 56 44 100 100 100c-18 0 -35 5 -50 13c-15 -8 -32 -13 -50 -13c-56 0 -100 44 -100 100s44 100 100 100c18 0 35 -5 50 -13c15 8 32 13 50 13s35 -5 50 -13c15 8 32 13 50 13z" />
    <glyph glyph-name="Zdotaccent" unicode="&#x17b;" 
d="M300 650c0 -56 -44 -100 -100 -100s-100 44 -100 100s44 100 100 100s100 -44 100 -100zM300 250c0 -56 -44 -100 -100 -100c18 0 35 -5 50 -13c15 8 32 13 50 13c56 0 100 -44 100 -100s-44 -100 -100 -100c-18 0 -35 5 -50 13c-15 -8 -32 -13 -50 -13s-35 5 -50 13
c-15 -8 -32 -13 -50 -13c-56 0 -100 44 -100 100c0 18 5 35 13 50c-8 15 -13 32 -13 50c0 56 44 100 100 100c0 56 44 100 100 100c-18 0 -35 5 -50 13c-15 -8 -32 -13 -50 -13c-56 0 -100 44 -100 100s44 100 100 100c18 0 35 -5 50 -13c15 8 32 13 50 13s35 -5 50 -13
c15 8 32 13 50 13c56 0 100 -44 100 -100c0 -18 -5 -35 -13 -50c8 -15 13 -32 13 -50c0 -56 -44 -100 -100 -100z" />
    <glyph glyph-name="AE.ss01" horiz-adv-x="800" 
d="M800 250c0 -56 -44 -100 -100 -100c-18 0 -35 5 -50 13c-15 -8 -32 -13 -50 -13s-35 5 -50 13c-15 -8 -32 -13 -50 -13c18 0 35 -5 50 -13c15 8 32 13 50 13s35 -5 50 -13c15 8 32 13 50 13c56 0 100 -44 100 -100s-44 -100 -100 -100c-18 0 -35 5 -50 13
c-15 -8 -32 -13 -50 -13s-35 5 -50 13c-15 -8 -32 -13 -50 -13s-35 5 -50 13c-15 -8 -32 -13 -50 -13c-56 0 -100 44 -100 100c0 18 5 35 13 50c-8 15 -13 32 -13 50c-18 0 -35 5 -50 13c-15 -8 -32 -13 -50 -13c0 -18 -5 -35 -13 -50c8 -15 13 -32 13 -50
c0 -56 -44 -100 -100 -100s-100 44 -100 100c0 18 5 35 13 50c-8 15 -13 32 -13 50s5 35 13 50c-8 15 -13 32 -13 50s5 35 13 50c-8 15 -13 32 -13 50c0 56 44 100 100 100c0 56 44 100 100 100c18 0 35 -5 50 -13c15 8 32 13 50 13s35 -5 50 -13c15 8 32 13 50 13
s35 -5 50 -13c15 8 32 13 50 13s35 -5 50 -13c15 8 32 13 50 13s35 -5 50 -13c15 8 32 13 50 13c56 0 100 -44 100 -100s-44 -100 -100 -100c-18 0 -35 5 -50 13c-15 -8 -32 -13 -50 -13s-35 5 -50 13c-15 -8 -32 -13 -50 -13c18 0 35 -5 50 -13c15 8 32 13 50 13
s35 -5 50 -13c15 8 32 13 50 13c56 0 100 -44 100 -100zM250 363c-15 -8 -32 -13 -50 -13c18 0 35 -5 50 -13c15 8 32 13 50 13c-18 0 -35 5 -50 13z" />
    <glyph glyph-name="E.ss01" 
d="M400 250c0 -56 -44 -100 -100 -100c-18 0 -35 5 -50 13c-15 -8 -32 -13 -50 -13c18 0 35 -5 50 -13c15 8 32 13 50 13c56 0 100 -44 100 -100s-44 -100 -100 -100c-18 0 -35 5 -50 13c-15 -8 -32 -13 -50 -13s-35 5 -50 13c-15 -8 -32 -13 -50 -13
c-56 0 -100 44 -100 100c0 18 5 35 13 50c-8 15 -13 32 -13 50s5 35 13 50c-8 15 -13 32 -13 50s5 35 13 50c-8 15 -13 32 -13 50s5 35 13 50c-8 15 -13 32 -13 50c0 56 44 100 100 100c18 0 35 -5 50 -13c15 8 32 13 50 13s35 -5 50 -13c15 8 32 13 50 13
c56 0 100 -44 100 -100s-44 -100 -100 -100c-18 0 -35 5 -50 13c-15 -8 -32 -13 -50 -13c18 0 35 -5 50 -13c15 8 32 13 50 13c56 0 100 -44 100 -100z" />
    <glyph glyph-name="Eacute.ss01" 
d="M300 650c0 -56 -44 -100 -100 -100s-100 44 -100 100s44 100 100 100c0 56 44 100 100 100s100 -44 100 -100s-44 -100 -100 -100zM400 450c0 -56 -44 -100 -100 -100c-18 0 -35 5 -50 13c-15 -8 -32 -13 -50 -13c18 0 35 -5 50 -13c15 8 32 13 50 13
c56 0 100 -44 100 -100s-44 -100 -100 -100c-18 0 -35 5 -50 13c-15 -8 -32 -13 -50 -13c18 0 35 -5 50 -13c15 8 32 13 50 13c56 0 100 -44 100 -100s-44 -100 -100 -100c-18 0 -35 5 -50 13c-15 -8 -32 -13 -50 -13s-35 5 -50 13c-15 -8 -32 -13 -50 -13
c-56 0 -100 44 -100 100c0 18 5 35 13 50c-8 15 -13 32 -13 50s5 35 13 50c-8 15 -13 32 -13 50s5 35 13 50c-8 15 -13 32 -13 50s5 35 13 50c-8 15 -13 32 -13 50c0 56 44 100 100 100c18 0 35 -5 50 -13c15 8 32 13 50 13s35 -5 50 -13c15 8 32 13 50 13
c56 0 100 -44 100 -100z" />
    <glyph glyph-name="Ecaron.ss01" 
d="M300 650c0 -56 -44 -100 -100 -100s-100 44 -100 100c-56 0 -100 44 -100 100s44 100 100 100s100 -44 100 -100c0 56 44 100 100 100s100 -44 100 -100s-44 -100 -100 -100zM400 450c0 -56 -44 -100 -100 -100c-18 0 -35 5 -50 13c-15 -8 -32 -13 -50 -13
c18 0 35 -5 50 -13c15 8 32 13 50 13c56 0 100 -44 100 -100s-44 -100 -100 -100c-18 0 -35 5 -50 13c-15 -8 -32 -13 -50 -13c18 0 35 -5 50 -13c15 8 32 13 50 13c56 0 100 -44 100 -100s-44 -100 -100 -100c-18 0 -35 5 -50 13c-15 -8 -32 -13 -50 -13s-35 5 -50 13
c-15 -8 -32 -13 -50 -13c-56 0 -100 44 -100 100c0 18 5 35 13 50c-8 15 -13 32 -13 50s5 35 13 50c-8 15 -13 32 -13 50s5 35 13 50c-8 15 -13 32 -13 50s5 35 13 50c-8 15 -13 32 -13 50c0 56 44 100 100 100c18 0 35 -5 50 -13c15 8 32 13 50 13s35 -5 50 -13
c15 8 32 13 50 13c56 0 100 -44 100 -100z" />
    <glyph glyph-name="Ecircumflex.ss01" 
d="M200 650c0 -56 -44 -100 -100 -100s-100 44 -100 100s44 100 100 100c0 56 44 100 100 100s100 -44 100 -100c56 0 100 -44 100 -100s-44 -100 -100 -100s-100 44 -100 100zM400 450c0 -56 -44 -100 -100 -100c-18 0 -35 5 -50 13c-15 -8 -32 -13 -50 -13
c18 0 35 -5 50 -13c15 8 32 13 50 13c56 0 100 -44 100 -100s-44 -100 -100 -100c-18 0 -35 5 -50 13c-15 -8 -32 -13 -50 -13c18 0 35 -5 50 -13c15 8 32 13 50 13c56 0 100 -44 100 -100s-44 -100 -100 -100c-18 0 -35 5 -50 13c-15 -8 -32 -13 -50 -13s-35 5 -50 13
c-15 -8 -32 -13 -50 -13c-56 0 -100 44 -100 100c0 18 5 35 13 50c-8 15 -13 32 -13 50s5 35 13 50c-8 15 -13 32 -13 50s5 35 13 50c-8 15 -13 32 -13 50s5 35 13 50c-8 15 -13 32 -13 50c0 56 44 100 100 100c18 0 35 -5 50 -13c15 8 32 13 50 13s35 -5 50 -13
c15 8 32 13 50 13c56 0 100 -44 100 -100z" />
    <glyph glyph-name="Edieresis.ss01" 
d="M200 650c0 -56 -44 -100 -100 -100s-100 44 -100 100s44 100 100 100s100 -44 100 -100zM300 550c-56 0 -100 44 -100 100s44 100 100 100s100 -44 100 -100s-44 -100 -100 -100zM400 450c0 -56 -44 -100 -100 -100c-18 0 -35 5 -50 13c-15 -8 -32 -13 -50 -13
c18 0 35 -5 50 -13c15 8 32 13 50 13c56 0 100 -44 100 -100s-44 -100 -100 -100c-18 0 -35 5 -50 13c-15 -8 -32 -13 -50 -13c18 0 35 -5 50 -13c15 8 32 13 50 13c56 0 100 -44 100 -100s-44 -100 -100 -100c-18 0 -35 5 -50 13c-15 -8 -32 -13 -50 -13s-35 5 -50 13
c-15 -8 -32 -13 -50 -13c-56 0 -100 44 -100 100c0 18 5 35 13 50c-8 15 -13 32 -13 50s5 35 13 50c-8 15 -13 32 -13 50s5 35 13 50c-8 15 -13 32 -13 50s5 35 13 50c-8 15 -13 32 -13 50c0 56 44 100 100 100c18 0 35 -5 50 -13c15 8 32 13 50 13s35 -5 50 -13
c15 8 32 13 50 13c56 0 100 -44 100 -100z" />
    <glyph glyph-name="Edotaccent.ss01" 
d="M300 650c0 -56 -44 -100 -100 -100s-100 44 -100 100s44 100 100 100s100 -44 100 -100zM400 250c0 -56 -44 -100 -100 -100c-18 0 -35 5 -50 13c-15 -8 -32 -13 -50 -13c18 0 35 -5 50 -13c15 8 32 13 50 13c56 0 100 -44 100 -100s-44 -100 -100 -100
c-18 0 -35 5 -50 13c-15 -8 -32 -13 -50 -13s-35 5 -50 13c-15 -8 -32 -13 -50 -13c-56 0 -100 44 -100 100c0 18 5 35 13 50c-8 15 -13 32 -13 50s5 35 13 50c-8 15 -13 32 -13 50s5 35 13 50c-8 15 -13 32 -13 50s5 35 13 50c-8 15 -13 32 -13 50c0 56 44 100 100 100
c18 0 35 -5 50 -13c15 8 32 13 50 13s35 -5 50 -13c15 8 32 13 50 13c56 0 100 -44 100 -100s-44 -100 -100 -100c-18 0 -35 5 -50 13c-15 -8 -32 -13 -50 -13c18 0 35 -5 50 -13c15 8 32 13 50 13c56 0 100 -44 100 -100z" />
    <glyph glyph-name="Egrave.ss01" 
d="M300 650c0 -56 -44 -100 -100 -100s-100 44 -100 100c-56 0 -100 44 -100 100s44 100 100 100s100 -44 100 -100c56 0 100 -44 100 -100zM400 250c0 -56 -44 -100 -100 -100c-18 0 -35 5 -50 13c-15 -8 -32 -13 -50 -13c18 0 35 -5 50 -13c15 8 32 13 50 13
c56 0 100 -44 100 -100s-44 -100 -100 -100c-18 0 -35 5 -50 13c-15 -8 -32 -13 -50 -13s-35 5 -50 13c-15 -8 -32 -13 -50 -13c-56 0 -100 44 -100 100c0 18 5 35 13 50c-8 15 -13 32 -13 50s5 35 13 50c-8 15 -13 32 -13 50s5 35 13 50c-8 15 -13 32 -13 50s5 35 13 50
c-8 15 -13 32 -13 50c0 56 44 100 100 100c18 0 35 -5 50 -13c15 8 32 13 50 13s35 -5 50 -13c15 8 32 13 50 13c56 0 100 -44 100 -100s-44 -100 -100 -100c-18 0 -35 5 -50 13c-15 -8 -32 -13 -50 -13c18 0 35 -5 50 -13c15 8 32 13 50 13c56 0 100 -44 100 -100z" />
    <glyph glyph-name="Emacron.ss01" 
d="M200 550c-18 0 -35 5 -50 13c-15 -8 -32 -13 -50 -13c-56 0 -100 44 -100 100s44 100 100 100c18 0 35 -5 50 -13c15 8 32 13 50 13s35 -5 50 -13c15 8 32 13 50 13c56 0 100 -44 100 -100s-44 -100 -100 -100c-18 0 -35 5 -50 13c-15 -8 -32 -13 -50 -13zM400 450
c0 -56 -44 -100 -100 -100c-18 0 -35 5 -50 13c-15 -8 -32 -13 -50 -13c18 0 35 -5 50 -13c15 8 32 13 50 13c56 0 100 -44 100 -100s-44 -100 -100 -100c-18 0 -35 5 -50 13c-15 -8 -32 -13 -50 -13c18 0 35 -5 50 -13c15 8 32 13 50 13c56 0 100 -44 100 -100
s-44 -100 -100 -100c-18 0 -35 5 -50 13c-15 -8 -32 -13 -50 -13s-35 5 -50 13c-15 -8 -32 -13 -50 -13c-56 0 -100 44 -100 100c0 18 5 35 13 50c-8 15 -13 32 -13 50s5 35 13 50c-8 15 -13 32 -13 50s5 35 13 50c-8 15 -13 32 -13 50s5 35 13 50c-8 15 -13 32 -13 50
c0 56 44 100 100 100c18 0 35 -5 50 -13c15 8 32 13 50 13s35 -5 50 -13c15 8 32 13 50 13c56 0 100 -44 100 -100z" />
    <glyph glyph-name="Eogonek.ss01" 
d="M400 250c0 -56 -44 -100 -100 -100c-18 0 -35 5 -50 13c-15 -8 -32 -13 -50 -13c18 0 35 -5 50 -13c15 8 32 13 50 13c56 0 100 -44 100 -100s-44 -100 -100 -100c56 0 100 -44 100 -100s-44 -100 -100 -100c-18 0 -35 5 -50 13c-15 -8 -32 -13 -50 -13
c-56 0 -100 44 -100 100c0 18 5 35 13 50c-8 15 -13 32 -13 50c-56 0 -100 44 -100 100c0 18 5 35 13 50c-8 15 -13 32 -13 50s5 35 13 50c-8 15 -13 32 -13 50s5 35 13 50c-8 15 -13 32 -13 50s5 35 13 50c-8 15 -13 32 -13 50c0 56 44 100 100 100c18 0 35 -5 50 -13
c15 8 32 13 50 13s35 -5 50 -13c15 8 32 13 50 13c56 0 100 -44 100 -100s-44 -100 -100 -100c-18 0 -35 5 -50 13c-15 -8 -32 -13 -50 -13c18 0 35 -5 50 -13c15 8 32 13 50 13c56 0 100 -44 100 -100z" />
    <glyph glyph-name="F.ss01" 
d="M300 350c56 0 100 -44 100 -100s-44 -100 -100 -100c-18 0 -35 5 -50 13c-15 -8 -32 -13 -50 -13c0 -18 -5 -35 -13 -50c8 -15 13 -32 13 -50c0 -56 -44 -100 -100 -100s-100 44 -100 100c0 18 5 35 13 50c-8 15 -13 32 -13 50s5 35 13 50c-8 15 -13 32 -13 50
s5 35 13 50c-8 15 -13 32 -13 50s5 35 13 50c-8 15 -13 32 -13 50c0 56 44 100 100 100c18 0 35 -5 50 -13c15 8 32 13 50 13s35 -5 50 -13c15 8 32 13 50 13c56 0 100 -44 100 -100s-44 -100 -100 -100c-18 0 -35 5 -50 13c-15 -8 -32 -13 -50 -13c18 0 35 -5 50 -13
c15 8 32 13 50 13z" />
    <glyph glyph-name="Hbar.ss01" horiz-adv-x="800" 
d="M700 450c56 0 100 -44 100 -100s-44 -100 -100 -100c0 -18 -5 -35 -13 -50c8 -15 13 -32 13 -50s-5 -35 -13 -50c8 -15 13 -32 13 -50c0 -56 -44 -100 -100 -100s-100 44 -100 100c-18 0 -35 5 -50 13c-15 -8 -32 -13 -50 -13s-35 5 -50 13c-15 -8 -32 -13 -50 -13
c0 -56 -44 -100 -100 -100s-100 44 -100 100c0 18 5 35 13 50c-8 15 -13 32 -13 50s5 35 13 50c-8 15 -13 32 -13 50c-56 0 -100 44 -100 100s44 100 100 100c0 56 44 100 100 100s100 -44 100 -100c18 0 35 -5 50 -13c15 8 32 13 50 13s35 -5 50 -13c15 8 32 13 50 13
c0 56 44 100 100 100s100 -44 100 -100zM400 250c18 0 35 -5 50 -13c15 8 32 13 50 13c-18 0 -35 5 -50 13c-15 -8 -32 -13 -50 -13s-35 5 -50 13c-15 -8 -32 -13 -50 -13c18 0 35 -5 50 -13c15 8 32 13 50 13z" />
    <glyph glyph-name="I.ss01" 
d="M300 150c56 0 100 -44 100 -100s-44 -100 -100 -100c-18 0 -35 5 -50 13c-15 -8 -32 -13 -50 -13s-35 5 -50 13c-15 -8 -32 -13 -50 -13c-56 0 -100 44 -100 100s44 100 100 100c0 18 5 35 13 50c-8 15 -13 32 -13 50s5 35 13 50c-8 15 -13 32 -13 50
c-56 0 -100 44 -100 100s44 100 100 100c18 0 35 -5 50 -13c15 8 32 13 50 13s35 -5 50 -13c15 8 32 13 50 13c56 0 100 -44 100 -100s-44 -100 -100 -100c0 -18 -5 -35 -13 -50c8 -15 13 -32 13 -50s-5 -35 -13 -50c8 -15 13 -32 13 -50z" />
    <glyph glyph-name="Iacute.ss01" 
d="M300 650c0 -56 -44 -100 -100 -100s-100 44 -100 100s44 100 100 100c0 56 44 100 100 100s100 -44 100 -100s-44 -100 -100 -100zM400 450c0 -56 -44 -100 -100 -100c0 -18 -5 -35 -13 -50c8 -15 13 -32 13 -50s-5 -35 -13 -50c8 -15 13 -32 13 -50
c56 0 100 -44 100 -100s-44 -100 -100 -100c-18 0 -35 5 -50 13c-15 -8 -32 -13 -50 -13s-35 5 -50 13c-15 -8 -32 -13 -50 -13c-56 0 -100 44 -100 100s44 100 100 100c0 18 5 35 13 50c-8 15 -13 32 -13 50s5 35 13 50c-8 15 -13 32 -13 50c-56 0 -100 44 -100 100
s44 100 100 100c18 0 35 -5 50 -13c15 8 32 13 50 13s35 -5 50 -13c15 8 32 13 50 13c56 0 100 -44 100 -100z" />
    <glyph glyph-name="Icircumflex.ss01" 
d="M200 650c0 -56 -44 -100 -100 -100s-100 44 -100 100s44 100 100 100c0 56 44 100 100 100s100 -44 100 -100c56 0 100 -44 100 -100s-44 -100 -100 -100s-100 44 -100 100zM400 450c0 -56 -44 -100 -100 -100c0 -18 -5 -35 -13 -50c8 -15 13 -32 13 -50s-5 -35 -13 -50
c8 -15 13 -32 13 -50c56 0 100 -44 100 -100s-44 -100 -100 -100c-18 0 -35 5 -50 13c-15 -8 -32 -13 -50 -13s-35 5 -50 13c-15 -8 -32 -13 -50 -13c-56 0 -100 44 -100 100s44 100 100 100c0 18 5 35 13 50c-8 15 -13 32 -13 50s5 35 13 50c-8 15 -13 32 -13 50
c-56 0 -100 44 -100 100s44 100 100 100c18 0 35 -5 50 -13c15 8 32 13 50 13s35 -5 50 -13c15 8 32 13 50 13c56 0 100 -44 100 -100z" />
    <glyph glyph-name="Idieresis.ss01" 
d="M200 650c0 -56 -44 -100 -100 -100s-100 44 -100 100s44 100 100 100s100 -44 100 -100zM300 550c-56 0 -100 44 -100 100s44 100 100 100s100 -44 100 -100s-44 -100 -100 -100zM400 450c0 -56 -44 -100 -100 -100c0 -18 -5 -35 -13 -50c8 -15 13 -32 13 -50
s-5 -35 -13 -50c8 -15 13 -32 13 -50c56 0 100 -44 100 -100s-44 -100 -100 -100c-18 0 -35 5 -50 13c-15 -8 -32 -13 -50 -13s-35 5 -50 13c-15 -8 -32 -13 -50 -13c-56 0 -100 44 -100 100s44 100 100 100c0 18 5 35 13 50c-8 15 -13 32 -13 50s5 35 13 50
c-8 15 -13 32 -13 50c-56 0 -100 44 -100 100s44 100 100 100c18 0 35 -5 50 -13c15 8 32 13 50 13s35 -5 50 -13c15 8 32 13 50 13c56 0 100 -44 100 -100z" />
    <glyph glyph-name="Idotaccent.ss01" 
d="M300 650c0 -56 -44 -100 -100 -100s-100 44 -100 100s44 100 100 100s100 -44 100 -100zM300 150c56 0 100 -44 100 -100s-44 -100 -100 -100c-18 0 -35 5 -50 13c-15 -8 -32 -13 -50 -13s-35 5 -50 13c-15 -8 -32 -13 -50 -13c-56 0 -100 44 -100 100s44 100 100 100
c0 18 5 35 13 50c-8 15 -13 32 -13 50s5 35 13 50c-8 15 -13 32 -13 50c-56 0 -100 44 -100 100s44 100 100 100c18 0 35 -5 50 -13c15 8 32 13 50 13s35 -5 50 -13c15 8 32 13 50 13c56 0 100 -44 100 -100s-44 -100 -100 -100c0 -18 -5 -35 -13 -50c8 -15 13 -32 13 -50
s-5 -35 -13 -50c8 -15 13 -32 13 -50z" />
    <glyph glyph-name="Igrave.ss01" 
d="M300 650c0 -56 -44 -100 -100 -100s-100 44 -100 100c-56 0 -100 44 -100 100s44 100 100 100s100 -44 100 -100c56 0 100 -44 100 -100zM300 150c56 0 100 -44 100 -100s-44 -100 -100 -100c-18 0 -35 5 -50 13c-15 -8 -32 -13 -50 -13s-35 5 -50 13
c-15 -8 -32 -13 -50 -13c-56 0 -100 44 -100 100s44 100 100 100c0 18 5 35 13 50c-8 15 -13 32 -13 50s5 35 13 50c-8 15 -13 32 -13 50c-56 0 -100 44 -100 100s44 100 100 100c18 0 35 -5 50 -13c15 8 32 13 50 13s35 -5 50 -13c15 8 32 13 50 13c56 0 100 -44 100 -100
s-44 -100 -100 -100c0 -18 -5 -35 -13 -50c8 -15 13 -32 13 -50s-5 -35 -13 -50c8 -15 13 -32 13 -50z" />
    <glyph glyph-name="Imacron.ss01" 
d="M200 550c-18 0 -35 5 -50 13c-15 -8 -32 -13 -50 -13c-56 0 -100 44 -100 100s44 100 100 100c18 0 35 -5 50 -13c15 8 32 13 50 13s35 -5 50 -13c15 8 32 13 50 13c56 0 100 -44 100 -100s-44 -100 -100 -100c-18 0 -35 5 -50 13c-15 -8 -32 -13 -50 -13zM400 450
c0 -56 -44 -100 -100 -100c0 -18 -5 -35 -13 -50c8 -15 13 -32 13 -50s-5 -35 -13 -50c8 -15 13 -32 13 -50c56 0 100 -44 100 -100s-44 -100 -100 -100c-18 0 -35 5 -50 13c-15 -8 -32 -13 -50 -13s-35 5 -50 13c-15 -8 -32 -13 -50 -13c-56 0 -100 44 -100 100
s44 100 100 100c0 18 5 35 13 50c-8 15 -13 32 -13 50s5 35 13 50c-8 15 -13 32 -13 50c-56 0 -100 44 -100 100s44 100 100 100c18 0 35 -5 50 -13c15 8 32 13 50 13s35 -5 50 -13c15 8 32 13 50 13c56 0 100 -44 100 -100z" />
    <glyph glyph-name="Iogonek.ss01" 
d="M300 150c56 0 100 -44 100 -100s-44 -100 -100 -100c-18 0 -35 5 -50 13c-15 -8 -32 -13 -50 -13c56 0 100 -44 100 -100s-44 -100 -100 -100c-18 0 -35 5 -50 13c-15 -8 -32 -13 -50 -13c-56 0 -100 44 -100 100c0 18 5 35 13 50c-8 15 -13 32 -13 50s5 35 13 50
c-8 15 -13 32 -13 50c0 56 44 100 100 100c0 18 5 35 13 50c-8 15 -13 32 -13 50s5 35 13 50c-8 15 -13 32 -13 50c-56 0 -100 44 -100 100s44 100 100 100c18 0 35 -5 50 -13c15 8 32 13 50 13s35 -5 50 -13c15 8 32 13 50 13c56 0 100 -44 100 -100s-44 -100 -100 -100
c0 -18 -5 -35 -13 -50c8 -15 13 -32 13 -50s-5 -35 -13 -50c8 -15 13 -32 13 -50z" />
    <glyph glyph-name="L.ss01" 
d="M300 150c56 0 100 -44 100 -100s-44 -100 -100 -100c-18 0 -35 5 -50 13c-15 -8 -32 -13 -50 -13s-35 5 -50 13c-15 -8 -32 -13 -50 -13c-56 0 -100 44 -100 100c0 18 5 35 13 50c-8 15 -13 32 -13 50s5 35 13 50c-8 15 -13 32 -13 50s5 35 13 50c-8 15 -13 32 -13 50
s5 35 13 50c-8 15 -13 32 -13 50c0 56 44 100 100 100s100 -44 100 -100c0 -18 -5 -35 -13 -50c8 -15 13 -32 13 -50s-5 -35 -13 -50c8 -15 13 -32 13 -50s-5 -35 -13 -50c8 -15 13 -32 13 -50c18 0 35 -5 50 -13c15 8 32 13 50 13z" />
    <glyph glyph-name="Lacute.ss01" 
d="M200 650c0 -56 -44 -100 -100 -100s-100 44 -100 100s44 100 100 100c0 56 44 100 100 100s100 -44 100 -100s-44 -100 -100 -100zM300 150c56 0 100 -44 100 -100s-44 -100 -100 -100c-18 0 -35 5 -50 13c-15 -8 -32 -13 -50 -13s-35 5 -50 13c-15 -8 -32 -13 -50 -13
c-56 0 -100 44 -100 100c0 18 5 35 13 50c-8 15 -13 32 -13 50s5 35 13 50c-8 15 -13 32 -13 50s5 35 13 50c-8 15 -13 32 -13 50s5 35 13 50c-8 15 -13 32 -13 50c0 56 44 100 100 100s100 -44 100 -100c0 -18 -5 -35 -13 -50c8 -15 13 -32 13 -50s-5 -35 -13 -50
c8 -15 13 -32 13 -50s-5 -35 -13 -50c8 -15 13 -32 13 -50c18 0 35 -5 50 -13c15 8 32 13 50 13z" />
    <glyph glyph-name="Lcaron.ss01" horiz-adv-x="800" 
d="M550 137c15 8 32 13 50 13s35 -5 50 -13c15 8 32 13 50 13c56 0 100 -44 100 -100s-44 -100 -100 -100c-18 0 -35 5 -50 13c-15 -8 -32 -13 -50 -13s-35 5 -50 13c-15 -8 -32 -13 -50 -13s-35 5 -50 13c-15 -8 -32 -13 -50 -13s-35 5 -50 13c-15 -8 -32 -13 -50 -13
s-35 5 -50 13c-15 -8 -32 -13 -50 -13s-35 5 -50 13c-15 -8 -32 -13 -50 -13c-56 0 -100 44 -100 100c0 18 5 35 13 50c-8 15 -13 32 -13 50s5 35 13 50c-8 15 -13 32 -13 50s5 35 13 50c-8 15 -13 32 -13 50s5 35 13 50c-8 15 -13 32 -13 50c0 56 44 100 100 100
s100 -44 100 -100c0 -18 -5 -35 -13 -50c8 -15 13 -32 13 -50s-5 -35 -13 -50c8 -15 13 -32 13 -50s-5 -35 -13 -50c8 -15 13 -32 13 -50c18 0 35 -5 50 -13c15 8 32 13 50 13s35 -5 50 -13c15 8 32 13 50 13s35 -5 50 -13c15 8 32 13 50 13s35 -5 50 -13zM700 250
c0 -56 -44 -100 -100 -100s-100 44 -100 100s44 100 100 100c-56 0 -100 44 -100 100s44 100 100 100c18 0 35 -5 50 -13c15 8 32 13 50 13c56 0 100 -44 100 -100c0 -18 -5 -35 -13 -50c8 -15 13 -32 13 -50c0 -56 -44 -100 -100 -100z" />
    <glyph glyph-name="uni013B.ss01" 
d="M300 150c56 0 100 -44 100 -100s-44 -100 -100 -100c-18 0 -35 5 -50 13c-15 -8 -32 -13 -50 -13s-35 5 -50 13c-15 -8 -32 -13 -50 -13c-56 0 -100 44 -100 100c0 18 5 35 13 50c-8 15 -13 32 -13 50s5 35 13 50c-8 15 -13 32 -13 50s5 35 13 50c-8 15 -13 32 -13 50
s5 35 13 50c-8 15 -13 32 -13 50c0 56 44 100 100 100s100 -44 100 -100c0 -18 -5 -35 -13 -50c8 -15 13 -32 13 -50s-5 -35 -13 -50c8 -15 13 -32 13 -50s-5 -35 -13 -50c8 -15 13 -32 13 -50c18 0 35 -5 50 -13c15 8 32 13 50 13zM100 -50c18 0 35 -5 50 -13
c15 8 32 13 50 13c56 0 100 -44 100 -100c0 -18 -5 -35 -13 -50c8 -15 13 -32 13 -50c0 -56 -44 -100 -100 -100c0 -56 -44 -100 -100 -100s-100 44 -100 100s44 100 100 100c-56 0 -100 44 -100 100s44 100 100 100z" />
    <glyph glyph-name="M.ss01" 
d="M387 400c8 -15 13 -32 13 -50s-5 -35 -13 -50c8 -15 13 -32 13 -50s-5 -35 -13 -50c8 -15 13 -32 13 -50s-5 -35 -13 -50c8 -15 13 -32 13 -50c0 -56 -44 -100 -100 -100s-100 44 -100 100c0 18 5 35 13 50c-8 15 -13 32 -13 50s5 35 13 50c-8 15 -13 32 -13 50
c0 -18 -5 -35 -13 -50c8 -15 13 -32 13 -50s-5 -35 -13 -50c8 -15 13 -32 13 -50c0 -56 -44 -100 -100 -100s-100 44 -100 100c0 18 5 35 13 50c-8 15 -13 32 -13 50s5 35 13 50c-8 15 -13 32 -13 50s5 35 13 50c-8 15 -13 32 -13 50s5 35 13 50c-8 15 -13 32 -13 50
c0 56 44 100 100 100s100 -44 100 -100c0 56 44 100 100 100s100 -44 100 -100c0 -18 -5 -35 -13 -50z" />
    <glyph glyph-name="Oslash.ss01" horiz-adv-x="800" 
d="M700 350c56 0 100 -44 100 -100c0 -18 -5 -35 -13 -50c8 -15 13 -32 13 -50c0 -56 -44 -100 -100 -100c0 -56 -44 -100 -100 -100c-18 0 -35 5 -50 13c-15 -8 -32 -13 -50 -13s-35 5 -50 13c-15 -8 -32 -13 -50 -13c-56 0 -100 44 -100 100c-18 0 -35 5 -50 13
c-15 -8 -32 -13 -50 -13c0 -56 -44 -100 -100 -100s-100 44 -100 100s44 100 100 100c-56 0 -100 44 -100 100c0 18 5 35 13 50c-8 15 -13 32 -13 50c0 56 44 100 100 100c0 56 44 100 100 100c18 0 35 -5 50 -13c15 8 32 13 50 13s35 -5 50 -13c15 8 32 13 50 13
c56 0 100 -44 100 -100c18 0 35 -5 50 -13c15 8 32 13 50 13c0 56 44 100 100 100s100 -44 100 -100s-44 -100 -100 -100zM250 363c-15 -8 -32 -13 -50 -13c0 -18 -5 -35 -13 -50c8 -15 13 -32 13 -50c18 0 35 -5 50 -13c15 8 32 13 50 13c0 56 44 100 100 100
c-18 0 -35 5 -50 13c-15 -8 -32 -13 -50 -13s-35 5 -50 13zM550 137c15 8 32 13 50 13c0 18 5 35 13 50c-8 15 -13 32 -13 50c-18 0 -35 5 -50 13c-15 -8 -32 -13 -50 -13c0 -56 -44 -100 -100 -100c18 0 35 -5 50 -13c15 8 32 13 50 13s35 -5 50 -13z" />
    <glyph glyph-name="OE.ss01" horiz-adv-x="800" 
d="M800 250c0 -56 -44 -100 -100 -100c-18 0 -35 5 -50 13c-15 -8 -32 -13 -50 -13s-35 5 -50 13c-15 -8 -32 -13 -50 -13c18 0 35 -5 50 -13c15 8 32 13 50 13s35 -5 50 -13c15 8 32 13 50 13c56 0 100 -44 100 -100s-44 -100 -100 -100c-18 0 -35 5 -50 13
c-15 -8 -32 -13 -50 -13s-35 5 -50 13c-15 -8 -32 -13 -50 -13s-35 5 -50 13c-15 -8 -32 -13 -50 -13s-35 5 -50 13c-15 -8 -32 -13 -50 -13s-35 5 -50 13c-15 -8 -32 -13 -50 -13c-56 0 -100 44 -100 100c-56 0 -100 44 -100 100c0 18 5 35 13 50c-8 15 -13 32 -13 50
s5 35 13 50c-8 15 -13 32 -13 50c0 56 44 100 100 100c0 56 44 100 100 100c18 0 35 -5 50 -13c15 8 32 13 50 13s35 -5 50 -13c15 8 32 13 50 13s35 -5 50 -13c15 8 32 13 50 13s35 -5 50 -13c15 8 32 13 50 13s35 -5 50 -13c15 8 32 13 50 13c56 0 100 -44 100 -100
s-44 -100 -100 -100c-18 0 -35 5 -50 13c-15 -8 -32 -13 -50 -13s-35 5 -50 13c-15 -8 -32 -13 -50 -13c18 0 35 -5 50 -13c15 8 32 13 50 13s35 -5 50 -13c15 8 32 13 50 13c56 0 100 -44 100 -100zM250 363c-15 -8 -32 -13 -50 -13c0 -18 -5 -35 -13 -50
c8 -15 13 -32 13 -50s-5 -35 -13 -50c8 -15 13 -32 13 -50c18 0 35 -5 50 -13c15 8 32 13 50 13c0 18 5 35 13 50c-8 15 -13 32 -13 50s5 35 13 50c-8 15 -13 32 -13 50c-18 0 -35 5 -50 13z" />
    <glyph glyph-name="uni1E9E.ss01" horiz-adv-x="800" 
d="M800 350c0 -56 -44 -100 -100 -100c56 0 100 -44 100 -100s-44 -100 -100 -100c0 -56 -44 -100 -100 -100c-18 0 -35 5 -50 13c-15 -8 -32 -13 -50 -13s-35 5 -50 13c-15 -8 -32 -13 -50 -13s-35 5 -50 13c-15 -8 -32 -13 -50 -13c-56 0 -100 44 -100 100s44 100 100 100
c18 0 35 -5 50 -13c15 8 32 13 50 13s35 -5 50 -13c15 8 32 13 50 13s35 -5 50 -13c15 8 32 13 50 13c-18 0 -35 5 -50 13c-15 -8 -32 -13 -50 -13s-35 5 -50 13c-15 -8 -32 -13 -50 -13s-35 5 -50 13c-15 -8 -32 -13 -50 -13c-56 0 -100 44 -100 100s44 100 100 100
c18 0 35 -5 50 -13c15 8 32 13 50 13s35 -5 50 -13c15 8 32 13 50 13s35 -5 50 -13c15 8 32 13 50 13c-18 0 -35 5 -50 13c-15 -8 -32 -13 -50 -13s-35 5 -50 13c-15 -8 -32 -13 -50 -13s-35 5 -50 13c-15 -8 -32 -13 -50 -13s-35 5 -50 13c-15 -8 -32 -13 -50 -13
c0 -18 -5 -35 -13 -50c8 -15 13 -32 13 -50s-5 -35 -13 -50c8 -15 13 -32 13 -50s-5 -35 -13 -50c8 -15 13 -32 13 -50c0 -56 -44 -100 -100 -100s-100 44 -100 100c0 18 5 35 13 50c-8 15 -13 32 -13 50s5 35 13 50c-8 15 -13 32 -13 50s5 35 13 50c-8 15 -13 32 -13 50
c0 56 44 100 100 100c0 56 44 100 100 100c18 0 35 -5 50 -13c15 8 32 13 50 13s35 -5 50 -13c15 8 32 13 50 13s35 -5 50 -13c15 8 32 13 50 13s35 -5 50 -13c15 8 32 13 50 13s35 -5 50 -13c15 8 32 13 50 13c56 0 100 -44 100 -100c0 -18 -5 -35 -13 -50
c8 -15 13 -32 13 -50z" />
    <glyph glyph-name="W.ss01" 
d="M387 400c8 -15 13 -32 13 -50s-5 -35 -13 -50c8 -15 13 -32 13 -50s-5 -35 -13 -50c8 -15 13 -32 13 -50s-5 -35 -13 -50c8 -15 13 -32 13 -50c0 -56 -44 -100 -100 -100s-100 44 -100 100c0 -56 -44 -100 -100 -100s-100 44 -100 100c0 18 5 35 13 50
c-8 15 -13 32 -13 50s5 35 13 50c-8 15 -13 32 -13 50s5 35 13 50c-8 15 -13 32 -13 50s5 35 13 50c-8 15 -13 32 -13 50c0 56 44 100 100 100s100 -44 100 -100c0 -18 -5 -35 -13 -50c8 -15 13 -32 13 -50s-5 -35 -13 -50c8 -15 13 -32 13 -50c0 18 5 35 13 50
c-8 15 -13 32 -13 50s5 35 13 50c-8 15 -13 32 -13 50c0 56 44 100 100 100s100 -44 100 -100c0 -18 -5 -35 -13 -50z" />
    <glyph glyph-name="Wacute.ss01" 
d="M200 550c-56 0 -100 44 -100 100s44 100 100 100c0 56 44 100 100 100s100 -44 100 -100s-44 -100 -100 -100c0 -56 -44 -100 -100 -100zM300 550c56 0 100 -44 100 -100c0 -18 -5 -35 -13 -50c8 -15 13 -32 13 -50s-5 -35 -13 -50c8 -15 13 -32 13 -50s-5 -35 -13 -50
c8 -15 13 -32 13 -50s-5 -35 -13 -50c8 -15 13 -32 13 -50c0 -56 -44 -100 -100 -100s-100 44 -100 100c0 -56 -44 -100 -100 -100s-100 44 -100 100c0 18 5 35 13 50c-8 15 -13 32 -13 50s5 35 13 50c-8 15 -13 32 -13 50s5 35 13 50c-8 15 -13 32 -13 50s5 35 13 50
c-8 15 -13 32 -13 50c0 56 44 100 100 100s100 -44 100 -100c0 -18 -5 -35 -13 -50c8 -15 13 -32 13 -50s-5 -35 -13 -50c8 -15 13 -32 13 -50c0 18 5 35 13 50c-8 15 -13 32 -13 50s5 35 13 50c-8 15 -13 32 -13 50c0 56 44 100 100 100z" />
    <glyph glyph-name="Wcircumflex.ss01" 
d="M200 650c0 -56 -44 -100 -100 -100s-100 44 -100 100s44 100 100 100c0 56 44 100 100 100s100 -44 100 -100c56 0 100 -44 100 -100s-44 -100 -100 -100s-100 44 -100 100zM300 550c56 0 100 -44 100 -100c0 -18 -5 -35 -13 -50c8 -15 13 -32 13 -50s-5 -35 -13 -50
c8 -15 13 -32 13 -50s-5 -35 -13 -50c8 -15 13 -32 13 -50s-5 -35 -13 -50c8 -15 13 -32 13 -50c0 -56 -44 -100 -100 -100s-100 44 -100 100c0 -56 -44 -100 -100 -100s-100 44 -100 100c0 18 5 35 13 50c-8 15 -13 32 -13 50s5 35 13 50c-8 15 -13 32 -13 50s5 35 13 50
c-8 15 -13 32 -13 50s5 35 13 50c-8 15 -13 32 -13 50c0 56 44 100 100 100s100 -44 100 -100c0 -18 -5 -35 -13 -50c8 -15 13 -32 13 -50s-5 -35 -13 -50c8 -15 13 -32 13 -50c0 18 5 35 13 50c-8 15 -13 32 -13 50s5 35 13 50c-8 15 -13 32 -13 50c0 56 44 100 100 100z
" />
    <glyph glyph-name="Wdieresis.ss01" 
d="M200 650c0 -56 -44 -100 -100 -100s-100 44 -100 100s44 100 100 100s100 -44 100 -100zM300 550c-56 0 -100 44 -100 100s44 100 100 100s100 -44 100 -100s-44 -100 -100 -100zM300 550c56 0 100 -44 100 -100c0 -18 -5 -35 -13 -50c8 -15 13 -32 13 -50
s-5 -35 -13 -50c8 -15 13 -32 13 -50s-5 -35 -13 -50c8 -15 13 -32 13 -50s-5 -35 -13 -50c8 -15 13 -32 13 -50c0 -56 -44 -100 -100 -100s-100 44 -100 100c0 -56 -44 -100 -100 -100s-100 44 -100 100c0 18 5 35 13 50c-8 15 -13 32 -13 50s5 35 13 50
c-8 15 -13 32 -13 50s5 35 13 50c-8 15 -13 32 -13 50s5 35 13 50c-8 15 -13 32 -13 50c0 56 44 100 100 100s100 -44 100 -100c0 -18 -5 -35 -13 -50c8 -15 13 -32 13 -50s-5 -35 -13 -50c8 -15 13 -32 13 -50c0 18 5 35 13 50c-8 15 -13 32 -13 50s5 35 13 50
c-8 15 -13 32 -13 50c0 56 44 100 100 100z" />
    <glyph glyph-name="Wgrave.ss01" 
d="M100 650c-56 0 -100 44 -100 100s44 100 100 100s100 -44 100 -100c56 0 100 -44 100 -100s-44 -100 -100 -100s-100 44 -100 100zM387 400c8 -15 13 -32 13 -50s-5 -35 -13 -50c8 -15 13 -32 13 -50s-5 -35 -13 -50c8 -15 13 -32 13 -50s-5 -35 -13 -50
c8 -15 13 -32 13 -50c0 -56 -44 -100 -100 -100s-100 44 -100 100c0 -56 -44 -100 -100 -100s-100 44 -100 100c0 18 5 35 13 50c-8 15 -13 32 -13 50s5 35 13 50c-8 15 -13 32 -13 50s5 35 13 50c-8 15 -13 32 -13 50s5 35 13 50c-8 15 -13 32 -13 50c0 56 44 100 100 100
s100 -44 100 -100c0 -18 -5 -35 -13 -50c8 -15 13 -32 13 -50s-5 -35 -13 -50c8 -15 13 -32 13 -50c0 18 5 35 13 50c-8 15 -13 32 -13 50s5 35 13 50c-8 15 -13 32 -13 50c0 56 44 100 100 100s100 -44 100 -100c0 -18 -5 -35 -13 -50z" />
    <glyph glyph-name="Q.ss02" 
d="M387 300c8 -15 13 -32 13 -50s-5 -35 -13 -50c8 -15 13 -32 13 -50c0 -56 -44 -100 -100 -100c56 0 100 -44 100 -100s-44 -100 -100 -100s-100 44 -100 100c-56 0 -100 44 -100 100c-56 0 -100 44 -100 100c0 18 5 35 13 50c-8 15 -13 32 -13 50s5 35 13 50
c-8 15 -13 32 -13 50c0 56 44 100 100 100c0 56 44 100 100 100s100 -44 100 -100c56 0 100 -44 100 -100c0 -18 -5 -35 -13 -50zM213 300c-8 15 -13 32 -13 50c0 -18 -5 -35 -13 -50c8 -15 13 -32 13 -50s-5 -35 -13 -50c8 -15 13 -32 13 -50c0 18 5 35 13 50
c-8 15 -13 32 -13 50s5 35 13 50z" />
    <glyph glyph-name="A.ss03" horiz-adv-x="500" 
d="M487 300c8 -15 13 -32 13 -50s-5 -35 -13 -50c8 -15 13 -32 13 -50s-5 -35 -13 -50c8 -15 13 -32 13 -50c0 -56 -44 -100 -100 -100s-100 44 -100 100c0 18 5 35 13 50c-8 15 -13 32 -13 50c-18 0 -35 5 -50 13c-15 -8 -32 -13 -50 -13c0 -18 -5 -35 -13 -50
c8 -15 13 -32 13 -50c0 -56 -44 -100 -100 -100s-100 44 -100 100c0 18 5 35 13 50c-8 15 -13 32 -13 50c0 56 44 100 100 100c0 18 5 35 13 50c-8 15 -13 32 -13 50c0 56 44 100 100 100c0 56 44 100 100 100s100 -44 100 -100c56 0 100 -44 100 -100c0 -18 -5 -35 -13 -50
z" />
    <glyph glyph-name="Aacute.ss03" horiz-adv-x="500" 
d="M400 650c0 -56 -44 -100 -100 -100s-100 44 -100 100s44 100 100 100c0 56 44 100 100 100s100 -44 100 -100s-44 -100 -100 -100zM400 450c56 0 100 -44 100 -100c0 -18 -5 -35 -13 -50c8 -15 13 -32 13 -50s-5 -35 -13 -50c8 -15 13 -32 13 -50s-5 -35 -13 -50
c8 -15 13 -32 13 -50c0 -56 -44 -100 -100 -100s-100 44 -100 100c0 18 5 35 13 50c-8 15 -13 32 -13 50c-18 0 -35 5 -50 13c-15 -8 -32 -13 -50 -13c0 -18 -5 -35 -13 -50c8 -15 13 -32 13 -50c0 -56 -44 -100 -100 -100s-100 44 -100 100c0 18 5 35 13 50
c-8 15 -13 32 -13 50c0 56 44 100 100 100c0 18 5 35 13 50c-8 15 -13 32 -13 50c0 56 44 100 100 100c0 56 44 100 100 100s100 -44 100 -100z" />
    <glyph glyph-name="Abreve.ss03" horiz-adv-x="500" 
d="M400 550c-18 0 -35 5 -50 13c-15 -8 -32 -13 -50 -13s-35 5 -50 13c-15 -8 -32 -13 -50 -13c-56 0 -100 44 -100 100c0 18 5 35 13 50c-8 15 -13 32 -13 50c0 56 44 100 100 100s100 -44 100 -100c0 56 44 100 100 100s100 -44 100 -100c0 -18 -5 -35 -13 -50
c8 -15 13 -32 13 -50c0 -56 -44 -100 -100 -100zM200 450c0 56 44 100 100 100s100 -44 100 -100c56 0 100 -44 100 -100c0 -18 -5 -35 -13 -50c8 -15 13 -32 13 -50s-5 -35 -13 -50c8 -15 13 -32 13 -50s-5 -35 -13 -50c8 -15 13 -32 13 -50c0 -56 -44 -100 -100 -100
s-100 44 -100 100c0 18 5 35 13 50c-8 15 -13 32 -13 50c-18 0 -35 5 -50 13c-15 -8 -32 -13 -50 -13c0 -18 -5 -35 -13 -50c8 -15 13 -32 13 -50c0 -56 -44 -100 -100 -100s-100 44 -100 100c0 18 5 35 13 50c-8 15 -13 32 -13 50c0 56 44 100 100 100c0 18 5 35 13 50
c-8 15 -13 32 -13 50c0 56 44 100 100 100z" />
    <glyph glyph-name="Acircumflex.ss03" horiz-adv-x="500" 
d="M200 550c-56 0 -100 44 -100 100s44 100 100 100c0 56 44 100 100 100s100 -44 100 -100c56 0 100 -44 100 -100s-44 -100 -100 -100s-100 44 -100 100c0 -56 -44 -100 -100 -100zM400 450c56 0 100 -44 100 -100c0 -18 -5 -35 -13 -50c8 -15 13 -32 13 -50
s-5 -35 -13 -50c8 -15 13 -32 13 -50s-5 -35 -13 -50c8 -15 13 -32 13 -50c0 -56 -44 -100 -100 -100s-100 44 -100 100c0 18 5 35 13 50c-8 15 -13 32 -13 50c-18 0 -35 5 -50 13c-15 -8 -32 -13 -50 -13c0 -18 -5 -35 -13 -50c8 -15 13 -32 13 -50
c0 -56 -44 -100 -100 -100s-100 44 -100 100c0 18 5 35 13 50c-8 15 -13 32 -13 50c0 56 44 100 100 100c0 18 5 35 13 50c-8 15 -13 32 -13 50c0 56 44 100 100 100c0 56 44 100 100 100s100 -44 100 -100z" />
    <glyph glyph-name="Adieresis.ss03" horiz-adv-x="500" 
d="M200 550c-56 0 -100 44 -100 100s44 100 100 100s100 -44 100 -100s-44 -100 -100 -100zM400 550c-56 0 -100 44 -100 100s44 100 100 100s100 -44 100 -100s-44 -100 -100 -100zM400 450c56 0 100 -44 100 -100c0 -18 -5 -35 -13 -50c8 -15 13 -32 13 -50
s-5 -35 -13 -50c8 -15 13 -32 13 -50s-5 -35 -13 -50c8 -15 13 -32 13 -50c0 -56 -44 -100 -100 -100s-100 44 -100 100c0 18 5 35 13 50c-8 15 -13 32 -13 50c-18 0 -35 5 -50 13c-15 -8 -32 -13 -50 -13c0 -18 -5 -35 -13 -50c8 -15 13 -32 13 -50
c0 -56 -44 -100 -100 -100s-100 44 -100 100c0 18 5 35 13 50c-8 15 -13 32 -13 50c0 56 44 100 100 100c0 18 5 35 13 50c-8 15 -13 32 -13 50c0 56 44 100 100 100c0 56 44 100 100 100s100 -44 100 -100z" />
    <glyph glyph-name="Agrave.ss03" horiz-adv-x="500" 
d="M400 650c0 -56 -44 -100 -100 -100s-100 44 -100 100c-56 0 -100 44 -100 100s44 100 100 100s100 -44 100 -100c56 0 100 -44 100 -100zM487 300c8 -15 13 -32 13 -50s-5 -35 -13 -50c8 -15 13 -32 13 -50s-5 -35 -13 -50c8 -15 13 -32 13 -50c0 -56 -44 -100 -100 -100
s-100 44 -100 100c0 18 5 35 13 50c-8 15 -13 32 -13 50c-18 0 -35 5 -50 13c-15 -8 -32 -13 -50 -13c0 -18 -5 -35 -13 -50c8 -15 13 -32 13 -50c0 -56 -44 -100 -100 -100s-100 44 -100 100c0 18 5 35 13 50c-8 15 -13 32 -13 50c0 56 44 100 100 100c0 18 5 35 13 50
c-8 15 -13 32 -13 50c0 56 44 100 100 100c0 56 44 100 100 100s100 -44 100 -100c56 0 100 -44 100 -100c0 -18 -5 -35 -13 -50z" />
    <glyph glyph-name="Amacron.ss03" horiz-adv-x="500" 
d="M400 550c-18 0 -35 5 -50 13c-15 -8 -32 -13 -50 -13s-35 5 -50 13c-15 -8 -32 -13 -50 -13c-56 0 -100 44 -100 100s44 100 100 100c18 0 35 -5 50 -13c15 8 32 13 50 13s35 -5 50 -13c15 8 32 13 50 13c56 0 100 -44 100 -100s-44 -100 -100 -100zM400 450
c56 0 100 -44 100 -100c0 -18 -5 -35 -13 -50c8 -15 13 -32 13 -50s-5 -35 -13 -50c8 -15 13 -32 13 -50s-5 -35 -13 -50c8 -15 13 -32 13 -50c0 -56 -44 -100 -100 -100s-100 44 -100 100c0 18 5 35 13 50c-8 15 -13 32 -13 50c-18 0 -35 5 -50 13c-15 -8 -32 -13 -50 -13
c0 -18 -5 -35 -13 -50c8 -15 13 -32 13 -50c0 -56 -44 -100 -100 -100s-100 44 -100 100c0 18 5 35 13 50c-8 15 -13 32 -13 50c0 56 44 100 100 100c0 18 5 35 13 50c-8 15 -13 32 -13 50c0 56 44 100 100 100c0 56 44 100 100 100s100 -44 100 -100z" />
    <glyph glyph-name="Aogonek.ss03" horiz-adv-x="500" 
d="M487 300c8 -15 13 -32 13 -50s-5 -35 -13 -50c8 -15 13 -32 13 -50s-5 -35 -13 -50c8 -15 13 -32 13 -50c0 -56 -44 -100 -100 -100c56 0 100 -44 100 -100s-44 -100 -100 -100c-18 0 -35 5 -50 13c-15 -8 -32 -13 -50 -13c-56 0 -100 44 -100 100c0 18 5 35 13 50
c-8 15 -13 32 -13 50c0 56 44 100 100 100c0 18 5 35 13 50c-8 15 -13 32 -13 50c-18 0 -35 5 -50 13c-15 -8 -32 -13 -50 -13c0 -18 -5 -35 -13 -50c8 -15 13 -32 13 -50c0 -56 -44 -100 -100 -100s-100 44 -100 100c0 18 5 35 13 50c-8 15 -13 32 -13 50
c0 56 44 100 100 100c0 18 5 35 13 50c-8 15 -13 32 -13 50c0 56 44 100 100 100c0 56 44 100 100 100s100 -44 100 -100c56 0 100 -44 100 -100c0 -18 -5 -35 -13 -50z" />
    <glyph glyph-name="Aring.ss03" horiz-adv-x="500" 
d="M400 450c56 0 100 -44 100 -100c0 -18 -5 -35 -13 -50c8 -15 13 -32 13 -50s-5 -35 -13 -50c8 -15 13 -32 13 -50s-5 -35 -13 -50c8 -15 13 -32 13 -50c0 -56 -44 -100 -100 -100s-100 44 -100 100c0 18 5 35 13 50c-8 15 -13 32 -13 50c-18 0 -35 5 -50 13
c-15 -8 -32 -13 -50 -13c0 -18 -5 -35 -13 -50c8 -15 13 -32 13 -50c0 -56 -44 -100 -100 -100s-100 44 -100 100c0 18 5 35 13 50c-8 15 -13 32 -13 50c0 56 44 100 100 100c0 18 5 35 13 50c-8 15 -13 32 -13 50c0 56 44 100 100 100c-56 0 -100 44 -100 100
s44 100 100 100c0 56 44 100 100 100s100 -44 100 -100c56 0 100 -44 100 -100s-44 -100 -100 -100z" />
    <glyph glyph-name="Atilde.ss03" horiz-adv-x="500" 
d="M500 850c56 0 100 -44 100 -100s-44 -100 -100 -100c0 -56 -44 -100 -100 -100s-100 44 -100 100c0 -56 -44 -100 -100 -100s-100 44 -100 100s44 100 100 100c0 56 44 100 100 100s100 -44 100 -100c0 56 44 100 100 100zM400 450c56 0 100 -44 100 -100
c0 -18 -5 -35 -13 -50c8 -15 13 -32 13 -50s-5 -35 -13 -50c8 -15 13 -32 13 -50s-5 -35 -13 -50c8 -15 13 -32 13 -50c0 -56 -44 -100 -100 -100s-100 44 -100 100c0 18 5 35 13 50c-8 15 -13 32 -13 50c-18 0 -35 5 -50 13c-15 -8 -32 -13 -50 -13c0 -18 -5 -35 -13 -50
c8 -15 13 -32 13 -50c0 -56 -44 -100 -100 -100s-100 44 -100 100c0 18 5 35 13 50c-8 15 -13 32 -13 50c0 56 44 100 100 100c0 18 5 35 13 50c-8 15 -13 32 -13 50c0 56 44 100 100 100c0 56 44 100 100 100s100 -44 100 -100z" />
    <glyph glyph-name="AE.ss03" horiz-adv-x="700" 
d="M700 250c0 -56 -44 -100 -100 -100c-18 0 -35 5 -50 13c-15 -8 -32 -13 -50 -13c18 0 35 -5 50 -13c15 8 32 13 50 13c56 0 100 -44 100 -100s-44 -100 -100 -100c-18 0 -35 5 -50 13c-15 -8 -32 -13 -50 -13s-35 5 -50 13c-15 -8 -32 -13 -50 -13
c-56 0 -100 44 -100 100c0 18 5 35 13 50c-8 15 -13 32 -13 50c-18 0 -35 5 -50 13c-15 -8 -32 -13 -50 -13c0 -18 -5 -35 -13 -50c8 -15 13 -32 13 -50c0 -56 -44 -100 -100 -100s-100 44 -100 100c0 18 5 35 13 50c-8 15 -13 32 -13 50c0 56 44 100 100 100
c0 18 5 35 13 50c-8 15 -13 32 -13 50c0 56 44 100 100 100c0 56 44 100 100 100c18 0 35 -5 50 -13c15 8 32 13 50 13s35 -5 50 -13c15 8 32 13 50 13s35 -5 50 -13c15 8 32 13 50 13c56 0 100 -44 100 -100s-44 -100 -100 -100c-18 0 -35 5 -50 13c-15 -8 -32 -13 -50 -13
c18 0 35 -5 50 -13c15 8 32 13 50 13c56 0 100 -44 100 -100z" />
    <glyph glyph-name="B.ss03" horiz-adv-x="500" 
d="M400 250c56 0 100 -44 100 -100s-44 -100 -100 -100c0 -56 -44 -100 -100 -100c-18 0 -35 5 -50 13c-15 -8 -32 -13 -50 -13s-35 5 -50 13c-15 -8 -32 -13 -50 -13c-56 0 -100 44 -100 100c0 18 5 35 13 50c-8 15 -13 32 -13 50s5 35 13 50c-8 15 -13 32 -13 50
s5 35 13 50c-8 15 -13 32 -13 50s5 35 13 50c-8 15 -13 32 -13 50c0 56 44 100 100 100c18 0 35 -5 50 -13c15 8 32 13 50 13s35 -5 50 -13c15 8 32 13 50 13c56 0 100 -44 100 -100c56 0 100 -44 100 -100s-44 -100 -100 -100zM200 350c18 0 35 -5 50 -13c15 8 32 13 50 13
c-18 0 -35 5 -50 13c-15 -8 -32 -13 -50 -13zM250 137c15 8 32 13 50 13c-18 0 -35 5 -50 13c-15 -8 -32 -13 -50 -13c18 0 35 -5 50 -13z" />
    <glyph glyph-name="C.ss03" horiz-adv-x="500" 
d="M400 250c56 0 100 -44 100 -100s-44 -100 -100 -100c0 -56 -44 -100 -100 -100c-18 0 -35 5 -50 13c-15 -8 -32 -13 -50 -13c-56 0 -100 44 -100 100c-56 0 -100 44 -100 100c0 18 5 35 13 50c-8 15 -13 32 -13 50s5 35 13 50c-8 15 -13 32 -13 50c0 56 44 100 100 100
c0 56 44 100 100 100c18 0 35 -5 50 -13c15 8 32 13 50 13c56 0 100 -44 100 -100c56 0 100 -44 100 -100s-44 -100 -100 -100s-100 44 -100 100c-18 0 -35 5 -50 13c-15 -8 -32 -13 -50 -13c0 -18 -5 -35 -13 -50c8 -15 13 -32 13 -50s-5 -35 -13 -50c8 -15 13 -32 13 -50
c18 0 35 -5 50 -13c15 8 32 13 50 13c0 56 44 100 100 100z" />
    <glyph glyph-name="Cacute.ss03" horiz-adv-x="500" 
d="M300 650c0 -56 -44 -100 -100 -100s-100 44 -100 100s44 100 100 100c0 56 44 100 100 100s100 -44 100 -100s-44 -100 -100 -100zM400 250c56 0 100 -44 100 -100s-44 -100 -100 -100c0 -56 -44 -100 -100 -100c-18 0 -35 5 -50 13c-15 -8 -32 -13 -50 -13
c-56 0 -100 44 -100 100c-56 0 -100 44 -100 100c0 18 5 35 13 50c-8 15 -13 32 -13 50s5 35 13 50c-8 15 -13 32 -13 50c0 56 44 100 100 100c0 56 44 100 100 100c18 0 35 -5 50 -13c15 8 32 13 50 13c56 0 100 -44 100 -100c56 0 100 -44 100 -100s-44 -100 -100 -100
s-100 44 -100 100c-18 0 -35 5 -50 13c-15 -8 -32 -13 -50 -13c0 -18 -5 -35 -13 -50c8 -15 13 -32 13 -50s-5 -35 -13 -50c8 -15 13 -32 13 -50c18 0 35 -5 50 -13c15 8 32 13 50 13c0 56 44 100 100 100z" />
    <glyph glyph-name="Ccaron.ss03" horiz-adv-x="500" 
d="M300 650c0 -56 -44 -100 -100 -100s-100 44 -100 100c-56 0 -100 44 -100 100s44 100 100 100s100 -44 100 -100c0 56 44 100 100 100s100 -44 100 -100s-44 -100 -100 -100zM400 250c56 0 100 -44 100 -100s-44 -100 -100 -100c0 -56 -44 -100 -100 -100
c-18 0 -35 5 -50 13c-15 -8 -32 -13 -50 -13c-56 0 -100 44 -100 100c-56 0 -100 44 -100 100c0 18 5 35 13 50c-8 15 -13 32 -13 50s5 35 13 50c-8 15 -13 32 -13 50c0 56 44 100 100 100c0 56 44 100 100 100c18 0 35 -5 50 -13c15 8 32 13 50 13c56 0 100 -44 100 -100
c56 0 100 -44 100 -100s-44 -100 -100 -100s-100 44 -100 100c-18 0 -35 5 -50 13c-15 -8 -32 -13 -50 -13c0 -18 -5 -35 -13 -50c8 -15 13 -32 13 -50s-5 -35 -13 -50c8 -15 13 -32 13 -50c18 0 35 -5 50 -13c15 8 32 13 50 13c0 56 44 100 100 100z" />
    <glyph glyph-name="Ccedilla.ss03" horiz-adv-x="500" 
d="M400 250c56 0 100 -44 100 -100s-44 -100 -100 -100c0 -18 -5 -35 -13 -50c8 -15 13 -32 13 -50s-5 -35 -13 -50c8 -15 13 -32 13 -50c0 -56 -44 -100 -100 -100c-18 0 -35 5 -50 13c-15 -8 -32 -13 -50 -13c-56 0 -100 44 -100 100s44 100 100 100
c-56 0 -100 44 -100 100c-56 0 -100 44 -100 100c0 18 5 35 13 50c-8 15 -13 32 -13 50s5 35 13 50c-8 15 -13 32 -13 50c0 56 44 100 100 100c0 56 44 100 100 100c18 0 35 -5 50 -13c15 8 32 13 50 13c56 0 100 -44 100 -100c56 0 100 -44 100 -100s-44 -100 -100 -100
s-100 44 -100 100c-18 0 -35 5 -50 13c-15 -8 -32 -13 -50 -13c0 -18 -5 -35 -13 -50c8 -15 13 -32 13 -50s-5 -35 -13 -50c8 -15 13 -32 13 -50c18 0 35 -5 50 -13c15 8 32 13 50 13c0 56 44 100 100 100z" />
    <glyph glyph-name="Cdotaccent.ss03" horiz-adv-x="500" 
d="M300 650c0 -56 -44 -100 -100 -100s-100 44 -100 100s44 100 100 100s100 -44 100 -100zM400 250c56 0 100 -44 100 -100s-44 -100 -100 -100c0 -56 -44 -100 -100 -100c-18 0 -35 5 -50 13c-15 -8 -32 -13 -50 -13c-56 0 -100 44 -100 100c-56 0 -100 44 -100 100
c0 18 5 35 13 50c-8 15 -13 32 -13 50s5 35 13 50c-8 15 -13 32 -13 50c0 56 44 100 100 100c0 56 44 100 100 100c18 0 35 -5 50 -13c15 8 32 13 50 13c56 0 100 -44 100 -100c56 0 100 -44 100 -100s-44 -100 -100 -100s-100 44 -100 100c-18 0 -35 5 -50 13
c-15 -8 -32 -13 -50 -13c0 -18 -5 -35 -13 -50c8 -15 13 -32 13 -50s-5 -35 -13 -50c8 -15 13 -32 13 -50c18 0 35 -5 50 -13c15 8 32 13 50 13c0 56 44 100 100 100z" />
    <glyph glyph-name="D.ss03" horiz-adv-x="500" 
d="M487 300c8 -15 13 -32 13 -50s-5 -35 -13 -50c8 -15 13 -32 13 -50c0 -56 -44 -100 -100 -100c0 -56 -44 -100 -100 -100c-18 0 -35 5 -50 13c-15 -8 -32 -13 -50 -13s-35 5 -50 13c-15 -8 -32 -13 -50 -13c-56 0 -100 44 -100 100c0 18 5 35 13 50c-8 15 -13 32 -13 50
s5 35 13 50c-8 15 -13 32 -13 50s5 35 13 50c-8 15 -13 32 -13 50s5 35 13 50c-8 15 -13 32 -13 50c0 56 44 100 100 100c18 0 35 -5 50 -13c15 8 32 13 50 13s35 -5 50 -13c15 8 32 13 50 13c56 0 100 -44 100 -100c56 0 100 -44 100 -100c0 -18 -5 -35 -13 -50zM250 137
c15 8 32 13 50 13c0 18 5 35 13 50c-8 15 -13 32 -13 50s5 35 13 50c-8 15 -13 32 -13 50c-18 0 -35 5 -50 13c-15 -8 -32 -13 -50 -13c0 -18 -5 -35 -13 -50c8 -15 13 -32 13 -50s-5 -35 -13 -50c8 -15 13 -32 13 -50c18 0 35 -5 50 -13z" />
    <glyph glyph-name="Eth.ss03" horiz-adv-x="600" 
d="M587 300c8 -15 13 -32 13 -50s-5 -35 -13 -50c8 -15 13 -32 13 -50c0 -56 -44 -100 -100 -100c0 -56 -44 -100 -100 -100c-18 0 -35 5 -50 13c-15 -8 -32 -13 -50 -13s-35 5 -50 13c-15 -8 -32 -13 -50 -13c-56 0 -100 44 -100 100c0 18 5 35 13 50c-8 15 -13 32 -13 50
c-56 0 -100 44 -100 100s44 100 100 100c0 18 5 35 13 50c-8 15 -13 32 -13 50c0 56 44 100 100 100c18 0 35 -5 50 -13c15 8 32 13 50 13s35 -5 50 -13c15 8 32 13 50 13c56 0 100 -44 100 -100c56 0 100 -44 100 -100c0 -18 -5 -35 -13 -50zM350 137c15 8 32 13 50 13
c0 18 5 35 13 50c-8 15 -13 32 -13 50s5 35 13 50c-8 15 -13 32 -13 50c-18 0 -35 5 -50 13c-15 -8 -32 -13 -50 -13c0 -18 -5 -35 -13 -50c8 -15 13 -32 13 -50s-5 -35 -13 -50c8 -15 13 -32 13 -50c18 0 35 -5 50 -13z" />
    <glyph glyph-name="Dcaron.ss03" horiz-adv-x="500" 
d="M300 650c0 -56 -44 -100 -100 -100s-100 44 -100 100c-56 0 -100 44 -100 100s44 100 100 100s100 -44 100 -100c0 56 44 100 100 100s100 -44 100 -100s-44 -100 -100 -100zM487 300c8 -15 13 -32 13 -50s-5 -35 -13 -50c8 -15 13 -32 13 -50c0 -56 -44 -100 -100 -100
c0 -56 -44 -100 -100 -100c-18 0 -35 5 -50 13c-15 -8 -32 -13 -50 -13s-35 5 -50 13c-15 -8 -32 -13 -50 -13c-56 0 -100 44 -100 100c0 18 5 35 13 50c-8 15 -13 32 -13 50s5 35 13 50c-8 15 -13 32 -13 50s5 35 13 50c-8 15 -13 32 -13 50s5 35 13 50
c-8 15 -13 32 -13 50c0 56 44 100 100 100c18 0 35 -5 50 -13c15 8 32 13 50 13s35 -5 50 -13c15 8 32 13 50 13c56 0 100 -44 100 -100c56 0 100 -44 100 -100c0 -18 -5 -35 -13 -50zM250 137c15 8 32 13 50 13c0 18 5 35 13 50c-8 15 -13 32 -13 50s5 35 13 50
c-8 15 -13 32 -13 50c-18 0 -35 5 -50 13c-15 -8 -32 -13 -50 -13c0 -18 -5 -35 -13 -50c8 -15 13 -32 13 -50s-5 -35 -13 -50c8 -15 13 -32 13 -50c18 0 35 -5 50 -13z" />
    <glyph glyph-name="G.ss03" horiz-adv-x="500" 
d="M400 350c56 0 100 -44 100 -100c0 -18 -5 -35 -13 -50c8 -15 13 -32 13 -50s-5 -35 -13 -50c8 -15 13 -32 13 -50c0 -56 -44 -100 -100 -100c-18 0 -35 5 -50 13c-15 -8 -32 -13 -50 -13s-35 5 -50 13c-15 -8 -32 -13 -50 -13c-56 0 -100 44 -100 100
c-56 0 -100 44 -100 100c0 18 5 35 13 50c-8 15 -13 32 -13 50s5 35 13 50c-8 15 -13 32 -13 50c0 56 44 100 100 100c0 56 44 100 100 100c18 0 35 -5 50 -13c15 8 32 13 50 13s35 -5 50 -13c15 8 32 13 50 13c56 0 100 -44 100 -100s-44 -100 -100 -100
c-18 0 -35 5 -50 13c-15 -8 -32 -13 -50 -13s-35 5 -50 13c-15 -8 -32 -13 -50 -13c0 -18 -5 -35 -13 -50c8 -15 13 -32 13 -50s-5 -35 -13 -50c8 -15 13 -32 13 -50c18 0 35 -5 50 -13c15 8 32 13 50 13c0 18 5 35 13 50c-8 15 -13 32 -13 50c0 56 44 100 100 100z" />
    <glyph glyph-name="Gbreve.ss03" horiz-adv-x="500" 
d="M500 650c0 -56 -44 -100 -100 -100c-18 0 -35 5 -50 13c-15 -8 -32 -13 -50 -13s-35 5 -50 13c-15 -8 -32 -13 -50 -13c-56 0 -100 44 -100 100c0 18 5 35 13 50c-8 15 -13 32 -13 50c0 56 44 100 100 100s100 -44 100 -100c0 56 44 100 100 100s100 -44 100 -100
c0 -18 -5 -35 -13 -50c8 -15 13 -32 13 -50zM300 550c18 0 35 -5 50 -13c15 8 32 13 50 13c56 0 100 -44 100 -100s-44 -100 -100 -100c-18 0 -35 5 -50 13c-15 -8 -32 -13 -50 -13s-35 5 -50 13c-15 -8 -32 -13 -50 -13c0 -18 -5 -35 -13 -50c8 -15 13 -32 13 -50
s-5 -35 -13 -50c8 -15 13 -32 13 -50c18 0 35 -5 50 -13c15 8 32 13 50 13c0 18 5 35 13 50c-8 15 -13 32 -13 50c0 56 44 100 100 100s100 -44 100 -100c0 -18 -5 -35 -13 -50c8 -15 13 -32 13 -50s-5 -35 -13 -50c8 -15 13 -32 13 -50c0 -56 -44 -100 -100 -100
c-18 0 -35 5 -50 13c-15 -8 -32 -13 -50 -13s-35 5 -50 13c-15 -8 -32 -13 -50 -13c-56 0 -100 44 -100 100c-56 0 -100 44 -100 100c0 18 5 35 13 50c-8 15 -13 32 -13 50s5 35 13 50c-8 15 -13 32 -13 50c0 56 44 100 100 100c0 56 44 100 100 100c18 0 35 -5 50 -13
c15 8 32 13 50 13z" />
    <glyph glyph-name="uni0122.ss03" horiz-adv-x="500" 
d="M400 350c56 0 100 -44 100 -100c0 -18 -5 -35 -13 -50c8 -15 13 -32 13 -50s-5 -35 -13 -50c8 -15 13 -32 13 -50c0 -56 -44 -100 -100 -100c-18 0 -35 5 -50 13c-15 -8 -32 -13 -50 -13s-35 5 -50 13c-15 -8 -32 -13 -50 -13c-56 0 -100 44 -100 100
c-56 0 -100 44 -100 100c0 18 5 35 13 50c-8 15 -13 32 -13 50s5 35 13 50c-8 15 -13 32 -13 50c0 56 44 100 100 100c0 56 44 100 100 100c18 0 35 -5 50 -13c15 8 32 13 50 13s35 -5 50 -13c15 8 32 13 50 13c56 0 100 -44 100 -100s-44 -100 -100 -100
c-18 0 -35 5 -50 13c-15 -8 -32 -13 -50 -13s-35 5 -50 13c-15 -8 -32 -13 -50 -13c0 -18 -5 -35 -13 -50c8 -15 13 -32 13 -50s-5 -35 -13 -50c8 -15 13 -32 13 -50c18 0 35 -5 50 -13c15 8 32 13 50 13c0 18 5 35 13 50c-8 15 -13 32 -13 50c0 56 44 100 100 100zM200 -50
c18 0 35 -5 50 -13c15 8 32 13 50 13c56 0 100 -44 100 -100c0 -18 -5 -35 -13 -50c8 -15 13 -32 13 -50c0 -56 -44 -100 -100 -100c0 -56 -44 -100 -100 -100s-100 44 -100 100s44 100 100 100c-56 0 -100 44 -100 100s44 100 100 100z" />
    <glyph glyph-name="Gdotaccent.ss03" horiz-adv-x="500" 
d="M400 650c0 -56 -44 -100 -100 -100s-100 44 -100 100s44 100 100 100s100 -44 100 -100zM400 350c56 0 100 -44 100 -100c0 -18 -5 -35 -13 -50c8 -15 13 -32 13 -50s-5 -35 -13 -50c8 -15 13 -32 13 -50c0 -56 -44 -100 -100 -100c-18 0 -35 5 -50 13
c-15 -8 -32 -13 -50 -13s-35 5 -50 13c-15 -8 -32 -13 -50 -13c-56 0 -100 44 -100 100c-56 0 -100 44 -100 100c0 18 5 35 13 50c-8 15 -13 32 -13 50s5 35 13 50c-8 15 -13 32 -13 50c0 56 44 100 100 100c0 56 44 100 100 100c18 0 35 -5 50 -13c15 8 32 13 50 13
s35 -5 50 -13c15 8 32 13 50 13c56 0 100 -44 100 -100s-44 -100 -100 -100c-18 0 -35 5 -50 13c-15 -8 -32 -13 -50 -13s-35 5 -50 13c-15 -8 -32 -13 -50 -13c0 -18 -5 -35 -13 -50c8 -15 13 -32 13 -50s-5 -35 -13 -50c8 -15 13 -32 13 -50c18 0 35 -5 50 -13
c15 8 32 13 50 13c0 18 5 35 13 50c-8 15 -13 32 -13 50c0 56 44 100 100 100z" />
    <glyph glyph-name="H.ss03" horiz-adv-x="500" 
d="M487 400c8 -15 13 -32 13 -50s-5 -35 -13 -50c8 -15 13 -32 13 -50s-5 -35 -13 -50c8 -15 13 -32 13 -50s-5 -35 -13 -50c8 -15 13 -32 13 -50c0 -56 -44 -100 -100 -100s-100 44 -100 100c0 18 5 35 13 50c-8 15 -13 32 -13 50c-18 0 -35 5 -50 13
c-15 -8 -32 -13 -50 -13c0 -18 -5 -35 -13 -50c8 -15 13 -32 13 -50c0 -56 -44 -100 -100 -100s-100 44 -100 100c0 18 5 35 13 50c-8 15 -13 32 -13 50s5 35 13 50c-8 15 -13 32 -13 50s5 35 13 50c-8 15 -13 32 -13 50s5 35 13 50c-8 15 -13 32 -13 50
c0 56 44 100 100 100s100 -44 100 -100c0 -18 -5 -35 -13 -50c8 -15 13 -32 13 -50c18 0 35 -5 50 -13c15 8 32 13 50 13c0 18 5 35 13 50c-8 15 -13 32 -13 50c0 56 44 100 100 100s100 -44 100 -100c0 -18 -5 -35 -13 -50z" />
    <glyph glyph-name="J.ss03" horiz-adv-x="500" 
d="M487 400c8 -15 13 -32 13 -50s-5 -35 -13 -50c8 -15 13 -32 13 -50s-5 -35 -13 -50c8 -15 13 -32 13 -50c0 -56 -44 -100 -100 -100c0 -56 -44 -100 -100 -100c-18 0 -35 5 -50 13c-15 -8 -32 -13 -50 -13c-56 0 -100 44 -100 100c-56 0 -100 44 -100 100
c0 18 5 35 13 50c-8 15 -13 32 -13 50c0 56 44 100 100 100s100 -44 100 -100c0 -18 -5 -35 -13 -50c8 -15 13 -32 13 -50c18 0 35 -5 50 -13c15 8 32 13 50 13c0 18 5 35 13 50c-8 15 -13 32 -13 50s5 35 13 50c-8 15 -13 32 -13 50s5 35 13 50c-8 15 -13 32 -13 50
c0 56 44 100 100 100s100 -44 100 -100c0 -18 -5 -35 -13 -50z" />
    <glyph glyph-name="K.ss03" horiz-adv-x="500" 
d="M400 150c56 0 100 -44 100 -100s-44 -100 -100 -100s-100 44 -100 100c-56 0 -100 44 -100 100c0 -18 -5 -35 -13 -50c8 -15 13 -32 13 -50c0 -56 -44 -100 -100 -100s-100 44 -100 100c0 18 5 35 13 50c-8 15 -13 32 -13 50s5 35 13 50c-8 15 -13 32 -13 50s5 35 13 50
c-8 15 -13 32 -13 50s5 35 13 50c-8 15 -13 32 -13 50c0 56 44 100 100 100s100 -44 100 -100c0 -18 -5 -35 -13 -50c8 -15 13 -32 13 -50c0 56 44 100 100 100c0 56 44 100 100 100s100 -44 100 -100s-44 -100 -100 -100c0 -56 -44 -100 -100 -100c56 0 100 -44 100 -100z
" />
    <glyph glyph-name="uni0136.ss03" horiz-adv-x="500" 
d="M400 150c56 0 100 -44 100 -100s-44 -100 -100 -100s-100 44 -100 100c-56 0 -100 44 -100 100c0 -18 -5 -35 -13 -50c8 -15 13 -32 13 -50c0 -56 -44 -100 -100 -100s-100 44 -100 100c0 18 5 35 13 50c-8 15 -13 32 -13 50s5 35 13 50c-8 15 -13 32 -13 50s5 35 13 50
c-8 15 -13 32 -13 50s5 35 13 50c-8 15 -13 32 -13 50c0 56 44 100 100 100s100 -44 100 -100c0 -18 -5 -35 -13 -50c8 -15 13 -32 13 -50c0 56 44 100 100 100c0 56 44 100 100 100s100 -44 100 -100s-44 -100 -100 -100c0 -56 -44 -100 -100 -100c56 0 100 -44 100 -100z
M300 -50c56 0 100 -44 100 -100c0 -18 -5 -35 -13 -50c8 -15 13 -32 13 -50c0 -56 -44 -100 -100 -100c0 -56 -44 -100 -100 -100s-100 44 -100 100s44 100 100 100c-56 0 -100 44 -100 100s44 100 100 100c18 0 35 -5 50 -13c15 8 32 13 50 13z" />
    <glyph glyph-name="Lcaron.ss03" horiz-adv-x="500" 
d="M200 150c18 0 35 -5 50 -13c15 8 32 13 50 13c56 0 100 -44 100 -100s-44 -100 -100 -100c-18 0 -35 5 -50 13c-15 -8 -32 -13 -50 -13s-35 5 -50 13c-15 -8 -32 -13 -50 -13c-56 0 -100 44 -100 100c0 18 5 35 13 50c-8 15 -13 32 -13 50s5 35 13 50
c-8 15 -13 32 -13 50s5 35 13 50c-8 15 -13 32 -13 50s5 35 13 50c-8 15 -13 32 -13 50c0 56 44 100 100 100s100 -44 100 -100c0 -18 -5 -35 -13 -50c8 -15 13 -32 13 -50s-5 -35 -13 -50c8 -15 13 -32 13 -50s-5 -35 -13 -50c8 -15 13 -32 13 -50zM500 450
c0 -18 -5 -35 -13 -50c8 -15 13 -32 13 -50c0 -56 -44 -100 -100 -100c0 -56 -44 -100 -100 -100s-100 44 -100 100s44 100 100 100c-56 0 -100 44 -100 100s44 100 100 100c18 0 35 -5 50 -13c15 8 32 13 50 13c56 0 100 -44 100 -100z" />
    <glyph glyph-name="N.ss03" horiz-adv-x="600" 
d="M587 400c8 -15 13 -32 13 -50s-5 -35 -13 -50c8 -15 13 -32 13 -50s-5 -35 -13 -50c8 -15 13 -32 13 -50s-5 -35 -13 -50c8 -15 13 -32 13 -50c0 -56 -44 -100 -100 -100s-100 44 -100 100c-56 0 -100 44 -100 100c-56 0 -100 44 -100 100c0 -18 -5 -35 -13 -50
c8 -15 13 -32 13 -50s-5 -35 -13 -50c8 -15 13 -32 13 -50c0 -56 -44 -100 -100 -100s-100 44 -100 100c0 18 5 35 13 50c-8 15 -13 32 -13 50s5 35 13 50c-8 15 -13 32 -13 50s5 35 13 50c-8 15 -13 32 -13 50s5 35 13 50c-8 15 -13 32 -13 50c0 56 44 100 100 100
s100 -44 100 -100c56 0 100 -44 100 -100c56 0 100 -44 100 -100c0 18 5 35 13 50c-8 15 -13 32 -13 50s5 35 13 50c-8 15 -13 32 -13 50c0 56 44 100 100 100s100 -44 100 -100c0 -18 -5 -35 -13 -50z" />
    <glyph glyph-name="Nacute.ss03" horiz-adv-x="600" 
d="M300 450c-56 0 -100 44 -100 100s44 100 100 100c0 56 44 100 100 100s100 -44 100 -100s-44 -100 -100 -100c0 -56 -44 -100 -100 -100zM587 400c8 -15 13 -32 13 -50s-5 -35 -13 -50c8 -15 13 -32 13 -50s-5 -35 -13 -50c8 -15 13 -32 13 -50s-5 -35 -13 -50
c8 -15 13 -32 13 -50c0 -56 -44 -100 -100 -100s-100 44 -100 100c-56 0 -100 44 -100 100c-56 0 -100 44 -100 100c0 -18 -5 -35 -13 -50c8 -15 13 -32 13 -50s-5 -35 -13 -50c8 -15 13 -32 13 -50c0 -56 -44 -100 -100 -100s-100 44 -100 100c0 18 5 35 13 50
c-8 15 -13 32 -13 50s5 35 13 50c-8 15 -13 32 -13 50s5 35 13 50c-8 15 -13 32 -13 50s5 35 13 50c-8 15 -13 32 -13 50c0 56 44 100 100 100s100 -44 100 -100c56 0 100 -44 100 -100c56 0 100 -44 100 -100c0 18 5 35 13 50c-8 15 -13 32 -13 50s5 35 13 50
c-8 15 -13 32 -13 50c0 56 44 100 100 100s100 -44 100 -100c0 -18 -5 -35 -13 -50z" />
    <glyph glyph-name="Ncaron.ss03" horiz-adv-x="600" 
d="M200 550c-56 0 -100 44 -100 100s44 100 100 100s100 -44 100 -100c0 56 44 100 100 100s100 -44 100 -100s-44 -100 -100 -100c0 -56 -44 -100 -100 -100s-100 44 -100 100zM587 400c8 -15 13 -32 13 -50s-5 -35 -13 -50c8 -15 13 -32 13 -50s-5 -35 -13 -50
c8 -15 13 -32 13 -50s-5 -35 -13 -50c8 -15 13 -32 13 -50c0 -56 -44 -100 -100 -100s-100 44 -100 100c-56 0 -100 44 -100 100c-56 0 -100 44 -100 100c0 -18 -5 -35 -13 -50c8 -15 13 -32 13 -50s-5 -35 -13 -50c8 -15 13 -32 13 -50c0 -56 -44 -100 -100 -100
s-100 44 -100 100c0 18 5 35 13 50c-8 15 -13 32 -13 50s5 35 13 50c-8 15 -13 32 -13 50s5 35 13 50c-8 15 -13 32 -13 50s5 35 13 50c-8 15 -13 32 -13 50c0 56 44 100 100 100s100 -44 100 -100c56 0 100 -44 100 -100c56 0 100 -44 100 -100c0 18 5 35 13 50
c-8 15 -13 32 -13 50s5 35 13 50c-8 15 -13 32 -13 50c0 56 44 100 100 100s100 -44 100 -100c0 -18 -5 -35 -13 -50z" />
    <glyph glyph-name="Eng.ss03" horiz-adv-x="600" 
d="M587 400c8 -15 13 -32 13 -50s-5 -35 -13 -50c8 -15 13 -32 13 -50s-5 -35 -13 -50c8 -15 13 -32 13 -50s-5 -35 -13 -50c8 -15 13 -32 13 -50s-5 -35 -13 -50c8 -15 13 -32 13 -50s-5 -35 -13 -50c8 -15 13 -32 13 -50c0 -56 -44 -100 -100 -100c-18 0 -35 5 -50 13
c-15 -8 -32 -13 -50 -13c-56 0 -100 44 -100 100s44 100 100 100c0 18 5 35 13 50c-8 15 -13 32 -13 50c-56 0 -100 44 -100 100c-56 0 -100 44 -100 100c0 -18 -5 -35 -13 -50c8 -15 13 -32 13 -50s-5 -35 -13 -50c8 -15 13 -32 13 -50c0 -56 -44 -100 -100 -100
s-100 44 -100 100c0 18 5 35 13 50c-8 15 -13 32 -13 50s5 35 13 50c-8 15 -13 32 -13 50s5 35 13 50c-8 15 -13 32 -13 50s5 35 13 50c-8 15 -13 32 -13 50c0 56 44 100 100 100s100 -44 100 -100c56 0 100 -44 100 -100c56 0 100 -44 100 -100c0 18 5 35 13 50
c-8 15 -13 32 -13 50s5 35 13 50c-8 15 -13 32 -13 50c0 56 44 100 100 100s100 -44 100 -100c0 -18 -5 -35 -13 -50z" />
    <glyph glyph-name="Ntilde.ss03" horiz-adv-x="600" 
d="M200 550c-56 0 -100 44 -100 100s44 100 100 100c0 56 44 100 100 100s100 -44 100 -100c0 56 44 100 100 100s100 -44 100 -100s-44 -100 -100 -100c0 -56 -44 -100 -100 -100s-100 44 -100 100c0 -56 -44 -100 -100 -100zM500 550c56 0 100 -44 100 -100
c0 -18 -5 -35 -13 -50c8 -15 13 -32 13 -50s-5 -35 -13 -50c8 -15 13 -32 13 -50s-5 -35 -13 -50c8 -15 13 -32 13 -50s-5 -35 -13 -50c8 -15 13 -32 13 -50c0 -56 -44 -100 -100 -100s-100 44 -100 100c-56 0 -100 44 -100 100c-56 0 -100 44 -100 100
c0 -18 -5 -35 -13 -50c8 -15 13 -32 13 -50s-5 -35 -13 -50c8 -15 13 -32 13 -50c0 -56 -44 -100 -100 -100s-100 44 -100 100c0 18 5 35 13 50c-8 15 -13 32 -13 50s5 35 13 50c-8 15 -13 32 -13 50s5 35 13 50c-8 15 -13 32 -13 50s5 35 13 50c-8 15 -13 32 -13 50
c0 56 44 100 100 100s100 -44 100 -100c56 0 100 -44 100 -100c56 0 100 -44 100 -100c0 18 5 35 13 50c-8 15 -13 32 -13 50s5 35 13 50c-8 15 -13 32 -13 50c0 56 44 100 100 100z" />
    <glyph glyph-name="O.ss03" horiz-adv-x="500" 
d="M487 300c8 -15 13 -32 13 -50s-5 -35 -13 -50c8 -15 13 -32 13 -50c0 -56 -44 -100 -100 -100c0 -56 -44 -100 -100 -100c-18 0 -35 5 -50 13c-15 -8 -32 -13 -50 -13c-56 0 -100 44 -100 100c-56 0 -100 44 -100 100c0 18 5 35 13 50c-8 15 -13 32 -13 50s5 35 13 50
c-8 15 -13 32 -13 50c0 56 44 100 100 100c0 56 44 100 100 100c18 0 35 -5 50 -13c15 8 32 13 50 13c56 0 100 -44 100 -100c56 0 100 -44 100 -100c0 -18 -5 -35 -13 -50zM250 137c15 8 32 13 50 13c0 18 5 35 13 50c-8 15 -13 32 -13 50s5 35 13 50c-8 15 -13 32 -13 50
c-18 0 -35 5 -50 13c-15 -8 -32 -13 -50 -13c0 -18 -5 -35 -13 -50c8 -15 13 -32 13 -50s-5 -35 -13 -50c8 -15 13 -32 13 -50c18 0 35 -5 50 -13z" />
    <glyph glyph-name="Oacute.ss03" horiz-adv-x="500" 
d="M300 650c0 -56 -44 -100 -100 -100s-100 44 -100 100s44 100 100 100c0 56 44 100 100 100s100 -44 100 -100s-44 -100 -100 -100zM487 300c8 -15 13 -32 13 -50s-5 -35 -13 -50c8 -15 13 -32 13 -50c0 -56 -44 -100 -100 -100c0 -56 -44 -100 -100 -100
c-18 0 -35 5 -50 13c-15 -8 -32 -13 -50 -13c-56 0 -100 44 -100 100c-56 0 -100 44 -100 100c0 18 5 35 13 50c-8 15 -13 32 -13 50s5 35 13 50c-8 15 -13 32 -13 50c0 56 44 100 100 100c0 56 44 100 100 100c18 0 35 -5 50 -13c15 8 32 13 50 13c56 0 100 -44 100 -100
c56 0 100 -44 100 -100c0 -18 -5 -35 -13 -50zM250 137c15 8 32 13 50 13c0 18 5 35 13 50c-8 15 -13 32 -13 50s5 35 13 50c-8 15 -13 32 -13 50c-18 0 -35 5 -50 13c-15 -8 -32 -13 -50 -13c0 -18 -5 -35 -13 -50c8 -15 13 -32 13 -50s-5 -35 -13 -50c8 -15 13 -32 13 -50
c18 0 35 -5 50 -13z" />
    <glyph glyph-name="Ocircumflex.ss03" horiz-adv-x="500" 
d="M400 650c0 -56 -44 -100 -100 -100s-100 44 -100 100c0 -56 -44 -100 -100 -100s-100 44 -100 100s44 100 100 100c0 56 44 100 100 100s100 -44 100 -100c56 0 100 -44 100 -100zM487 300c8 -15 13 -32 13 -50s-5 -35 -13 -50c8 -15 13 -32 13 -50
c0 -56 -44 -100 -100 -100c0 -56 -44 -100 -100 -100c-18 0 -35 5 -50 13c-15 -8 -32 -13 -50 -13c-56 0 -100 44 -100 100c-56 0 -100 44 -100 100c0 18 5 35 13 50c-8 15 -13 32 -13 50s5 35 13 50c-8 15 -13 32 -13 50c0 56 44 100 100 100c0 56 44 100 100 100
c18 0 35 -5 50 -13c15 8 32 13 50 13c56 0 100 -44 100 -100c56 0 100 -44 100 -100c0 -18 -5 -35 -13 -50zM250 137c15 8 32 13 50 13c0 18 5 35 13 50c-8 15 -13 32 -13 50s5 35 13 50c-8 15 -13 32 -13 50c-18 0 -35 5 -50 13c-15 -8 -32 -13 -50 -13
c0 -18 -5 -35 -13 -50c8 -15 13 -32 13 -50s-5 -35 -13 -50c8 -15 13 -32 13 -50c18 0 35 -5 50 -13z" />
    <glyph glyph-name="Odieresis.ss03" horiz-adv-x="500" 
d="M100 750c56 0 100 -44 100 -100s-44 -100 -100 -100s-100 44 -100 100s44 100 100 100zM400 650c0 -56 -44 -100 -100 -100s-100 44 -100 100s44 100 100 100s100 -44 100 -100zM487 300c8 -15 13 -32 13 -50s-5 -35 -13 -50c8 -15 13 -32 13 -50
c0 -56 -44 -100 -100 -100c0 -56 -44 -100 -100 -100c-18 0 -35 5 -50 13c-15 -8 -32 -13 -50 -13c-56 0 -100 44 -100 100c-56 0 -100 44 -100 100c0 18 5 35 13 50c-8 15 -13 32 -13 50s5 35 13 50c-8 15 -13 32 -13 50c0 56 44 100 100 100c0 56 44 100 100 100
c18 0 35 -5 50 -13c15 8 32 13 50 13c56 0 100 -44 100 -100c56 0 100 -44 100 -100c0 -18 -5 -35 -13 -50zM250 137c15 8 32 13 50 13c0 18 5 35 13 50c-8 15 -13 32 -13 50s5 35 13 50c-8 15 -13 32 -13 50c-18 0 -35 5 -50 13c-15 -8 -32 -13 -50 -13
c0 -18 -5 -35 -13 -50c8 -15 13 -32 13 -50s-5 -35 -13 -50c8 -15 13 -32 13 -50c18 0 35 -5 50 -13z" />
    <glyph glyph-name="Ograve.ss03" horiz-adv-x="500" 
d="M400 650c0 -56 -44 -100 -100 -100s-100 44 -100 100c-56 0 -100 44 -100 100s44 100 100 100s100 -44 100 -100c56 0 100 -44 100 -100zM487 300c8 -15 13 -32 13 -50s-5 -35 -13 -50c8 -15 13 -32 13 -50c0 -56 -44 -100 -100 -100c0 -56 -44 -100 -100 -100
c-18 0 -35 5 -50 13c-15 -8 -32 -13 -50 -13c-56 0 -100 44 -100 100c-56 0 -100 44 -100 100c0 18 5 35 13 50c-8 15 -13 32 -13 50s5 35 13 50c-8 15 -13 32 -13 50c0 56 44 100 100 100c0 56 44 100 100 100c18 0 35 -5 50 -13c15 8 32 13 50 13c56 0 100 -44 100 -100
c56 0 100 -44 100 -100c0 -18 -5 -35 -13 -50zM250 137c15 8 32 13 50 13c0 18 5 35 13 50c-8 15 -13 32 -13 50s5 35 13 50c-8 15 -13 32 -13 50c-18 0 -35 5 -50 13c-15 -8 -32 -13 -50 -13c0 -18 -5 -35 -13 -50c8 -15 13 -32 13 -50s-5 -35 -13 -50c8 -15 13 -32 13 -50
c18 0 35 -5 50 -13z" />
    <glyph glyph-name="Ohungarumlaut.ss03" horiz-adv-x="500" 
d="M400 650c0 -56 -44 -100 -100 -100s-100 44 -100 100c0 -56 -44 -100 -100 -100s-100 44 -100 100s44 100 100 100c0 56 44 100 100 100s100 -44 100 -100c0 56 44 100 100 100s100 -44 100 -100s-44 -100 -100 -100zM400 450c56 0 100 -44 100 -100
c0 -18 -5 -35 -13 -50c8 -15 13 -32 13 -50s-5 -35 -13 -50c8 -15 13 -32 13 -50c0 -56 -44 -100 -100 -100c0 -56 -44 -100 -100 -100c-18 0 -35 5 -50 13c-15 -8 -32 -13 -50 -13c-56 0 -100 44 -100 100c-56 0 -100 44 -100 100c0 18 5 35 13 50c-8 15 -13 32 -13 50
s5 35 13 50c-8 15 -13 32 -13 50c0 56 44 100 100 100c0 56 44 100 100 100c18 0 35 -5 50 -13c15 8 32 13 50 13c56 0 100 -44 100 -100zM250 137c15 8 32 13 50 13c0 18 5 35 13 50c-8 15 -13 32 -13 50s5 35 13 50c-8 15 -13 32 -13 50c-18 0 -35 5 -50 13
c-15 -8 -32 -13 -50 -13c0 -18 -5 -35 -13 -50c8 -15 13 -32 13 -50s-5 -35 -13 -50c8 -15 13 -32 13 -50c18 0 35 -5 50 -13z" />
    <glyph glyph-name="Omacron.ss03" horiz-adv-x="500" 
d="M300 550c-18 0 -35 5 -50 13c-15 -8 -32 -13 -50 -13s-35 5 -50 13c-15 -8 -32 -13 -50 -13c-56 0 -100 44 -100 100s44 100 100 100c18 0 35 -5 50 -13c15 8 32 13 50 13s35 -5 50 -13c15 8 32 13 50 13c56 0 100 -44 100 -100s-44 -100 -100 -100zM487 300
c8 -15 13 -32 13 -50s-5 -35 -13 -50c8 -15 13 -32 13 -50c0 -56 -44 -100 -100 -100c0 -56 -44 -100 -100 -100c-18 0 -35 5 -50 13c-15 -8 -32 -13 -50 -13c-56 0 -100 44 -100 100c-56 0 -100 44 -100 100c0 18 5 35 13 50c-8 15 -13 32 -13 50s5 35 13 50
c-8 15 -13 32 -13 50c0 56 44 100 100 100c0 56 44 100 100 100c18 0 35 -5 50 -13c15 8 32 13 50 13c56 0 100 -44 100 -100c56 0 100 -44 100 -100c0 -18 -5 -35 -13 -50zM250 137c15 8 32 13 50 13c0 18 5 35 13 50c-8 15 -13 32 -13 50s5 35 13 50c-8 15 -13 32 -13 50
c-18 0 -35 5 -50 13c-15 -8 -32 -13 -50 -13c0 -18 -5 -35 -13 -50c8 -15 13 -32 13 -50s-5 -35 -13 -50c8 -15 13 -32 13 -50c18 0 35 -5 50 -13z" />
    <glyph glyph-name="Otilde.ss03" horiz-adv-x="500" 
d="M400 650c0 -56 -44 -100 -100 -100s-100 44 -100 100c0 -56 -44 -100 -100 -100s-100 44 -100 100s44 100 100 100c0 56 44 100 100 100s100 -44 100 -100c0 56 44 100 100 100s100 -44 100 -100s-44 -100 -100 -100zM400 450c56 0 100 -44 100 -100
c0 -18 -5 -35 -13 -50c8 -15 13 -32 13 -50s-5 -35 -13 -50c8 -15 13 -32 13 -50c0 -56 -44 -100 -100 -100c0 -56 -44 -100 -100 -100c-18 0 -35 5 -50 13c-15 -8 -32 -13 -50 -13c-56 0 -100 44 -100 100c-56 0 -100 44 -100 100c0 18 5 35 13 50c-8 15 -13 32 -13 50
s5 35 13 50c-8 15 -13 32 -13 50c0 56 44 100 100 100c0 56 44 100 100 100c18 0 35 -5 50 -13c15 8 32 13 50 13c56 0 100 -44 100 -100zM250 137c15 8 32 13 50 13c0 18 5 35 13 50c-8 15 -13 32 -13 50s5 35 13 50c-8 15 -13 32 -13 50c-18 0 -35 5 -50 13
c-15 -8 -32 -13 -50 -13c0 -18 -5 -35 -13 -50c8 -15 13 -32 13 -50s-5 -35 -13 -50c8 -15 13 -32 13 -50c18 0 35 -5 50 -13z" />
    <glyph glyph-name="OE.ss03" horiz-adv-x="700" 
d="M700 250c0 -56 -44 -100 -100 -100c-18 0 -35 5 -50 13c-15 -8 -32 -13 -50 -13c18 0 35 -5 50 -13c15 8 32 13 50 13c56 0 100 -44 100 -100s-44 -100 -100 -100c-18 0 -35 5 -50 13c-15 -8 -32 -13 -50 -13s-35 5 -50 13c-15 -8 -32 -13 -50 -13s-35 5 -50 13
c-15 -8 -32 -13 -50 -13s-35 5 -50 13c-15 -8 -32 -13 -50 -13c-56 0 -100 44 -100 100c-56 0 -100 44 -100 100c0 18 5 35 13 50c-8 15 -13 32 -13 50s5 35 13 50c-8 15 -13 32 -13 50c0 56 44 100 100 100c0 56 44 100 100 100c18 0 35 -5 50 -13c15 8 32 13 50 13
s35 -5 50 -13c15 8 32 13 50 13s35 -5 50 -13c15 8 32 13 50 13s35 -5 50 -13c15 8 32 13 50 13c56 0 100 -44 100 -100s-44 -100 -100 -100c-18 0 -35 5 -50 13c-15 -8 -32 -13 -50 -13c18 0 35 -5 50 -13c15 8 32 13 50 13c56 0 100 -44 100 -100zM250 363
c-15 -8 -32 -13 -50 -13c0 -18 -5 -35 -13 -50c8 -15 13 -32 13 -50s-5 -35 -13 -50c8 -15 13 -32 13 -50c18 0 35 -5 50 -13c15 8 32 13 50 13c0 18 5 35 13 50c-8 15 -13 32 -13 50s5 35 13 50c-8 15 -13 32 -13 50c-18 0 -35 5 -50 13z" />
    <glyph glyph-name="P.ss03" horiz-adv-x="500" 
d="M400 450c56 0 100 -44 100 -100s-44 -100 -100 -100c0 -56 -44 -100 -100 -100c-18 0 -35 5 -50 13c-15 -8 -32 -13 -50 -13c0 -18 -5 -35 -13 -50c8 -15 13 -32 13 -50c0 -56 -44 -100 -100 -100s-100 44 -100 100c0 18 5 35 13 50c-8 15 -13 32 -13 50s5 35 13 50
c-8 15 -13 32 -13 50s5 35 13 50c-8 15 -13 32 -13 50s5 35 13 50c-8 15 -13 32 -13 50c0 56 44 100 100 100c18 0 35 -5 50 -13c15 8 32 13 50 13s35 -5 50 -13c15 8 32 13 50 13c56 0 100 -44 100 -100zM250 337c15 8 32 13 50 13c-18 0 -35 5 -50 13
c-15 -8 -32 -13 -50 -13c18 0 35 -5 50 -13z" />
    <glyph glyph-name="Thorn.ss03" horiz-adv-x="500" 
d="M400 350c56 0 100 -44 100 -100s-44 -100 -100 -100c0 -56 -44 -100 -100 -100c-18 0 -35 5 -50 13c-15 -8 -32 -13 -50 -13c0 -56 -44 -100 -100 -100s-100 44 -100 100c0 18 5 35 13 50c-8 15 -13 32 -13 50s5 35 13 50c-8 15 -13 32 -13 50s5 35 13 50
c-8 15 -13 32 -13 50s5 35 13 50c-8 15 -13 32 -13 50c0 56 44 100 100 100s100 -44 100 -100c18 0 35 -5 50 -13c15 8 32 13 50 13c56 0 100 -44 100 -100zM250 237c15 8 32 13 50 13c-18 0 -35 5 -50 13c-15 -8 -32 -13 -50 -13c18 0 35 -5 50 -13z" />
    <glyph glyph-name="Q.ss03" horiz-adv-x="500" 
d="M500 250c0 -56 -44 -100 -100 -100c56 0 100 -44 100 -100s-44 -100 -100 -100s-100 44 -100 100c0 -56 -44 -100 -100 -100s-100 44 -100 100c-56 0 -100 44 -100 100c0 18 5 35 13 50c-8 15 -13 32 -13 50s5 35 13 50c-8 15 -13 32 -13 50c0 56 44 100 100 100
c0 56 44 100 100 100c18 0 35 -5 50 -13c15 8 32 13 50 13c56 0 100 -44 100 -100c56 0 100 -44 100 -100c0 -18 -5 -35 -13 -50c8 -15 13 -32 13 -50zM200 150c0 56 44 100 100 100c0 18 5 35 13 50c-8 15 -13 32 -13 50c-18 0 -35 5 -50 13c-15 -8 -32 -13 -50 -13
c0 -18 -5 -35 -13 -50c8 -15 13 -32 13 -50s-5 -35 -13 -50c8 -15 13 -32 13 -50z" />
    <glyph glyph-name="R.ss03" horiz-adv-x="500" 
d="M400 150c56 0 100 -44 100 -100s-44 -100 -100 -100s-100 44 -100 100c-56 0 -100 44 -100 100c0 -18 -5 -35 -13 -50c8 -15 13 -32 13 -50c0 -56 -44 -100 -100 -100s-100 44 -100 100c0 18 5 35 13 50c-8 15 -13 32 -13 50s5 35 13 50c-8 15 -13 32 -13 50s5 35 13 50
c-8 15 -13 32 -13 50s5 35 13 50c-8 15 -13 32 -13 50c0 56 44 100 100 100c18 0 35 -5 50 -13c15 8 32 13 50 13s35 -5 50 -13c15 8 32 13 50 13c56 0 100 -44 100 -100c56 0 100 -44 100 -100s-44 -100 -100 -100c0 -18 -5 -35 -13 -50c8 -15 13 -32 13 -50zM250 363
c-15 -8 -32 -13 -50 -13c18 0 35 -5 50 -13c15 8 32 13 50 13c-18 0 -35 5 -50 13z" />
    <glyph glyph-name="Racute.ss03" horiz-adv-x="500" 
d="M300 650c0 -56 -44 -100 -100 -100s-100 44 -100 100s44 100 100 100c0 56 44 100 100 100s100 -44 100 -100s-44 -100 -100 -100zM400 150c56 0 100 -44 100 -100s-44 -100 -100 -100s-100 44 -100 100c-56 0 -100 44 -100 100c0 -18 -5 -35 -13 -50
c8 -15 13 -32 13 -50c0 -56 -44 -100 -100 -100s-100 44 -100 100c0 18 5 35 13 50c-8 15 -13 32 -13 50s5 35 13 50c-8 15 -13 32 -13 50s5 35 13 50c-8 15 -13 32 -13 50s5 35 13 50c-8 15 -13 32 -13 50c0 56 44 100 100 100c18 0 35 -5 50 -13c15 8 32 13 50 13
s35 -5 50 -13c15 8 32 13 50 13c56 0 100 -44 100 -100c56 0 100 -44 100 -100s-44 -100 -100 -100c0 -18 -5 -35 -13 -50c8 -15 13 -32 13 -50zM250 363c-15 -8 -32 -13 -50 -13c18 0 35 -5 50 -13c15 8 32 13 50 13c-18 0 -35 5 -50 13z" />
    <glyph glyph-name="Rcaron.ss03" horiz-adv-x="500" 
d="M300 650c0 -56 -44 -100 -100 -100s-100 44 -100 100c-56 0 -100 44 -100 100s44 100 100 100s100 -44 100 -100c0 56 44 100 100 100s100 -44 100 -100s-44 -100 -100 -100zM400 150c56 0 100 -44 100 -100s-44 -100 -100 -100s-100 44 -100 100c-56 0 -100 44 -100 100
c0 -18 -5 -35 -13 -50c8 -15 13 -32 13 -50c0 -56 -44 -100 -100 -100s-100 44 -100 100c0 18 5 35 13 50c-8 15 -13 32 -13 50s5 35 13 50c-8 15 -13 32 -13 50s5 35 13 50c-8 15 -13 32 -13 50s5 35 13 50c-8 15 -13 32 -13 50c0 56 44 100 100 100c18 0 35 -5 50 -13
c15 8 32 13 50 13s35 -5 50 -13c15 8 32 13 50 13c56 0 100 -44 100 -100c56 0 100 -44 100 -100s-44 -100 -100 -100c0 -18 -5 -35 -13 -50c8 -15 13 -32 13 -50zM250 363c-15 -8 -32 -13 -50 -13c18 0 35 -5 50 -13c15 8 32 13 50 13c-18 0 -35 5 -50 13z" />
    <glyph glyph-name="S.ss03" horiz-adv-x="500" 
d="M400 250c56 0 100 -44 100 -100s-44 -100 -100 -100c0 -56 -44 -100 -100 -100c-18 0 -35 5 -50 13c-15 -8 -32 -13 -50 -13s-35 5 -50 13c-15 -8 -32 -13 -50 -13c-56 0 -100 44 -100 100s44 100 100 100c18 0 35 -5 50 -13c15 8 32 13 50 13s35 -5 50 -13
c15 8 32 13 50 13c-18 0 -35 5 -50 13c-15 -8 -32 -13 -50 -13c-56 0 -100 44 -100 100c-56 0 -100 44 -100 100s44 100 100 100c0 56 44 100 100 100c18 0 35 -5 50 -13c15 8 32 13 50 13s35 -5 50 -13c15 8 32 13 50 13c56 0 100 -44 100 -100s-44 -100 -100 -100
c-18 0 -35 5 -50 13c-15 -8 -32 -13 -50 -13s-35 5 -50 13c-15 -8 -32 -13 -50 -13c18 0 35 -5 50 -13c15 8 32 13 50 13c56 0 100 -44 100 -100z" />
    <glyph glyph-name="Sacute.ss03" horiz-adv-x="500" 
d="M400 650c0 -56 -44 -100 -100 -100s-100 44 -100 100s44 100 100 100c0 56 44 100 100 100s100 -44 100 -100s-44 -100 -100 -100zM400 350c-18 0 -35 5 -50 13c-15 -8 -32 -13 -50 -13s-35 5 -50 13c-15 -8 -32 -13 -50 -13c18 0 35 -5 50 -13c15 8 32 13 50 13
c56 0 100 -44 100 -100c56 0 100 -44 100 -100s-44 -100 -100 -100c0 -56 -44 -100 -100 -100c-18 0 -35 5 -50 13c-15 -8 -32 -13 -50 -13s-35 5 -50 13c-15 -8 -32 -13 -50 -13c-56 0 -100 44 -100 100s44 100 100 100c18 0 35 -5 50 -13c15 8 32 13 50 13s35 -5 50 -13
c15 8 32 13 50 13c-18 0 -35 5 -50 13c-15 -8 -32 -13 -50 -13c-56 0 -100 44 -100 100c-56 0 -100 44 -100 100s44 100 100 100c0 56 44 100 100 100c18 0 35 -5 50 -13c15 8 32 13 50 13s35 -5 50 -13c15 8 32 13 50 13c56 0 100 -44 100 -100s-44 -100 -100 -100z" />
    <glyph glyph-name="Scaron.ss03" horiz-adv-x="500" 
d="M400 650c0 -56 -44 -100 -100 -100s-100 44 -100 100c-56 0 -100 44 -100 100s44 100 100 100s100 -44 100 -100c0 56 44 100 100 100s100 -44 100 -100s-44 -100 -100 -100zM400 350c-18 0 -35 5 -50 13c-15 -8 -32 -13 -50 -13s-35 5 -50 13c-15 -8 -32 -13 -50 -13
c18 0 35 -5 50 -13c15 8 32 13 50 13c56 0 100 -44 100 -100c56 0 100 -44 100 -100s-44 -100 -100 -100c0 -56 -44 -100 -100 -100c-18 0 -35 5 -50 13c-15 -8 -32 -13 -50 -13s-35 5 -50 13c-15 -8 -32 -13 -50 -13c-56 0 -100 44 -100 100s44 100 100 100
c18 0 35 -5 50 -13c15 8 32 13 50 13s35 -5 50 -13c15 8 32 13 50 13c-18 0 -35 5 -50 13c-15 -8 -32 -13 -50 -13c-56 0 -100 44 -100 100c-56 0 -100 44 -100 100s44 100 100 100c0 56 44 100 100 100c18 0 35 -5 50 -13c15 8 32 13 50 13s35 -5 50 -13c15 8 32 13 50 13
c56 0 100 -44 100 -100s-44 -100 -100 -100z" />
    <glyph glyph-name="Scedilla.ss03" horiz-adv-x="500" 
d="M400 250c56 0 100 -44 100 -100s-44 -100 -100 -100c0 -18 -5 -35 -13 -50c8 -15 13 -32 13 -50s-5 -35 -13 -50c8 -15 13 -32 13 -50c0 -56 -44 -100 -100 -100c-18 0 -35 5 -50 13c-15 -8 -32 -13 -50 -13c-56 0 -100 44 -100 100s44 100 100 100c-18 0 -35 5 -50 13
c-15 -8 -32 -13 -50 -13c-56 0 -100 44 -100 100s44 100 100 100c18 0 35 -5 50 -13c15 8 32 13 50 13s35 -5 50 -13c15 8 32 13 50 13c-18 0 -35 5 -50 13c-15 -8 -32 -13 -50 -13c-56 0 -100 44 -100 100c-56 0 -100 44 -100 100s44 100 100 100c0 56 44 100 100 100
c18 0 35 -5 50 -13c15 8 32 13 50 13s35 -5 50 -13c15 8 32 13 50 13c56 0 100 -44 100 -100s-44 -100 -100 -100c-18 0 -35 5 -50 13c-15 -8 -32 -13 -50 -13s-35 5 -50 13c-15 -8 -32 -13 -50 -13c18 0 35 -5 50 -13c15 8 32 13 50 13c56 0 100 -44 100 -100z" />
    <glyph glyph-name="uni0218.ss03" horiz-adv-x="500" 
d="M400 250c56 0 100 -44 100 -100s-44 -100 -100 -100c0 -56 -44 -100 -100 -100c-18 0 -35 5 -50 13c-15 -8 -32 -13 -50 -13s-35 5 -50 13c-15 -8 -32 -13 -50 -13c-56 0 -100 44 -100 100s44 100 100 100c18 0 35 -5 50 -13c15 8 32 13 50 13s35 -5 50 -13
c15 8 32 13 50 13c-18 0 -35 5 -50 13c-15 -8 -32 -13 -50 -13c-56 0 -100 44 -100 100c-56 0 -100 44 -100 100s44 100 100 100c0 56 44 100 100 100c18 0 35 -5 50 -13c15 8 32 13 50 13s35 -5 50 -13c15 8 32 13 50 13c56 0 100 -44 100 -100s-44 -100 -100 -100
c-18 0 -35 5 -50 13c-15 -8 -32 -13 -50 -13s-35 5 -50 13c-15 -8 -32 -13 -50 -13c18 0 35 -5 50 -13c15 8 32 13 50 13c56 0 100 -44 100 -100zM200 -50c18 0 35 -5 50 -13c15 8 32 13 50 13c56 0 100 -44 100 -100c0 -18 -5 -35 -13 -50c8 -15 13 -32 13 -50
c0 -56 -44 -100 -100 -100c0 -56 -44 -100 -100 -100s-100 44 -100 100s44 100 100 100c-56 0 -100 44 -100 100s44 100 100 100z" />
    <glyph glyph-name="U.ss03" horiz-adv-x="500" 
d="M487 400c8 -15 13 -32 13 -50s-5 -35 -13 -50c8 -15 13 -32 13 -50s-5 -35 -13 -50c8 -15 13 -32 13 -50c0 -56 -44 -100 -100 -100c0 -56 -44 -100 -100 -100c-18 0 -35 5 -50 13c-15 -8 -32 -13 -50 -13c-56 0 -100 44 -100 100c-56 0 -100 44 -100 100
c0 18 5 35 13 50c-8 15 -13 32 -13 50s5 35 13 50c-8 15 -13 32 -13 50s5 35 13 50c-8 15 -13 32 -13 50c0 56 44 100 100 100s100 -44 100 -100c0 -18 -5 -35 -13 -50c8 -15 13 -32 13 -50s-5 -35 -13 -50c8 -15 13 -32 13 -50s-5 -35 -13 -50c8 -15 13 -32 13 -50
c18 0 35 -5 50 -13c15 8 32 13 50 13c0 18 5 35 13 50c-8 15 -13 32 -13 50s5 35 13 50c-8 15 -13 32 -13 50s5 35 13 50c-8 15 -13 32 -13 50c0 56 44 100 100 100s100 -44 100 -100c0 -18 -5 -35 -13 -50z" />
    <glyph glyph-name="Uacute.ss03" horiz-adv-x="500" 
d="M200 550c-56 0 -100 44 -100 100s44 100 100 100c0 56 44 100 100 100s100 -44 100 -100s-44 -100 -100 -100c0 -56 -44 -100 -100 -100zM487 400c8 -15 13 -32 13 -50s-5 -35 -13 -50c8 -15 13 -32 13 -50s-5 -35 -13 -50c8 -15 13 -32 13 -50c0 -56 -44 -100 -100 -100
c0 -56 -44 -100 -100 -100c-18 0 -35 5 -50 13c-15 -8 -32 -13 -50 -13c-56 0 -100 44 -100 100c-56 0 -100 44 -100 100c0 18 5 35 13 50c-8 15 -13 32 -13 50s5 35 13 50c-8 15 -13 32 -13 50s5 35 13 50c-8 15 -13 32 -13 50c0 56 44 100 100 100s100 -44 100 -100
c0 -18 -5 -35 -13 -50c8 -15 13 -32 13 -50s-5 -35 -13 -50c8 -15 13 -32 13 -50s-5 -35 -13 -50c8 -15 13 -32 13 -50c18 0 35 -5 50 -13c15 8 32 13 50 13c0 18 5 35 13 50c-8 15 -13 32 -13 50s5 35 13 50c-8 15 -13 32 -13 50s5 35 13 50c-8 15 -13 32 -13 50
c0 56 44 100 100 100s100 -44 100 -100c0 -18 -5 -35 -13 -50z" />
    <glyph glyph-name="Ucircumflex.ss03" horiz-adv-x="500" 
d="M200 650c0 -56 -44 -100 -100 -100s-100 44 -100 100s44 100 100 100c0 56 44 100 100 100s100 -44 100 -100c56 0 100 -44 100 -100s-44 -100 -100 -100s-100 44 -100 100zM487 400c8 -15 13 -32 13 -50s-5 -35 -13 -50c8 -15 13 -32 13 -50s-5 -35 -13 -50
c8 -15 13 -32 13 -50c0 -56 -44 -100 -100 -100c0 -56 -44 -100 -100 -100c-18 0 -35 5 -50 13c-15 -8 -32 -13 -50 -13c-56 0 -100 44 -100 100c-56 0 -100 44 -100 100c0 18 5 35 13 50c-8 15 -13 32 -13 50s5 35 13 50c-8 15 -13 32 -13 50s5 35 13 50
c-8 15 -13 32 -13 50c0 56 44 100 100 100s100 -44 100 -100c0 -18 -5 -35 -13 -50c8 -15 13 -32 13 -50s-5 -35 -13 -50c8 -15 13 -32 13 -50s-5 -35 -13 -50c8 -15 13 -32 13 -50c18 0 35 -5 50 -13c15 8 32 13 50 13c0 18 5 35 13 50c-8 15 -13 32 -13 50s5 35 13 50
c-8 15 -13 32 -13 50s5 35 13 50c-8 15 -13 32 -13 50c0 56 44 100 100 100s100 -44 100 -100c0 -18 -5 -35 -13 -50z" />
    <glyph glyph-name="Udieresis.ss03" horiz-adv-x="500" 
d="M200 650c0 -56 -44 -100 -100 -100s-100 44 -100 100s44 100 100 100s100 -44 100 -100zM300 550c-56 0 -100 44 -100 100s44 100 100 100s100 -44 100 -100s-44 -100 -100 -100zM487 400c8 -15 13 -32 13 -50s-5 -35 -13 -50c8 -15 13 -32 13 -50s-5 -35 -13 -50
c8 -15 13 -32 13 -50c0 -56 -44 -100 -100 -100c0 -56 -44 -100 -100 -100c-18 0 -35 5 -50 13c-15 -8 -32 -13 -50 -13c-56 0 -100 44 -100 100c-56 0 -100 44 -100 100c0 18 5 35 13 50c-8 15 -13 32 -13 50s5 35 13 50c-8 15 -13 32 -13 50s5 35 13 50
c-8 15 -13 32 -13 50c0 56 44 100 100 100s100 -44 100 -100c0 -18 -5 -35 -13 -50c8 -15 13 -32 13 -50s-5 -35 -13 -50c8 -15 13 -32 13 -50s-5 -35 -13 -50c8 -15 13 -32 13 -50c18 0 35 -5 50 -13c15 8 32 13 50 13c0 18 5 35 13 50c-8 15 -13 32 -13 50s5 35 13 50
c-8 15 -13 32 -13 50s5 35 13 50c-8 15 -13 32 -13 50c0 56 44 100 100 100s100 -44 100 -100c0 -18 -5 -35 -13 -50z" />
    <glyph glyph-name="Ugrave.ss03" horiz-adv-x="500" 
d="M200 650c-56 0 -100 44 -100 100s44 100 100 100s100 -44 100 -100c56 0 100 -44 100 -100s-44 -100 -100 -100s-100 44 -100 100zM487 400c8 -15 13 -32 13 -50s-5 -35 -13 -50c8 -15 13 -32 13 -50s-5 -35 -13 -50c8 -15 13 -32 13 -50c0 -56 -44 -100 -100 -100
c0 -56 -44 -100 -100 -100c-18 0 -35 5 -50 13c-15 -8 -32 -13 -50 -13c-56 0 -100 44 -100 100c-56 0 -100 44 -100 100c0 18 5 35 13 50c-8 15 -13 32 -13 50s5 35 13 50c-8 15 -13 32 -13 50s5 35 13 50c-8 15 -13 32 -13 50c0 56 44 100 100 100s100 -44 100 -100
c0 -18 -5 -35 -13 -50c8 -15 13 -32 13 -50s-5 -35 -13 -50c8 -15 13 -32 13 -50s-5 -35 -13 -50c8 -15 13 -32 13 -50c18 0 35 -5 50 -13c15 8 32 13 50 13c0 18 5 35 13 50c-8 15 -13 32 -13 50s5 35 13 50c-8 15 -13 32 -13 50s5 35 13 50c-8 15 -13 32 -13 50
c0 56 44 100 100 100s100 -44 100 -100c0 -18 -5 -35 -13 -50z" />
    <glyph glyph-name="Uhungarumlaut.ss03" horiz-adv-x="500" 
d="M200 650c0 -56 -44 -100 -100 -100s-100 44 -100 100s44 100 100 100c0 56 44 100 100 100s100 -44 100 -100c0 56 44 100 100 100s100 -44 100 -100s-44 -100 -100 -100c0 -56 -44 -100 -100 -100s-100 44 -100 100zM400 550c56 0 100 -44 100 -100
c0 -18 -5 -35 -13 -50c8 -15 13 -32 13 -50s-5 -35 -13 -50c8 -15 13 -32 13 -50s-5 -35 -13 -50c8 -15 13 -32 13 -50c0 -56 -44 -100 -100 -100c0 -56 -44 -100 -100 -100c-18 0 -35 5 -50 13c-15 -8 -32 -13 -50 -13c-56 0 -100 44 -100 100c-56 0 -100 44 -100 100
c0 18 5 35 13 50c-8 15 -13 32 -13 50s5 35 13 50c-8 15 -13 32 -13 50s5 35 13 50c-8 15 -13 32 -13 50c0 56 44 100 100 100s100 -44 100 -100c0 -18 -5 -35 -13 -50c8 -15 13 -32 13 -50s-5 -35 -13 -50c8 -15 13 -32 13 -50s-5 -35 -13 -50c8 -15 13 -32 13 -50
c18 0 35 -5 50 -13c15 8 32 13 50 13c0 18 5 35 13 50c-8 15 -13 32 -13 50s5 35 13 50c-8 15 -13 32 -13 50s5 35 13 50c-8 15 -13 32 -13 50c0 56 44 100 100 100z" />
    <glyph glyph-name="Umacron.ss03" horiz-adv-x="500" 
d="M200 550c-18 0 -35 5 -50 13c-15 -8 -32 -13 -50 -13c-56 0 -100 44 -100 100s44 100 100 100c18 0 35 -5 50 -13c15 8 32 13 50 13s35 -5 50 -13c15 8 32 13 50 13c56 0 100 -44 100 -100s-44 -100 -100 -100c-18 0 -35 5 -50 13c-15 -8 -32 -13 -50 -13zM487 400
c8 -15 13 -32 13 -50s-5 -35 -13 -50c8 -15 13 -32 13 -50s-5 -35 -13 -50c8 -15 13 -32 13 -50c0 -56 -44 -100 -100 -100c0 -56 -44 -100 -100 -100c-18 0 -35 5 -50 13c-15 -8 -32 -13 -50 -13c-56 0 -100 44 -100 100c-56 0 -100 44 -100 100c0 18 5 35 13 50
c-8 15 -13 32 -13 50s5 35 13 50c-8 15 -13 32 -13 50s5 35 13 50c-8 15 -13 32 -13 50c0 56 44 100 100 100s100 -44 100 -100c0 -18 -5 -35 -13 -50c8 -15 13 -32 13 -50s-5 -35 -13 -50c8 -15 13 -32 13 -50s-5 -35 -13 -50c8 -15 13 -32 13 -50c18 0 35 -5 50 -13
c15 8 32 13 50 13c0 18 5 35 13 50c-8 15 -13 32 -13 50s5 35 13 50c-8 15 -13 32 -13 50s5 35 13 50c-8 15 -13 32 -13 50c0 56 44 100 100 100s100 -44 100 -100c0 -18 -5 -35 -13 -50z" />
    <glyph glyph-name="Uogonek.ss03" horiz-adv-x="500" 
d="M487 400c8 -15 13 -32 13 -50s-5 -35 -13 -50c8 -15 13 -32 13 -50s-5 -35 -13 -50c8 -15 13 -32 13 -50c0 -56 -44 -100 -100 -100c0 -18 -5 -35 -13 -50c8 -15 13 -32 13 -50c56 0 100 -44 100 -100s-44 -100 -100 -100c-18 0 -35 5 -50 13c-15 -8 -32 -13 -50 -13
c-56 0 -100 44 -100 100c0 18 5 35 13 50c-8 15 -13 32 -13 50c-56 0 -100 44 -100 100c-56 0 -100 44 -100 100c0 18 5 35 13 50c-8 15 -13 32 -13 50s5 35 13 50c-8 15 -13 32 -13 50s5 35 13 50c-8 15 -13 32 -13 50c0 56 44 100 100 100s100 -44 100 -100
c0 -18 -5 -35 -13 -50c8 -15 13 -32 13 -50s-5 -35 -13 -50c8 -15 13 -32 13 -50s-5 -35 -13 -50c8 -15 13 -32 13 -50c18 0 35 -5 50 -13c15 8 32 13 50 13c0 18 5 35 13 50c-8 15 -13 32 -13 50s5 35 13 50c-8 15 -13 32 -13 50s5 35 13 50c-8 15 -13 32 -13 50
c0 56 44 100 100 100s100 -44 100 -100c0 -18 -5 -35 -13 -50z" />
    <glyph glyph-name="Uring.ss03" horiz-adv-x="500" 
d="M487 400c8 -15 13 -32 13 -50s-5 -35 -13 -50c8 -15 13 -32 13 -50s-5 -35 -13 -50c8 -15 13 -32 13 -50c0 -56 -44 -100 -100 -100c0 -56 -44 -100 -100 -100c-18 0 -35 5 -50 13c-15 -8 -32 -13 -50 -13c-56 0 -100 44 -100 100c-56 0 -100 44 -100 100
c0 18 5 35 13 50c-8 15 -13 32 -13 50s5 35 13 50c-8 15 -13 32 -13 50s5 35 13 50c-8 15 -13 32 -13 50c0 56 44 100 100 100c-56 0 -100 44 -100 100s44 100 100 100c0 56 44 100 100 100s100 -44 100 -100c56 0 100 -44 100 -100s-44 -100 -100 -100
c0 -56 -44 -100 -100 -100c0 -18 -5 -35 -13 -50c8 -15 13 -32 13 -50s-5 -35 -13 -50c8 -15 13 -32 13 -50s-5 -35 -13 -50c8 -15 13 -32 13 -50c18 0 35 -5 50 -13c15 8 32 13 50 13c0 18 5 35 13 50c-8 15 -13 32 -13 50s5 35 13 50c-8 15 -13 32 -13 50s5 35 13 50
c-8 15 -13 32 -13 50c0 56 44 100 100 100s100 -44 100 -100c0 -18 -5 -35 -13 -50z" />
    <glyph glyph-name="V.ss03" horiz-adv-x="500" 
d="M500 450c0 -18 -5 -35 -13 -50c8 -15 13 -32 13 -50c0 -56 -44 -100 -100 -100c0 -18 -5 -35 -13 -50c8 -15 13 -32 13 -50c0 -56 -44 -100 -100 -100c0 -56 -44 -100 -100 -100s-100 44 -100 100c-56 0 -100 44 -100 100c0 18 5 35 13 50c-8 15 -13 32 -13 50
s5 35 13 50c-8 15 -13 32 -13 50s5 35 13 50c-8 15 -13 32 -13 50c0 56 44 100 100 100s100 -44 100 -100c0 -18 -5 -35 -13 -50c8 -15 13 -32 13 -50s-5 -35 -13 -50c8 -15 13 -32 13 -50s-5 -35 -13 -50c8 -15 13 -32 13 -50c0 18 5 35 13 50c-8 15 -13 32 -13 50
c0 56 44 100 100 100c0 18 5 35 13 50c-8 15 -13 32 -13 50c0 56 44 100 100 100s100 -44 100 -100z" />
    <glyph glyph-name="X.ss03" horiz-adv-x="600" 
d="M500 150c56 0 100 -44 100 -100s-44 -100 -100 -100s-100 44 -100 100c-56 0 -100 44 -100 100c0 -56 -44 -100 -100 -100c0 -56 -44 -100 -100 -100s-100 44 -100 100s44 100 100 100c0 56 44 100 100 100c-56 0 -100 44 -100 100c-56 0 -100 44 -100 100
s44 100 100 100s100 -44 100 -100c56 0 100 -44 100 -100c0 56 44 100 100 100c0 56 44 100 100 100s100 -44 100 -100s-44 -100 -100 -100c0 -56 -44 -100 -100 -100c56 0 100 -44 100 -100z" />
    <glyph glyph-name="Y.ss03" horiz-adv-x="600" 
d="M500 550c56 0 100 -44 100 -100s-44 -100 -100 -100c0 -56 -44 -100 -100 -100c0 -18 -5 -35 -13 -50c8 -15 13 -32 13 -50s-5 -35 -13 -50c8 -15 13 -32 13 -50c0 -56 -44 -100 -100 -100s-100 44 -100 100c0 18 5 35 13 50c-8 15 -13 32 -13 50s5 35 13 50
c-8 15 -13 32 -13 50c-56 0 -100 44 -100 100c-56 0 -100 44 -100 100s44 100 100 100s100 -44 100 -100c56 0 100 -44 100 -100c0 56 44 100 100 100c0 56 44 100 100 100z" />
    <glyph glyph-name="Yacute.ss03" horiz-adv-x="600" 
d="M300 450c-56 0 -100 44 -100 100s44 100 100 100c0 56 44 100 100 100s100 -44 100 -100s-44 -100 -100 -100c0 -56 -44 -100 -100 -100zM500 550c56 0 100 -44 100 -100s-44 -100 -100 -100c0 -56 -44 -100 -100 -100c0 -18 -5 -35 -13 -50c8 -15 13 -32 13 -50
s-5 -35 -13 -50c8 -15 13 -32 13 -50c0 -56 -44 -100 -100 -100s-100 44 -100 100c0 18 5 35 13 50c-8 15 -13 32 -13 50s5 35 13 50c-8 15 -13 32 -13 50c-56 0 -100 44 -100 100c-56 0 -100 44 -100 100s44 100 100 100s100 -44 100 -100c56 0 100 -44 100 -100
c0 56 44 100 100 100c0 56 44 100 100 100z" />
    <glyph glyph-name="Ycircumflex.ss03" horiz-adv-x="600" 
d="M200 550c-56 0 -100 44 -100 100s44 100 100 100c0 56 44 100 100 100s100 -44 100 -100c56 0 100 -44 100 -100s-44 -100 -100 -100s-100 44 -100 100c0 -56 -44 -100 -100 -100zM500 550c56 0 100 -44 100 -100s-44 -100 -100 -100c0 -56 -44 -100 -100 -100
c0 -18 -5 -35 -13 -50c8 -15 13 -32 13 -50s-5 -35 -13 -50c8 -15 13 -32 13 -50c0 -56 -44 -100 -100 -100s-100 44 -100 100c0 18 5 35 13 50c-8 15 -13 32 -13 50s5 35 13 50c-8 15 -13 32 -13 50c-56 0 -100 44 -100 100c-56 0 -100 44 -100 100s44 100 100 100
s100 -44 100 -100c56 0 100 -44 100 -100c0 56 44 100 100 100c0 56 44 100 100 100z" />
    <glyph glyph-name="Ydieresis.ss03" horiz-adv-x="600" 
d="M200 550c-56 0 -100 44 -100 100s44 100 100 100s100 -44 100 -100s-44 -100 -100 -100zM400 550c-56 0 -100 44 -100 100s44 100 100 100s100 -44 100 -100s-44 -100 -100 -100zM500 550c56 0 100 -44 100 -100s-44 -100 -100 -100c0 -56 -44 -100 -100 -100
c0 -18 -5 -35 -13 -50c8 -15 13 -32 13 -50s-5 -35 -13 -50c8 -15 13 -32 13 -50c0 -56 -44 -100 -100 -100s-100 44 -100 100c0 18 5 35 13 50c-8 15 -13 32 -13 50s5 35 13 50c-8 15 -13 32 -13 50c-56 0 -100 44 -100 100c-56 0 -100 44 -100 100s44 100 100 100
s100 -44 100 -100c56 0 100 -44 100 -100c0 56 44 100 100 100c0 56 44 100 100 100z" />
    <glyph glyph-name="Ygrave.ss03" horiz-adv-x="600" 
d="M200 550c-56 0 -100 44 -100 100s44 100 100 100s100 -44 100 -100c56 0 100 -44 100 -100s-44 -100 -100 -100s-100 44 -100 100zM500 550c56 0 100 -44 100 -100s-44 -100 -100 -100c0 -56 -44 -100 -100 -100c0 -18 -5 -35 -13 -50c8 -15 13 -32 13 -50
s-5 -35 -13 -50c8 -15 13 -32 13 -50c0 -56 -44 -100 -100 -100s-100 44 -100 100c0 18 5 35 13 50c-8 15 -13 32 -13 50s5 35 13 50c-8 15 -13 32 -13 50c-56 0 -100 44 -100 100c-56 0 -100 44 -100 100s44 100 100 100s100 -44 100 -100c56 0 100 -44 100 -100
c0 56 44 100 100 100c0 56 44 100 100 100z" />
    <glyph glyph-name="Q.ss02.ss03" horiz-adv-x="500" 
d="M487 300c8 -15 13 -32 13 -50s-5 -35 -13 -50c8 -15 13 -32 13 -50c0 -56 -44 -100 -100 -100c56 0 100 -44 100 -100s-44 -100 -100 -100s-100 44 -100 100c-18 0 -35 5 -50 13c-15 -8 -32 -13 -50 -13c-56 0 -100 44 -100 100c-56 0 -100 44 -100 100c0 18 5 35 13 50
c-8 15 -13 32 -13 50s5 35 13 50c-8 15 -13 32 -13 50c0 56 44 100 100 100c0 56 44 100 100 100c18 0 35 -5 50 -13c15 8 32 13 50 13c56 0 100 -44 100 -100c56 0 100 -44 100 -100c0 -18 -5 -35 -13 -50zM250 363c-15 -8 -32 -13 -50 -13c0 -18 -5 -35 -13 -50
c8 -15 13 -32 13 -50s-5 -35 -13 -50c8 -15 13 -32 13 -50c18 0 35 -5 50 -13c15 8 32 13 50 13c0 18 5 35 13 50c-8 15 -13 32 -13 50s5 35 13 50c-8 15 -13 32 -13 50c-18 0 -35 5 -50 13z" />
    <glyph glyph-name="A.ss04" 
d="M387 400c8 -15 13 -32 13 -50s-5 -35 -13 -50c8 -15 13 -32 13 -50s-5 -35 -13 -50c8 -15 13 -32 13 -50s-5 -35 -13 -50c8 -15 13 -32 13 -50c0 -56 -44 -100 -100 -100s-100 44 -100 100c0 18 5 35 13 50c-8 15 -13 32 -13 50c0 -18 -5 -35 -13 -50
c8 -15 13 -32 13 -50c0 -56 -44 -100 -100 -100s-100 44 -100 100c0 18 5 35 13 50c-8 15 -13 32 -13 50s5 35 13 50c-8 15 -13 32 -13 50s5 35 13 50c-8 15 -13 32 -13 50s5 35 13 50c-8 15 -13 32 -13 50c0 56 44 100 100 100c18 0 35 -5 50 -13c15 8 32 13 50 13
s35 -5 50 -13c15 8 32 13 50 13c56 0 100 -44 100 -100c0 -18 -5 -35 -13 -50z" />
    <glyph glyph-name="Aacute.ss04" 
d="M300 650c0 -56 -44 -100 -100 -100s-100 44 -100 100s44 100 100 100c0 56 44 100 100 100s100 -44 100 -100s-44 -100 -100 -100zM300 550c56 0 100 -44 100 -100c0 -18 -5 -35 -13 -50c8 -15 13 -32 13 -50s-5 -35 -13 -50c8 -15 13 -32 13 -50s-5 -35 -13 -50
c8 -15 13 -32 13 -50s-5 -35 -13 -50c8 -15 13 -32 13 -50c0 -56 -44 -100 -100 -100s-100 44 -100 100c0 18 5 35 13 50c-8 15 -13 32 -13 50c0 -18 -5 -35 -13 -50c8 -15 13 -32 13 -50c0 -56 -44 -100 -100 -100s-100 44 -100 100c0 18 5 35 13 50c-8 15 -13 32 -13 50
s5 35 13 50c-8 15 -13 32 -13 50s5 35 13 50c-8 15 -13 32 -13 50s5 35 13 50c-8 15 -13 32 -13 50c0 56 44 100 100 100c18 0 35 -5 50 -13c15 8 32 13 50 13s35 -5 50 -13c15 8 32 13 50 13z" />
    <glyph glyph-name="Abreve.ss04" 
d="M400 650c0 -56 -44 -100 -100 -100c-18 0 -35 5 -50 13c-15 -8 -32 -13 -50 -13s-35 5 -50 13c-15 -8 -32 -13 -50 -13c-56 0 -100 44 -100 100c0 18 5 35 13 50c-8 15 -13 32 -13 50c0 56 44 100 100 100s100 -44 100 -100c0 56 44 100 100 100s100 -44 100 -100
c0 -18 -5 -35 -13 -50c8 -15 13 -32 13 -50zM200 550c18 0 35 -5 50 -13c15 8 32 13 50 13c56 0 100 -44 100 -100c0 -18 -5 -35 -13 -50c8 -15 13 -32 13 -50s-5 -35 -13 -50c8 -15 13 -32 13 -50s-5 -35 -13 -50c8 -15 13 -32 13 -50s-5 -35 -13 -50c8 -15 13 -32 13 -50
c0 -56 -44 -100 -100 -100s-100 44 -100 100c0 18 5 35 13 50c-8 15 -13 32 -13 50c0 -18 -5 -35 -13 -50c8 -15 13 -32 13 -50c0 -56 -44 -100 -100 -100s-100 44 -100 100c0 18 5 35 13 50c-8 15 -13 32 -13 50s5 35 13 50c-8 15 -13 32 -13 50s5 35 13 50
c-8 15 -13 32 -13 50s5 35 13 50c-8 15 -13 32 -13 50c0 56 44 100 100 100c18 0 35 -5 50 -13c15 8 32 13 50 13z" />
    <glyph glyph-name="Acircumflex.ss04" 
d="M200 650c0 -56 -44 -100 -100 -100s-100 44 -100 100s44 100 100 100c0 56 44 100 100 100s100 -44 100 -100c56 0 100 -44 100 -100s-44 -100 -100 -100s-100 44 -100 100zM300 550c56 0 100 -44 100 -100c0 -18 -5 -35 -13 -50c8 -15 13 -32 13 -50s-5 -35 -13 -50
c8 -15 13 -32 13 -50s-5 -35 -13 -50c8 -15 13 -32 13 -50s-5 -35 -13 -50c8 -15 13 -32 13 -50c0 -56 -44 -100 -100 -100s-100 44 -100 100c0 18 5 35 13 50c-8 15 -13 32 -13 50c0 -18 -5 -35 -13 -50c8 -15 13 -32 13 -50c0 -56 -44 -100 -100 -100s-100 44 -100 100
c0 18 5 35 13 50c-8 15 -13 32 -13 50s5 35 13 50c-8 15 -13 32 -13 50s5 35 13 50c-8 15 -13 32 -13 50s5 35 13 50c-8 15 -13 32 -13 50c0 56 44 100 100 100c18 0 35 -5 50 -13c15 8 32 13 50 13s35 -5 50 -13c15 8 32 13 50 13z" />
    <glyph glyph-name="Adieresis.ss04" 
d="M200 650c0 -56 -44 -100 -100 -100s-100 44 -100 100s44 100 100 100s100 -44 100 -100zM300 550c-56 0 -100 44 -100 100s44 100 100 100s100 -44 100 -100s-44 -100 -100 -100zM300 550c56 0 100 -44 100 -100c0 -18 -5 -35 -13 -50c8 -15 13 -32 13 -50
s-5 -35 -13 -50c8 -15 13 -32 13 -50s-5 -35 -13 -50c8 -15 13 -32 13 -50s-5 -35 -13 -50c8 -15 13 -32 13 -50c0 -56 -44 -100 -100 -100s-100 44 -100 100c0 18 5 35 13 50c-8 15 -13 32 -13 50c0 -18 -5 -35 -13 -50c8 -15 13 -32 13 -50c0 -56 -44 -100 -100 -100
s-100 44 -100 100c0 18 5 35 13 50c-8 15 -13 32 -13 50s5 35 13 50c-8 15 -13 32 -13 50s5 35 13 50c-8 15 -13 32 -13 50s5 35 13 50c-8 15 -13 32 -13 50c0 56 44 100 100 100c18 0 35 -5 50 -13c15 8 32 13 50 13s35 -5 50 -13c15 8 32 13 50 13z" />
    <glyph glyph-name="Agrave.ss04" 
d="M300 650c0 -56 -44 -100 -100 -100s-100 44 -100 100c-56 0 -100 44 -100 100s44 100 100 100s100 -44 100 -100c56 0 100 -44 100 -100zM387 400c8 -15 13 -32 13 -50s-5 -35 -13 -50c8 -15 13 -32 13 -50s-5 -35 -13 -50c8 -15 13 -32 13 -50s-5 -35 -13 -50
c8 -15 13 -32 13 -50c0 -56 -44 -100 -100 -100s-100 44 -100 100c0 18 5 35 13 50c-8 15 -13 32 -13 50c0 -18 -5 -35 -13 -50c8 -15 13 -32 13 -50c0 -56 -44 -100 -100 -100s-100 44 -100 100c0 18 5 35 13 50c-8 15 -13 32 -13 50s5 35 13 50c-8 15 -13 32 -13 50
s5 35 13 50c-8 15 -13 32 -13 50s5 35 13 50c-8 15 -13 32 -13 50c0 56 44 100 100 100c18 0 35 -5 50 -13c15 8 32 13 50 13s35 -5 50 -13c15 8 32 13 50 13c56 0 100 -44 100 -100c0 -18 -5 -35 -13 -50z" />
    <glyph glyph-name="Amacron.ss04" 
d="M200 550c-18 0 -35 5 -50 13c-15 -8 -32 -13 -50 -13c-56 0 -100 44 -100 100s44 100 100 100c18 0 35 -5 50 -13c15 8 32 13 50 13s35 -5 50 -13c15 8 32 13 50 13c56 0 100 -44 100 -100s-44 -100 -100 -100c-18 0 -35 5 -50 13c-15 -8 -32 -13 -50 -13zM300 550
c56 0 100 -44 100 -100c0 -18 -5 -35 -13 -50c8 -15 13 -32 13 -50s-5 -35 -13 -50c8 -15 13 -32 13 -50s-5 -35 -13 -50c8 -15 13 -32 13 -50s-5 -35 -13 -50c8 -15 13 -32 13 -50c0 -56 -44 -100 -100 -100s-100 44 -100 100c0 18 5 35 13 50c-8 15 -13 32 -13 50
c0 -18 -5 -35 -13 -50c8 -15 13 -32 13 -50c0 -56 -44 -100 -100 -100s-100 44 -100 100c0 18 5 35 13 50c-8 15 -13 32 -13 50s5 35 13 50c-8 15 -13 32 -13 50s5 35 13 50c-8 15 -13 32 -13 50s5 35 13 50c-8 15 -13 32 -13 50c0 56 44 100 100 100c18 0 35 -5 50 -13
c15 8 32 13 50 13s35 -5 50 -13c15 8 32 13 50 13z" />
    <glyph glyph-name="Aogonek.ss04" 
d="M387 400c8 -15 13 -32 13 -50s-5 -35 -13 -50c8 -15 13 -32 13 -50s-5 -35 -13 -50c8 -15 13 -32 13 -50s-5 -35 -13 -50c8 -15 13 -32 13 -50c0 -56 -44 -100 -100 -100c56 0 100 -44 100 -100s-44 -100 -100 -100c-18 0 -35 5 -50 13c-15 -8 -32 -13 -50 -13
c-56 0 -100 44 -100 100c0 18 5 35 13 50c-8 15 -13 32 -13 50c-56 0 -100 44 -100 100c0 18 5 35 13 50c-8 15 -13 32 -13 50s5 35 13 50c-8 15 -13 32 -13 50s5 35 13 50c-8 15 -13 32 -13 50s5 35 13 50c-8 15 -13 32 -13 50c0 56 44 100 100 100c18 0 35 -5 50 -13
c15 8 32 13 50 13s35 -5 50 -13c15 8 32 13 50 13c56 0 100 -44 100 -100c0 -18 -5 -35 -13 -50zM187 100c8 -15 13 -32 13 -50c0 18 5 35 13 50c-8 15 -13 32 -13 50c0 -18 -5 -35 -13 -50z" />
    <glyph glyph-name="Aring.ss04" 
d="M300 550c56 0 100 -44 100 -100c0 -18 -5 -35 -13 -50c8 -15 13 -32 13 -50s-5 -35 -13 -50c8 -15 13 -32 13 -50s-5 -35 -13 -50c8 -15 13 -32 13 -50s-5 -35 -13 -50c8 -15 13 -32 13 -50c0 -56 -44 -100 -100 -100s-100 44 -100 100c0 18 5 35 13 50
c-8 15 -13 32 -13 50c0 -18 -5 -35 -13 -50c8 -15 13 -32 13 -50c0 -56 -44 -100 -100 -100s-100 44 -100 100c0 18 5 35 13 50c-8 15 -13 32 -13 50s5 35 13 50c-8 15 -13 32 -13 50s5 35 13 50c-8 15 -13 32 -13 50s5 35 13 50c-8 15 -13 32 -13 50c0 56 44 100 100 100
c-56 0 -100 44 -100 100s44 100 100 100c0 56 44 100 100 100s100 -44 100 -100c56 0 100 -44 100 -100s-44 -100 -100 -100z" />
    <glyph glyph-name="Atilde.ss04" 
d="M500 750c0 -18 -5 -35 -13 -50c8 -15 13 -32 13 -50c0 -56 -44 -100 -100 -100c-18 0 -35 5 -50 13c-15 -8 -32 -13 -50 -13c-56 0 -100 44 -100 100c0 -56 -44 -100 -100 -100s-100 44 -100 100c0 18 5 35 13 50c-8 15 -13 32 -13 50c0 56 44 100 100 100
c18 0 35 -5 50 -13c15 8 32 13 50 13c56 0 100 -44 100 -100c0 56 44 100 100 100s100 -44 100 -100zM200 550c18 0 35 -5 50 -13c15 8 32 13 50 13c56 0 100 -44 100 -100c0 -18 -5 -35 -13 -50c8 -15 13 -32 13 -50s-5 -35 -13 -50c8 -15 13 -32 13 -50s-5 -35 -13 -50
c8 -15 13 -32 13 -50s-5 -35 -13 -50c8 -15 13 -32 13 -50c0 -56 -44 -100 -100 -100s-100 44 -100 100c0 18 5 35 13 50c-8 15 -13 32 -13 50c0 -18 -5 -35 -13 -50c8 -15 13 -32 13 -50c0 -56 -44 -100 -100 -100s-100 44 -100 100c0 18 5 35 13 50c-8 15 -13 32 -13 50
s5 35 13 50c-8 15 -13 32 -13 50s5 35 13 50c-8 15 -13 32 -13 50s5 35 13 50c-8 15 -13 32 -13 50c0 56 44 100 100 100c18 0 35 -5 50 -13c15 8 32 13 50 13z" />
    <glyph glyph-name="AE.ss04" horiz-adv-x="500" 
d="M500 250c0 -56 -44 -100 -100 -100c56 0 100 -44 100 -100s-44 -100 -100 -100c-18 0 -35 5 -50 13c-15 -8 -32 -13 -50 -13c-56 0 -100 44 -100 100c0 18 5 35 13 50c-8 15 -13 32 -13 50c0 -18 -5 -35 -13 -50c8 -15 13 -32 13 -50c0 -56 -44 -100 -100 -100
s-100 44 -100 100c0 18 5 35 13 50c-8 15 -13 32 -13 50s5 35 13 50c-8 15 -13 32 -13 50s5 35 13 50c-8 15 -13 32 -13 50s5 35 13 50c-8 15 -13 32 -13 50c0 56 44 100 100 100c18 0 35 -5 50 -13c15 8 32 13 50 13s35 -5 50 -13c15 8 32 13 50 13s35 -5 50 -13
c15 8 32 13 50 13c56 0 100 -44 100 -100s-44 -100 -100 -100c56 0 100 -44 100 -100z" />
    <glyph glyph-name="B.ss04" 
d="M400 350c0 -56 -44 -100 -100 -100c56 0 100 -44 100 -100c0 -18 -5 -35 -13 -50c8 -15 13 -32 13 -50c0 -56 -44 -100 -100 -100c-18 0 -35 5 -50 13c-15 -8 -32 -13 -50 -13s-35 5 -50 13c-15 -8 -32 -13 -50 -13c-56 0 -100 44 -100 100c0 18 5 35 13 50
c-8 15 -13 32 -13 50s5 35 13 50c-8 15 -13 32 -13 50s5 35 13 50c-8 15 -13 32 -13 50s5 35 13 50c-8 15 -13 32 -13 50c0 56 44 100 100 100c18 0 35 -5 50 -13c15 8 32 13 50 13s35 -5 50 -13c15 8 32 13 50 13c56 0 100 -44 100 -100c0 -18 -5 -35 -13 -50
c8 -15 13 -32 13 -50z" />
    <glyph glyph-name="C.ss04" 
d="M400 350c0 -56 -44 -100 -100 -100s-100 44 -100 100c0 -18 -5 -35 -13 -50c8 -15 13 -32 13 -50s-5 -35 -13 -50c8 -15 13 -32 13 -50c0 56 44 100 100 100s100 -44 100 -100c0 -18 -5 -35 -13 -50c8 -15 13 -32 13 -50c0 -56 -44 -100 -100 -100c-18 0 -35 5 -50 13
c-15 -8 -32 -13 -50 -13s-35 5 -50 13c-15 -8 -32 -13 -50 -13c-56 0 -100 44 -100 100c0 18 5 35 13 50c-8 15 -13 32 -13 50s5 35 13 50c-8 15 -13 32 -13 50s5 35 13 50c-8 15 -13 32 -13 50s5 35 13 50c-8 15 -13 32 -13 50c0 56 44 100 100 100c18 0 35 -5 50 -13
c15 8 32 13 50 13s35 -5 50 -13c15 8 32 13 50 13c56 0 100 -44 100 -100c0 -18 -5 -35 -13 -50c8 -15 13 -32 13 -50z" />
    <glyph glyph-name="Cacute.ss04" 
d="M300 650c0 -56 -44 -100 -100 -100s-100 44 -100 100s44 100 100 100c0 56 44 100 100 100s100 -44 100 -100s-44 -100 -100 -100zM300 550c56 0 100 -44 100 -100c0 -18 -5 -35 -13 -50c8 -15 13 -32 13 -50c0 -56 -44 -100 -100 -100s-100 44 -100 100
c0 -18 -5 -35 -13 -50c8 -15 13 -32 13 -50s-5 -35 -13 -50c8 -15 13 -32 13 -50c0 56 44 100 100 100s100 -44 100 -100c0 -18 -5 -35 -13 -50c8 -15 13 -32 13 -50c0 -56 -44 -100 -100 -100c-18 0 -35 5 -50 13c-15 -8 -32 -13 -50 -13s-35 5 -50 13
c-15 -8 -32 -13 -50 -13c-56 0 -100 44 -100 100c0 18 5 35 13 50c-8 15 -13 32 -13 50s5 35 13 50c-8 15 -13 32 -13 50s5 35 13 50c-8 15 -13 32 -13 50s5 35 13 50c-8 15 -13 32 -13 50c0 56 44 100 100 100c18 0 35 -5 50 -13c15 8 32 13 50 13s35 -5 50 -13
c15 8 32 13 50 13z" />
    <glyph glyph-name="Ccaron.ss04" 
d="M300 650c0 -56 -44 -100 -100 -100s-100 44 -100 100c-56 0 -100 44 -100 100s44 100 100 100s100 -44 100 -100c0 56 44 100 100 100s100 -44 100 -100s-44 -100 -100 -100zM300 550c56 0 100 -44 100 -100c0 -18 -5 -35 -13 -50c8 -15 13 -32 13 -50
c0 -56 -44 -100 -100 -100s-100 44 -100 100c0 -18 -5 -35 -13 -50c8 -15 13 -32 13 -50s-5 -35 -13 -50c8 -15 13 -32 13 -50c0 56 44 100 100 100s100 -44 100 -100c0 -18 -5 -35 -13 -50c8 -15 13 -32 13 -50c0 -56 -44 -100 -100 -100c-18 0 -35 5 -50 13
c-15 -8 -32 -13 -50 -13s-35 5 -50 13c-15 -8 -32 -13 -50 -13c-56 0 -100 44 -100 100c0 18 5 35 13 50c-8 15 -13 32 -13 50s5 35 13 50c-8 15 -13 32 -13 50s5 35 13 50c-8 15 -13 32 -13 50s5 35 13 50c-8 15 -13 32 -13 50c0 56 44 100 100 100c18 0 35 -5 50 -13
c15 8 32 13 50 13s35 -5 50 -13c15 8 32 13 50 13z" />
    <glyph glyph-name="Ccedilla.ss04" 
d="M400 350c0 -56 -44 -100 -100 -100s-100 44 -100 100c0 -18 -5 -35 -13 -50c8 -15 13 -32 13 -50s-5 -35 -13 -50c8 -15 13 -32 13 -50c0 56 44 100 100 100s100 -44 100 -100c0 -18 -5 -35 -13 -50c8 -15 13 -32 13 -50c0 -56 -44 -100 -100 -100c0 -18 -5 -35 -13 -50
c8 -15 13 -32 13 -50c0 -56 -44 -100 -100 -100c-18 0 -35 5 -50 13c-15 -8 -32 -13 -50 -13c-56 0 -100 44 -100 100s44 100 100 100c-56 0 -100 44 -100 100c0 18 5 35 13 50c-8 15 -13 32 -13 50s5 35 13 50c-8 15 -13 32 -13 50s5 35 13 50c-8 15 -13 32 -13 50
s5 35 13 50c-8 15 -13 32 -13 50c0 56 44 100 100 100c18 0 35 -5 50 -13c15 8 32 13 50 13s35 -5 50 -13c15 8 32 13 50 13c56 0 100 -44 100 -100c0 -18 -5 -35 -13 -50c8 -15 13 -32 13 -50z" />
    <glyph glyph-name="Cdotaccent.ss04" 
d="M300 650c0 -56 -44 -100 -100 -100s-100 44 -100 100s44 100 100 100s100 -44 100 -100zM400 350c0 -56 -44 -100 -100 -100s-100 44 -100 100c0 -18 -5 -35 -13 -50c8 -15 13 -32 13 -50s-5 -35 -13 -50c8 -15 13 -32 13 -50c0 56 44 100 100 100s100 -44 100 -100
c0 -18 -5 -35 -13 -50c8 -15 13 -32 13 -50c0 -56 -44 -100 -100 -100c-18 0 -35 5 -50 13c-15 -8 -32 -13 -50 -13s-35 5 -50 13c-15 -8 -32 -13 -50 -13c-56 0 -100 44 -100 100c0 18 5 35 13 50c-8 15 -13 32 -13 50s5 35 13 50c-8 15 -13 32 -13 50s5 35 13 50
c-8 15 -13 32 -13 50s5 35 13 50c-8 15 -13 32 -13 50c0 56 44 100 100 100c18 0 35 -5 50 -13c15 8 32 13 50 13s35 -5 50 -13c15 8 32 13 50 13c56 0 100 -44 100 -100c0 -18 -5 -35 -13 -50c8 -15 13 -32 13 -50z" />
    <glyph glyph-name="D.ss04" 
d="M387 300c8 -15 13 -32 13 -50s-5 -35 -13 -50c8 -15 13 -32 13 -50s-5 -35 -13 -50c8 -15 13 -32 13 -50c0 -56 -44 -100 -100 -100c-18 0 -35 5 -50 13c-15 -8 -32 -13 -50 -13s-35 5 -50 13c-15 -8 -32 -13 -50 -13c-56 0 -100 44 -100 100c0 18 5 35 13 50
c-8 15 -13 32 -13 50s5 35 13 50c-8 15 -13 32 -13 50s5 35 13 50c-8 15 -13 32 -13 50s5 35 13 50c-8 15 -13 32 -13 50c0 56 44 100 100 100c18 0 35 -5 50 -13c15 8 32 13 50 13c56 0 100 -44 100 -100c56 0 100 -44 100 -100c0 -18 -5 -35 -13 -50zM187 200
c8 -15 13 -32 13 -50c0 18 5 35 13 50c-8 15 -13 32 -13 50s5 35 13 50c-8 15 -13 32 -13 50c0 -18 -5 -35 -13 -50c8 -15 13 -32 13 -50s-5 -35 -13 -50z" />
    <glyph glyph-name="Eth.ss04" horiz-adv-x="500" 
d="M487 300c8 -15 13 -32 13 -50s-5 -35 -13 -50c8 -15 13 -32 13 -50s-5 -35 -13 -50c8 -15 13 -32 13 -50c0 -56 -44 -100 -100 -100c-18 0 -35 5 -50 13c-15 -8 -32 -13 -50 -13s-35 5 -50 13c-15 -8 -32 -13 -50 -13c-56 0 -100 44 -100 100c0 18 5 35 13 50
c-8 15 -13 32 -13 50c-56 0 -100 44 -100 100s44 100 100 100c0 18 5 35 13 50c-8 15 -13 32 -13 50c0 56 44 100 100 100c18 0 35 -5 50 -13c15 8 32 13 50 13c56 0 100 -44 100 -100c56 0 100 -44 100 -100c0 -18 -5 -35 -13 -50zM287 200c8 -15 13 -32 13 -50
c0 18 5 35 13 50c-8 15 -13 32 -13 50s5 35 13 50c-8 15 -13 32 -13 50c0 -18 -5 -35 -13 -50c8 -15 13 -32 13 -50s-5 -35 -13 -50z" />
    <glyph glyph-name="Dcaron.ss04" 
d="M300 650c0 -56 -44 -100 -100 -100s-100 44 -100 100c-56 0 -100 44 -100 100s44 100 100 100s100 -44 100 -100c0 56 44 100 100 100s100 -44 100 -100s-44 -100 -100 -100zM300 450c56 0 100 -44 100 -100c0 -18 -5 -35 -13 -50c8 -15 13 -32 13 -50s-5 -35 -13 -50
c8 -15 13 -32 13 -50s-5 -35 -13 -50c8 -15 13 -32 13 -50c0 -56 -44 -100 -100 -100c-18 0 -35 5 -50 13c-15 -8 -32 -13 -50 -13s-35 5 -50 13c-15 -8 -32 -13 -50 -13c-56 0 -100 44 -100 100c0 18 5 35 13 50c-8 15 -13 32 -13 50s5 35 13 50c-8 15 -13 32 -13 50
s5 35 13 50c-8 15 -13 32 -13 50s5 35 13 50c-8 15 -13 32 -13 50c0 56 44 100 100 100c18 0 35 -5 50 -13c15 8 32 13 50 13c56 0 100 -44 100 -100zM187 200c8 -15 13 -32 13 -50c0 18 5 35 13 50c-8 15 -13 32 -13 50s5 35 13 50c-8 15 -13 32 -13 50
c0 -18 -5 -35 -13 -50c8 -15 13 -32 13 -50s-5 -35 -13 -50z" />
    <glyph glyph-name="G.ss04" 
d="M300 350c56 0 100 -44 100 -100c0 -18 -5 -35 -13 -50c8 -15 13 -32 13 -50s-5 -35 -13 -50c8 -15 13 -32 13 -50c0 -56 -44 -100 -100 -100c-18 0 -35 5 -50 13c-15 -8 -32 -13 -50 -13s-35 5 -50 13c-15 -8 -32 -13 -50 -13c-56 0 -100 44 -100 100c0 18 5 35 13 50
c-8 15 -13 32 -13 50s5 35 13 50c-8 15 -13 32 -13 50s5 35 13 50c-8 15 -13 32 -13 50s5 35 13 50c-8 15 -13 32 -13 50c0 56 44 100 100 100c18 0 35 -5 50 -13c15 8 32 13 50 13s35 -5 50 -13c15 8 32 13 50 13c56 0 100 -44 100 -100s-44 -100 -100 -100
c-18 0 -35 5 -50 13c-15 -8 -32 -13 -50 -13c0 -18 -5 -35 -13 -50c8 -15 13 -32 13 -50s-5 -35 -13 -50c8 -15 13 -32 13 -50c0 18 5 35 13 50c-8 15 -13 32 -13 50c0 56 44 100 100 100z" />
    <glyph glyph-name="Gbreve.ss04" 
d="M400 650c0 -56 -44 -100 -100 -100c-18 0 -35 5 -50 13c-15 -8 -32 -13 -50 -13s-35 5 -50 13c-15 -8 -32 -13 -50 -13c-56 0 -100 44 -100 100c0 18 5 35 13 50c-8 15 -13 32 -13 50c0 56 44 100 100 100s100 -44 100 -100c0 56 44 100 100 100s100 -44 100 -100
c0 -18 -5 -35 -13 -50c8 -15 13 -32 13 -50zM200 550c18 0 35 -5 50 -13c15 8 32 13 50 13c56 0 100 -44 100 -100s-44 -100 -100 -100c-18 0 -35 5 -50 13c-15 -8 -32 -13 -50 -13c0 -18 -5 -35 -13 -50c8 -15 13 -32 13 -50s-5 -35 -13 -50c8 -15 13 -32 13 -50
c0 18 5 35 13 50c-8 15 -13 32 -13 50c0 56 44 100 100 100s100 -44 100 -100c0 -18 -5 -35 -13 -50c8 -15 13 -32 13 -50s-5 -35 -13 -50c8 -15 13 -32 13 -50c0 -56 -44 -100 -100 -100c-18 0 -35 5 -50 13c-15 -8 -32 -13 -50 -13s-35 5 -50 13c-15 -8 -32 -13 -50 -13
c-56 0 -100 44 -100 100c0 18 5 35 13 50c-8 15 -13 32 -13 50s5 35 13 50c-8 15 -13 32 -13 50s5 35 13 50c-8 15 -13 32 -13 50s5 35 13 50c-8 15 -13 32 -13 50c0 56 44 100 100 100c18 0 35 -5 50 -13c15 8 32 13 50 13z" />
    <glyph glyph-name="uni0122.ss04" 
d="M300 350c56 0 100 -44 100 -100c0 -18 -5 -35 -13 -50c8 -15 13 -32 13 -50s-5 -35 -13 -50c8 -15 13 -32 13 -50c0 -56 -44 -100 -100 -100c-18 0 -35 5 -50 13c-15 -8 -32 -13 -50 -13s-35 5 -50 13c-15 -8 -32 -13 -50 -13c-56 0 -100 44 -100 100c0 18 5 35 13 50
c-8 15 -13 32 -13 50s5 35 13 50c-8 15 -13 32 -13 50s5 35 13 50c-8 15 -13 32 -13 50s5 35 13 50c-8 15 -13 32 -13 50c0 56 44 100 100 100c18 0 35 -5 50 -13c15 8 32 13 50 13s35 -5 50 -13c15 8 32 13 50 13c56 0 100 -44 100 -100s-44 -100 -100 -100
c-18 0 -35 5 -50 13c-15 -8 -32 -13 -50 -13c0 -18 -5 -35 -13 -50c8 -15 13 -32 13 -50s-5 -35 -13 -50c8 -15 13 -32 13 -50c0 18 5 35 13 50c-8 15 -13 32 -13 50c0 56 44 100 100 100zM200 -50c18 0 35 -5 50 -13c15 8 32 13 50 13c56 0 100 -44 100 -100
c0 -18 -5 -35 -13 -50c8 -15 13 -32 13 -50c0 -56 -44 -100 -100 -100c0 -56 -44 -100 -100 -100s-100 44 -100 100s44 100 100 100c-56 0 -100 44 -100 100s44 100 100 100z" />
    <glyph glyph-name="Gdotaccent.ss04" 
d="M300 650c0 -56 -44 -100 -100 -100s-100 44 -100 100s44 100 100 100s100 -44 100 -100zM300 350c56 0 100 -44 100 -100c0 -18 -5 -35 -13 -50c8 -15 13 -32 13 -50s-5 -35 -13 -50c8 -15 13 -32 13 -50c0 -56 -44 -100 -100 -100c-18 0 -35 5 -50 13
c-15 -8 -32 -13 -50 -13s-35 5 -50 13c-15 -8 -32 -13 -50 -13c-56 0 -100 44 -100 100c0 18 5 35 13 50c-8 15 -13 32 -13 50s5 35 13 50c-8 15 -13 32 -13 50s5 35 13 50c-8 15 -13 32 -13 50s5 35 13 50c-8 15 -13 32 -13 50c0 56 44 100 100 100c18 0 35 -5 50 -13
c15 8 32 13 50 13s35 -5 50 -13c15 8 32 13 50 13c56 0 100 -44 100 -100s-44 -100 -100 -100c-18 0 -35 5 -50 13c-15 -8 -32 -13 -50 -13c0 -18 -5 -35 -13 -50c8 -15 13 -32 13 -50s-5 -35 -13 -50c8 -15 13 -32 13 -50c0 18 5 35 13 50c-8 15 -13 32 -13 50
c0 56 44 100 100 100z" />
    <glyph glyph-name="J.ss04" 
d="M387 400c8 -15 13 -32 13 -50s-5 -35 -13 -50c8 -15 13 -32 13 -50s-5 -35 -13 -50c8 -15 13 -32 13 -50s-5 -35 -13 -50c8 -15 13 -32 13 -50c0 -56 -44 -100 -100 -100c-18 0 -35 5 -50 13c-15 -8 -32 -13 -50 -13s-35 5 -50 13c-15 -8 -32 -13 -50 -13
c-56 0 -100 44 -100 100c0 18 5 35 13 50c-8 15 -13 32 -13 50s5 35 13 50c-8 15 -13 32 -13 50c0 56 44 100 100 100s100 -44 100 -100c0 -18 -5 -35 -13 -50c8 -15 13 -32 13 -50c0 18 5 35 13 50c-8 15 -13 32 -13 50s5 35 13 50c-8 15 -13 32 -13 50s5 35 13 50
c-8 15 -13 32 -13 50c0 56 44 100 100 100s100 -44 100 -100c0 -18 -5 -35 -13 -50z" />
    <glyph glyph-name="K.ss04" 
d="M400 350c0 -56 -44 -100 -100 -100c56 0 100 -44 100 -100c0 -18 -5 -35 -13 -50c8 -15 13 -32 13 -50c0 -56 -44 -100 -100 -100s-100 44 -100 100c0 18 5 35 13 50c-8 15 -13 32 -13 50c0 -18 -5 -35 -13 -50c8 -15 13 -32 13 -50c0 -56 -44 -100 -100 -100
s-100 44 -100 100c0 18 5 35 13 50c-8 15 -13 32 -13 50s5 35 13 50c-8 15 -13 32 -13 50s5 35 13 50c-8 15 -13 32 -13 50s5 35 13 50c-8 15 -13 32 -13 50c0 56 44 100 100 100s100 -44 100 -100c0 -18 -5 -35 -13 -50c8 -15 13 -32 13 -50c0 18 5 35 13 50
c-8 15 -13 32 -13 50c0 56 44 100 100 100s100 -44 100 -100c0 -18 -5 -35 -13 -50c8 -15 13 -32 13 -50z" />
    <glyph glyph-name="uni0136.ss04" 
d="M400 350c0 -56 -44 -100 -100 -100c56 0 100 -44 100 -100c0 -18 -5 -35 -13 -50c8 -15 13 -32 13 -50c0 -56 -44 -100 -100 -100s-100 44 -100 100c0 18 5 35 13 50c-8 15 -13 32 -13 50c0 -18 -5 -35 -13 -50c8 -15 13 -32 13 -50c0 -56 -44 -100 -100 -100
s-100 44 -100 100c0 18 5 35 13 50c-8 15 -13 32 -13 50s5 35 13 50c-8 15 -13 32 -13 50s5 35 13 50c-8 15 -13 32 -13 50s5 35 13 50c-8 15 -13 32 -13 50c0 56 44 100 100 100s100 -44 100 -100c0 -18 -5 -35 -13 -50c8 -15 13 -32 13 -50c0 18 5 35 13 50
c-8 15 -13 32 -13 50c0 56 44 100 100 100s100 -44 100 -100c0 -18 -5 -35 -13 -50c8 -15 13 -32 13 -50zM0 -150c0 56 44 100 100 100c18 0 35 -5 50 -13c15 8 32 13 50 13c56 0 100 -44 100 -100c0 -18 -5 -35 -13 -50c8 -15 13 -32 13 -50c0 -56 -44 -100 -100 -100
c0 -56 -44 -100 -100 -100s-100 44 -100 100s44 100 100 100c-56 0 -100 44 -100 100z" />
    <glyph glyph-name="M.ss04" horiz-adv-x="600" 
d="M587 400c8 -15 13 -32 13 -50s-5 -35 -13 -50c8 -15 13 -32 13 -50s-5 -35 -13 -50c8 -15 13 -32 13 -50s-5 -35 -13 -50c8 -15 13 -32 13 -50c0 -56 -44 -100 -100 -100s-100 44 -100 100c0 18 5 35 13 50c-8 15 -13 32 -13 50s5 35 13 50c-8 15 -13 32 -13 50
s5 35 13 50c-8 15 -13 32 -13 50c0 -18 -5 -35 -13 -50c8 -15 13 -32 13 -50s-5 -35 -13 -50c8 -15 13 -32 13 -50s-5 -35 -13 -50c8 -15 13 -32 13 -50c0 -56 -44 -100 -100 -100s-100 44 -100 100c0 18 5 35 13 50c-8 15 -13 32 -13 50s5 35 13 50c-8 15 -13 32 -13 50
s5 35 13 50c-8 15 -13 32 -13 50c0 -18 -5 -35 -13 -50c8 -15 13 -32 13 -50s-5 -35 -13 -50c8 -15 13 -32 13 -50s-5 -35 -13 -50c8 -15 13 -32 13 -50c0 -56 -44 -100 -100 -100s-100 44 -100 100c0 18 5 35 13 50c-8 15 -13 32 -13 50s5 35 13 50c-8 15 -13 32 -13 50
s5 35 13 50c-8 15 -13 32 -13 50s5 35 13 50c-8 15 -13 32 -13 50c0 56 44 100 100 100c18 0 35 -5 50 -13c15 8 32 13 50 13s35 -5 50 -13c15 8 32 13 50 13s35 -5 50 -13c15 8 32 13 50 13s35 -5 50 -13c15 8 32 13 50 13c56 0 100 -44 100 -100c0 -18 -5 -35 -13 -50z
" />
    <glyph glyph-name="N.ss04" 
d="M387 400c8 -15 13 -32 13 -50s-5 -35 -13 -50c8 -15 13 -32 13 -50s-5 -35 -13 -50c8 -15 13 -32 13 -50s-5 -35 -13 -50c8 -15 13 -32 13 -50c0 -56 -44 -100 -100 -100s-100 44 -100 100c0 18 5 35 13 50c-8 15 -13 32 -13 50s5 35 13 50c-8 15 -13 32 -13 50
s5 35 13 50c-8 15 -13 32 -13 50c0 -18 -5 -35 -13 -50c8 -15 13 -32 13 -50s-5 -35 -13 -50c8 -15 13 -32 13 -50s-5 -35 -13 -50c8 -15 13 -32 13 -50c0 -56 -44 -100 -100 -100s-100 44 -100 100c0 18 5 35 13 50c-8 15 -13 32 -13 50s5 35 13 50c-8 15 -13 32 -13 50
s5 35 13 50c-8 15 -13 32 -13 50s5 35 13 50c-8 15 -13 32 -13 50c0 56 44 100 100 100c18 0 35 -5 50 -13c15 8 32 13 50 13s35 -5 50 -13c15 8 32 13 50 13c56 0 100 -44 100 -100c0 -18 -5 -35 -13 -50z" />
    <glyph glyph-name="Nacute.ss04" 
d="M300 650c0 -56 -44 -100 -100 -100s-100 44 -100 100s44 100 100 100c0 56 44 100 100 100s100 -44 100 -100s-44 -100 -100 -100zM300 550c56 0 100 -44 100 -100c0 -18 -5 -35 -13 -50c8 -15 13 -32 13 -50s-5 -35 -13 -50c8 -15 13 -32 13 -50s-5 -35 -13 -50
c8 -15 13 -32 13 -50s-5 -35 -13 -50c8 -15 13 -32 13 -50c0 -56 -44 -100 -100 -100s-100 44 -100 100c0 18 5 35 13 50c-8 15 -13 32 -13 50s5 35 13 50c-8 15 -13 32 -13 50s5 35 13 50c-8 15 -13 32 -13 50c0 -18 -5 -35 -13 -50c8 -15 13 -32 13 -50s-5 -35 -13 -50
c8 -15 13 -32 13 -50s-5 -35 -13 -50c8 -15 13 -32 13 -50c0 -56 -44 -100 -100 -100s-100 44 -100 100c0 18 5 35 13 50c-8 15 -13 32 -13 50s5 35 13 50c-8 15 -13 32 -13 50s5 35 13 50c-8 15 -13 32 -13 50s5 35 13 50c-8 15 -13 32 -13 50c0 56 44 100 100 100
c18 0 35 -5 50 -13c15 8 32 13 50 13s35 -5 50 -13c15 8 32 13 50 13z" />
    <glyph glyph-name="Ncaron.ss04" 
d="M300 650c0 -56 -44 -100 -100 -100s-100 44 -100 100c-56 0 -100 44 -100 100s44 100 100 100s100 -44 100 -100c0 56 44 100 100 100s100 -44 100 -100s-44 -100 -100 -100zM300 550c56 0 100 -44 100 -100c0 -18 -5 -35 -13 -50c8 -15 13 -32 13 -50s-5 -35 -13 -50
c8 -15 13 -32 13 -50s-5 -35 -13 -50c8 -15 13 -32 13 -50s-5 -35 -13 -50c8 -15 13 -32 13 -50c0 -56 -44 -100 -100 -100s-100 44 -100 100c0 18 5 35 13 50c-8 15 -13 32 -13 50s5 35 13 50c-8 15 -13 32 -13 50s5 35 13 50c-8 15 -13 32 -13 50c0 -18 -5 -35 -13 -50
c8 -15 13 -32 13 -50s-5 -35 -13 -50c8 -15 13 -32 13 -50s-5 -35 -13 -50c8 -15 13 -32 13 -50c0 -56 -44 -100 -100 -100s-100 44 -100 100c0 18 5 35 13 50c-8 15 -13 32 -13 50s5 35 13 50c-8 15 -13 32 -13 50s5 35 13 50c-8 15 -13 32 -13 50s5 35 13 50
c-8 15 -13 32 -13 50c0 56 44 100 100 100c18 0 35 -5 50 -13c15 8 32 13 50 13s35 -5 50 -13c15 8 32 13 50 13z" />
    <glyph glyph-name="Eng.ss04" 
d="M387 400c8 -15 13 -32 13 -50s-5 -35 -13 -50c8 -15 13 -32 13 -50s-5 -35 -13 -50c8 -15 13 -32 13 -50s-5 -35 -13 -50c8 -15 13 -32 13 -50s-5 -35 -13 -50c8 -15 13 -32 13 -50s-5 -35 -13 -50c8 -15 13 -32 13 -50c0 -56 -44 -100 -100 -100c-18 0 -35 5 -50 13
c-15 -8 -32 -13 -50 -13c-56 0 -100 44 -100 100s44 100 100 100c0 18 5 35 13 50c-8 15 -13 32 -13 50s5 35 13 50c-8 15 -13 32 -13 50s5 35 13 50c-8 15 -13 32 -13 50s5 35 13 50c-8 15 -13 32 -13 50c0 -18 -5 -35 -13 -50c8 -15 13 -32 13 -50s-5 -35 -13 -50
c8 -15 13 -32 13 -50s-5 -35 -13 -50c8 -15 13 -32 13 -50c0 -56 -44 -100 -100 -100s-100 44 -100 100c0 18 5 35 13 50c-8 15 -13 32 -13 50s5 35 13 50c-8 15 -13 32 -13 50s5 35 13 50c-8 15 -13 32 -13 50s5 35 13 50c-8 15 -13 32 -13 50c0 56 44 100 100 100
c18 0 35 -5 50 -13c15 8 32 13 50 13s35 -5 50 -13c15 8 32 13 50 13c56 0 100 -44 100 -100c0 -18 -5 -35 -13 -50z" />
    <glyph glyph-name="Ntilde.ss04" 
d="M500 750c0 -18 -5 -35 -13 -50c8 -15 13 -32 13 -50c0 -56 -44 -100 -100 -100c-18 0 -35 5 -50 13c-15 -8 -32 -13 -50 -13c-56 0 -100 44 -100 100c0 -56 -44 -100 -100 -100s-100 44 -100 100c0 18 5 35 13 50c-8 15 -13 32 -13 50c0 56 44 100 100 100
c18 0 35 -5 50 -13c15 8 32 13 50 13c56 0 100 -44 100 -100c0 56 44 100 100 100s100 -44 100 -100zM200 550c18 0 35 -5 50 -13c15 8 32 13 50 13c56 0 100 -44 100 -100c0 -18 -5 -35 -13 -50c8 -15 13 -32 13 -50s-5 -35 -13 -50c8 -15 13 -32 13 -50s-5 -35 -13 -50
c8 -15 13 -32 13 -50s-5 -35 -13 -50c8 -15 13 -32 13 -50c0 -56 -44 -100 -100 -100s-100 44 -100 100c0 18 5 35 13 50c-8 15 -13 32 -13 50s5 35 13 50c-8 15 -13 32 -13 50s5 35 13 50c-8 15 -13 32 -13 50c0 -18 -5 -35 -13 -50c8 -15 13 -32 13 -50s-5 -35 -13 -50
c8 -15 13 -32 13 -50s-5 -35 -13 -50c8 -15 13 -32 13 -50c0 -56 -44 -100 -100 -100s-100 44 -100 100c0 18 5 35 13 50c-8 15 -13 32 -13 50s5 35 13 50c-8 15 -13 32 -13 50s5 35 13 50c-8 15 -13 32 -13 50s5 35 13 50c-8 15 -13 32 -13 50c0 56 44 100 100 100
c18 0 35 -5 50 -13c15 8 32 13 50 13z" />
    <glyph glyph-name="O.ss04" 
d="M387 400c8 -15 13 -32 13 -50s-5 -35 -13 -50c8 -15 13 -32 13 -50s-5 -35 -13 -50c8 -15 13 -32 13 -50s-5 -35 -13 -50c8 -15 13 -32 13 -50c0 -56 -44 -100 -100 -100c-18 0 -35 5 -50 13c-15 -8 -32 -13 -50 -13s-35 5 -50 13c-15 -8 -32 -13 -50 -13
c-56 0 -100 44 -100 100c0 18 5 35 13 50c-8 15 -13 32 -13 50s5 35 13 50c-8 15 -13 32 -13 50s5 35 13 50c-8 15 -13 32 -13 50s5 35 13 50c-8 15 -13 32 -13 50c0 56 44 100 100 100c18 0 35 -5 50 -13c15 8 32 13 50 13s35 -5 50 -13c15 8 32 13 50 13
c56 0 100 -44 100 -100c0 -18 -5 -35 -13 -50zM187 200c8 -15 13 -32 13 -50c0 18 5 35 13 50c-8 15 -13 32 -13 50s5 35 13 50c-8 15 -13 32 -13 50c0 -18 -5 -35 -13 -50c8 -15 13 -32 13 -50s-5 -35 -13 -50z" />
    <glyph glyph-name="Oacute.ss04" 
d="M300 650c0 -56 -44 -100 -100 -100s-100 44 -100 100s44 100 100 100c0 56 44 100 100 100s100 -44 100 -100s-44 -100 -100 -100zM300 550c56 0 100 -44 100 -100c0 -18 -5 -35 -13 -50c8 -15 13 -32 13 -50s-5 -35 -13 -50c8 -15 13 -32 13 -50s-5 -35 -13 -50
c8 -15 13 -32 13 -50s-5 -35 -13 -50c8 -15 13 -32 13 -50c0 -56 -44 -100 -100 -100c-18 0 -35 5 -50 13c-15 -8 -32 -13 -50 -13s-35 5 -50 13c-15 -8 -32 -13 -50 -13c-56 0 -100 44 -100 100c0 18 5 35 13 50c-8 15 -13 32 -13 50s5 35 13 50c-8 15 -13 32 -13 50
s5 35 13 50c-8 15 -13 32 -13 50s5 35 13 50c-8 15 -13 32 -13 50c0 56 44 100 100 100c18 0 35 -5 50 -13c15 8 32 13 50 13s35 -5 50 -13c15 8 32 13 50 13zM187 200c8 -15 13 -32 13 -50c0 18 5 35 13 50c-8 15 -13 32 -13 50s5 35 13 50c-8 15 -13 32 -13 50
c0 -18 -5 -35 -13 -50c8 -15 13 -32 13 -50s-5 -35 -13 -50z" />
    <glyph glyph-name="Ocircumflex.ss04" 
d="M200 650c0 -56 -44 -100 -100 -100s-100 44 -100 100s44 100 100 100c0 56 44 100 100 100s100 -44 100 -100c56 0 100 -44 100 -100s-44 -100 -100 -100s-100 44 -100 100zM300 550c56 0 100 -44 100 -100c0 -18 -5 -35 -13 -50c8 -15 13 -32 13 -50s-5 -35 -13 -50
c8 -15 13 -32 13 -50s-5 -35 -13 -50c8 -15 13 -32 13 -50s-5 -35 -13 -50c8 -15 13 -32 13 -50c0 -56 -44 -100 -100 -100c-18 0 -35 5 -50 13c-15 -8 -32 -13 -50 -13s-35 5 -50 13c-15 -8 -32 -13 -50 -13c-56 0 -100 44 -100 100c0 18 5 35 13 50c-8 15 -13 32 -13 50
s5 35 13 50c-8 15 -13 32 -13 50s5 35 13 50c-8 15 -13 32 -13 50s5 35 13 50c-8 15 -13 32 -13 50c0 56 44 100 100 100c18 0 35 -5 50 -13c15 8 32 13 50 13s35 -5 50 -13c15 8 32 13 50 13zM187 200c8 -15 13 -32 13 -50c0 18 5 35 13 50c-8 15 -13 32 -13 50s5 35 13 50
c-8 15 -13 32 -13 50c0 -18 -5 -35 -13 -50c8 -15 13 -32 13 -50s-5 -35 -13 -50z" />
    <glyph glyph-name="Odieresis.ss04" 
d="M200 650c0 -56 -44 -100 -100 -100s-100 44 -100 100s44 100 100 100s100 -44 100 -100zM300 550c-56 0 -100 44 -100 100s44 100 100 100s100 -44 100 -100s-44 -100 -100 -100zM300 550c56 0 100 -44 100 -100c0 -18 -5 -35 -13 -50c8 -15 13 -32 13 -50
s-5 -35 -13 -50c8 -15 13 -32 13 -50s-5 -35 -13 -50c8 -15 13 -32 13 -50s-5 -35 -13 -50c8 -15 13 -32 13 -50c0 -56 -44 -100 -100 -100c-18 0 -35 5 -50 13c-15 -8 -32 -13 -50 -13s-35 5 -50 13c-15 -8 -32 -13 -50 -13c-56 0 -100 44 -100 100c0 18 5 35 13 50
c-8 15 -13 32 -13 50s5 35 13 50c-8 15 -13 32 -13 50s5 35 13 50c-8 15 -13 32 -13 50s5 35 13 50c-8 15 -13 32 -13 50c0 56 44 100 100 100c18 0 35 -5 50 -13c15 8 32 13 50 13s35 -5 50 -13c15 8 32 13 50 13zM187 200c8 -15 13 -32 13 -50c0 18 5 35 13 50
c-8 15 -13 32 -13 50s5 35 13 50c-8 15 -13 32 -13 50c0 -18 -5 -35 -13 -50c8 -15 13 -32 13 -50s-5 -35 -13 -50z" />
    <glyph glyph-name="Ograve.ss04" 
d="M300 650c0 -56 -44 -100 -100 -100s-100 44 -100 100c-56 0 -100 44 -100 100s44 100 100 100s100 -44 100 -100c56 0 100 -44 100 -100zM387 400c8 -15 13 -32 13 -50s-5 -35 -13 -50c8 -15 13 -32 13 -50s-5 -35 -13 -50c8 -15 13 -32 13 -50s-5 -35 -13 -50
c8 -15 13 -32 13 -50c0 -56 -44 -100 -100 -100c-18 0 -35 5 -50 13c-15 -8 -32 -13 -50 -13s-35 5 -50 13c-15 -8 -32 -13 -50 -13c-56 0 -100 44 -100 100c0 18 5 35 13 50c-8 15 -13 32 -13 50s5 35 13 50c-8 15 -13 32 -13 50s5 35 13 50c-8 15 -13 32 -13 50
s5 35 13 50c-8 15 -13 32 -13 50c0 56 44 100 100 100c18 0 35 -5 50 -13c15 8 32 13 50 13s35 -5 50 -13c15 8 32 13 50 13c56 0 100 -44 100 -100c0 -18 -5 -35 -13 -50zM187 200c8 -15 13 -32 13 -50c0 18 5 35 13 50c-8 15 -13 32 -13 50s5 35 13 50
c-8 15 -13 32 -13 50c0 -18 -5 -35 -13 -50c8 -15 13 -32 13 -50s-5 -35 -13 -50z" />
    <glyph glyph-name="Ohungarumlaut.ss04" 
d="M400 850c56 0 100 -44 100 -100s-44 -100 -100 -100c0 -56 -44 -100 -100 -100s-100 44 -100 100c0 -56 -44 -100 -100 -100s-100 44 -100 100s44 100 100 100c0 56 44 100 100 100s100 -44 100 -100c0 56 44 100 100 100zM200 550c18 0 35 -5 50 -13c15 8 32 13 50 13
c56 0 100 -44 100 -100c0 -18 -5 -35 -13 -50c8 -15 13 -32 13 -50s-5 -35 -13 -50c8 -15 13 -32 13 -50s-5 -35 -13 -50c8 -15 13 -32 13 -50s-5 -35 -13 -50c8 -15 13 -32 13 -50c0 -56 -44 -100 -100 -100c-18 0 -35 5 -50 13c-15 -8 -32 -13 -50 -13s-35 5 -50 13
c-15 -8 -32 -13 -50 -13c-56 0 -100 44 -100 100c0 18 5 35 13 50c-8 15 -13 32 -13 50s5 35 13 50c-8 15 -13 32 -13 50s5 35 13 50c-8 15 -13 32 -13 50s5 35 13 50c-8 15 -13 32 -13 50c0 56 44 100 100 100c18 0 35 -5 50 -13c15 8 32 13 50 13zM187 200
c8 -15 13 -32 13 -50c0 18 5 35 13 50c-8 15 -13 32 -13 50s5 35 13 50c-8 15 -13 32 -13 50c0 -18 -5 -35 -13 -50c8 -15 13 -32 13 -50s-5 -35 -13 -50z" />
    <glyph glyph-name="Omacron.ss04" 
d="M200 550c-18 0 -35 5 -50 13c-15 -8 -32 -13 -50 -13c-56 0 -100 44 -100 100s44 100 100 100c18 0 35 -5 50 -13c15 8 32 13 50 13s35 -5 50 -13c15 8 32 13 50 13c56 0 100 -44 100 -100s-44 -100 -100 -100c-18 0 -35 5 -50 13c-15 -8 -32 -13 -50 -13zM300 550
c56 0 100 -44 100 -100c0 -18 -5 -35 -13 -50c8 -15 13 -32 13 -50s-5 -35 -13 -50c8 -15 13 -32 13 -50s-5 -35 -13 -50c8 -15 13 -32 13 -50s-5 -35 -13 -50c8 -15 13 -32 13 -50c0 -56 -44 -100 -100 -100c-18 0 -35 5 -50 13c-15 -8 -32 -13 -50 -13s-35 5 -50 13
c-15 -8 -32 -13 -50 -13c-56 0 -100 44 -100 100c0 18 5 35 13 50c-8 15 -13 32 -13 50s5 35 13 50c-8 15 -13 32 -13 50s5 35 13 50c-8 15 -13 32 -13 50s5 35 13 50c-8 15 -13 32 -13 50c0 56 44 100 100 100c18 0 35 -5 50 -13c15 8 32 13 50 13s35 -5 50 -13
c15 8 32 13 50 13zM187 200c8 -15 13 -32 13 -50c0 18 5 35 13 50c-8 15 -13 32 -13 50s5 35 13 50c-8 15 -13 32 -13 50c0 -18 -5 -35 -13 -50c8 -15 13 -32 13 -50s-5 -35 -13 -50z" />
    <glyph glyph-name="Oslash.ss04" horiz-adv-x="600" 
d="M500 350c56 0 100 -44 100 -100c0 -18 -5 -35 -13 -50c8 -15 13 -32 13 -50s-5 -35 -13 -50c8 -15 13 -32 13 -50c0 -56 -44 -100 -100 -100c-18 0 -35 5 -50 13c-15 -8 -32 -13 -50 -13s-35 5 -50 13c-15 -8 -32 -13 -50 -13c-56 0 -100 44 -100 100
c0 -56 -44 -100 -100 -100s-100 44 -100 100s44 100 100 100c-56 0 -100 44 -100 100c0 18 5 35 13 50c-8 15 -13 32 -13 50s5 35 13 50c-8 15 -13 32 -13 50c0 56 44 100 100 100c18 0 35 -5 50 -13c15 8 32 13 50 13s35 -5 50 -13c15 8 32 13 50 13c56 0 100 -44 100 -100
c0 56 44 100 100 100s100 -44 100 -100s-44 -100 -100 -100zM187 300c8 -15 13 -32 13 -50c0 56 44 100 100 100c-18 0 -35 5 -50 13c-15 -8 -32 -13 -50 -13c0 -18 -5 -35 -13 -50zM350 137c15 8 32 13 50 13c0 18 5 35 13 50c-8 15 -13 32 -13 50
c0 -56 -44 -100 -100 -100c18 0 35 -5 50 -13z" />
    <glyph glyph-name="Otilde.ss04" 
d="M500 750c0 -18 -5 -35 -13 -50c8 -15 13 -32 13 -50c0 -56 -44 -100 -100 -100c-18 0 -35 5 -50 13c-15 -8 -32 -13 -50 -13c-56 0 -100 44 -100 100c0 -56 -44 -100 -100 -100s-100 44 -100 100c0 18 5 35 13 50c-8 15 -13 32 -13 50c0 56 44 100 100 100
c18 0 35 -5 50 -13c15 8 32 13 50 13c56 0 100 -44 100 -100c0 56 44 100 100 100s100 -44 100 -100zM200 550c18 0 35 -5 50 -13c15 8 32 13 50 13c56 0 100 -44 100 -100c0 -18 -5 -35 -13 -50c8 -15 13 -32 13 -50s-5 -35 -13 -50c8 -15 13 -32 13 -50s-5 -35 -13 -50
c8 -15 13 -32 13 -50s-5 -35 -13 -50c8 -15 13 -32 13 -50c0 -56 -44 -100 -100 -100c-18 0 -35 5 -50 13c-15 -8 -32 -13 -50 -13s-35 5 -50 13c-15 -8 -32 -13 -50 -13c-56 0 -100 44 -100 100c0 18 5 35 13 50c-8 15 -13 32 -13 50s5 35 13 50c-8 15 -13 32 -13 50
s5 35 13 50c-8 15 -13 32 -13 50s5 35 13 50c-8 15 -13 32 -13 50c0 56 44 100 100 100c18 0 35 -5 50 -13c15 8 32 13 50 13zM187 200c8 -15 13 -32 13 -50c0 18 5 35 13 50c-8 15 -13 32 -13 50s5 35 13 50c-8 15 -13 32 -13 50c0 -18 -5 -35 -13 -50c8 -15 13 -32 13 -50
s-5 -35 -13 -50z" />
    <glyph glyph-name="OE.ss04" horiz-adv-x="500" 
d="M500 250c0 -56 -44 -100 -100 -100c56 0 100 -44 100 -100s-44 -100 -100 -100c-18 0 -35 5 -50 13c-15 -8 -32 -13 -50 -13s-35 5 -50 13c-15 -8 -32 -13 -50 -13s-35 5 -50 13c-15 -8 -32 -13 -50 -13c-56 0 -100 44 -100 100c0 18 5 35 13 50c-8 15 -13 32 -13 50
s5 35 13 50c-8 15 -13 32 -13 50s5 35 13 50c-8 15 -13 32 -13 50s5 35 13 50c-8 15 -13 32 -13 50c0 56 44 100 100 100c18 0 35 -5 50 -13c15 8 32 13 50 13s35 -5 50 -13c15 8 32 13 50 13s35 -5 50 -13c15 8 32 13 50 13c56 0 100 -44 100 -100s-44 -100 -100 -100
c56 0 100 -44 100 -100zM187 200c8 -15 13 -32 13 -50c0 18 5 35 13 50c-8 15 -13 32 -13 50s5 35 13 50c-8 15 -13 32 -13 50c0 -18 -5 -35 -13 -50c8 -15 13 -32 13 -50s-5 -35 -13 -50z" />
    <glyph glyph-name="P.ss04" 
d="M387 400c8 -15 13 -32 13 -50s-5 -35 -13 -50c8 -15 13 -32 13 -50c0 -56 -44 -100 -100 -100c-18 0 -35 5 -50 13c-15 -8 -32 -13 -50 -13c0 -18 -5 -35 -13 -50c8 -15 13 -32 13 -50c0 -56 -44 -100 -100 -100s-100 44 -100 100c0 18 5 35 13 50c-8 15 -13 32 -13 50
s5 35 13 50c-8 15 -13 32 -13 50s5 35 13 50c-8 15 -13 32 -13 50s5 35 13 50c-8 15 -13 32 -13 50c0 56 44 100 100 100c18 0 35 -5 50 -13c15 8 32 13 50 13s35 -5 50 -13c15 8 32 13 50 13c56 0 100 -44 100 -100c0 -18 -5 -35 -13 -50z" />
    <glyph glyph-name="Thorn.ss04" 
d="M387 300c8 -15 13 -32 13 -50s-5 -35 -13 -50c8 -15 13 -32 13 -50c0 -56 -44 -100 -100 -100c-18 0 -35 5 -50 13c-15 -8 -32 -13 -50 -13c0 -56 -44 -100 -100 -100s-100 44 -100 100c0 18 5 35 13 50c-8 15 -13 32 -13 50s5 35 13 50c-8 15 -13 32 -13 50s5 35 13 50
c-8 15 -13 32 -13 50s5 35 13 50c-8 15 -13 32 -13 50c0 56 44 100 100 100s100 -44 100 -100c18 0 35 -5 50 -13c15 8 32 13 50 13c56 0 100 -44 100 -100c0 -18 -5 -35 -13 -50z" />
    <glyph glyph-name="Q.ss04" 
d="M387 400c8 -15 13 -32 13 -50s-5 -35 -13 -50c8 -15 13 -32 13 -50c0 -56 -44 -100 -100 -100c56 0 100 -44 100 -100s-44 -100 -100 -100c-18 0 -35 5 -50 13c-15 -8 -32 -13 -50 -13c-56 0 -100 44 -100 100c-56 0 -100 44 -100 100c0 18 5 35 13 50
c-8 15 -13 32 -13 50s5 35 13 50c-8 15 -13 32 -13 50s5 35 13 50c-8 15 -13 32 -13 50c0 56 44 100 100 100c18 0 35 -5 50 -13c15 8 32 13 50 13s35 -5 50 -13c15 8 32 13 50 13c56 0 100 -44 100 -100c0 -18 -5 -35 -13 -50zM187 300c8 -15 13 -32 13 -50
c0 18 5 35 13 50c-8 15 -13 32 -13 50c0 -18 -5 -35 -13 -50z" />
    <glyph glyph-name="R.ss04" 
d="M400 350c0 -56 -44 -100 -100 -100c56 0 100 -44 100 -100c0 -18 -5 -35 -13 -50c8 -15 13 -32 13 -50c0 -56 -44 -100 -100 -100s-100 44 -100 100c0 18 5 35 13 50c-8 15 -13 32 -13 50c0 -18 -5 -35 -13 -50c8 -15 13 -32 13 -50c0 -56 -44 -100 -100 -100
s-100 44 -100 100c0 18 5 35 13 50c-8 15 -13 32 -13 50s5 35 13 50c-8 15 -13 32 -13 50s5 35 13 50c-8 15 -13 32 -13 50s5 35 13 50c-8 15 -13 32 -13 50c0 56 44 100 100 100c18 0 35 -5 50 -13c15 8 32 13 50 13s35 -5 50 -13c15 8 32 13 50 13c56 0 100 -44 100 -100
c0 -18 -5 -35 -13 -50c8 -15 13 -32 13 -50z" />
    <glyph glyph-name="Racute.ss04" 
d="M300 650c0 -56 -44 -100 -100 -100s-100 44 -100 100s44 100 100 100c0 56 44 100 100 100s100 -44 100 -100s-44 -100 -100 -100zM300 550c56 0 100 -44 100 -100c0 -18 -5 -35 -13 -50c8 -15 13 -32 13 -50c0 -56 -44 -100 -100 -100c56 0 100 -44 100 -100
c0 -18 -5 -35 -13 -50c8 -15 13 -32 13 -50c0 -56 -44 -100 -100 -100s-100 44 -100 100c0 18 5 35 13 50c-8 15 -13 32 -13 50c0 -18 -5 -35 -13 -50c8 -15 13 -32 13 -50c0 -56 -44 -100 -100 -100s-100 44 -100 100c0 18 5 35 13 50c-8 15 -13 32 -13 50s5 35 13 50
c-8 15 -13 32 -13 50s5 35 13 50c-8 15 -13 32 -13 50s5 35 13 50c-8 15 -13 32 -13 50c0 56 44 100 100 100c18 0 35 -5 50 -13c15 8 32 13 50 13s35 -5 50 -13c15 8 32 13 50 13z" />
    <glyph glyph-name="Rcaron.ss04" 
d="M300 650c0 -56 -44 -100 -100 -100s-100 44 -100 100c-56 0 -100 44 -100 100s44 100 100 100s100 -44 100 -100c0 56 44 100 100 100s100 -44 100 -100s-44 -100 -100 -100zM300 550c56 0 100 -44 100 -100c0 -18 -5 -35 -13 -50c8 -15 13 -32 13 -50
c0 -56 -44 -100 -100 -100c56 0 100 -44 100 -100c0 -18 -5 -35 -13 -50c8 -15 13 -32 13 -50c0 -56 -44 -100 -100 -100s-100 44 -100 100c0 18 5 35 13 50c-8 15 -13 32 -13 50c0 -18 -5 -35 -13 -50c8 -15 13 -32 13 -50c0 -56 -44 -100 -100 -100s-100 44 -100 100
c0 18 5 35 13 50c-8 15 -13 32 -13 50s5 35 13 50c-8 15 -13 32 -13 50s5 35 13 50c-8 15 -13 32 -13 50s5 35 13 50c-8 15 -13 32 -13 50c0 56 44 100 100 100c18 0 35 -5 50 -13c15 8 32 13 50 13s35 -5 50 -13c15 8 32 13 50 13z" />
    <glyph glyph-name="S.ss04" 
d="M300 350c56 0 100 -44 100 -100c0 -18 -5 -35 -13 -50c8 -15 13 -32 13 -50s-5 -35 -13 -50c8 -15 13 -32 13 -50c0 -56 -44 -100 -100 -100c-18 0 -35 5 -50 13c-15 -8 -32 -13 -50 -13s-35 5 -50 13c-15 -8 -32 -13 -50 -13c-56 0 -100 44 -100 100s44 100 100 100
c18 0 35 -5 50 -13c15 8 32 13 50 13c-18 0 -35 5 -50 13c-15 -8 -32 -13 -50 -13c-56 0 -100 44 -100 100c0 18 5 35 13 50c-8 15 -13 32 -13 50s5 35 13 50c-8 15 -13 32 -13 50c0 56 44 100 100 100c18 0 35 -5 50 -13c15 8 32 13 50 13s35 -5 50 -13c15 8 32 13 50 13
c56 0 100 -44 100 -100s-44 -100 -100 -100c-18 0 -35 5 -50 13c-15 -8 -32 -13 -50 -13c18 0 35 -5 50 -13c15 8 32 13 50 13z" />
    <glyph glyph-name="Sacute.ss04" 
d="M300 650c0 -56 -44 -100 -100 -100s-100 44 -100 100s44 100 100 100c0 56 44 100 100 100s100 -44 100 -100s-44 -100 -100 -100zM400 450c0 -56 -44 -100 -100 -100c-18 0 -35 5 -50 13c-15 -8 -32 -13 -50 -13c18 0 35 -5 50 -13c15 8 32 13 50 13
c56 0 100 -44 100 -100c0 -18 -5 -35 -13 -50c8 -15 13 -32 13 -50s-5 -35 -13 -50c8 -15 13 -32 13 -50c0 -56 -44 -100 -100 -100c-18 0 -35 5 -50 13c-15 -8 -32 -13 -50 -13s-35 5 -50 13c-15 -8 -32 -13 -50 -13c-56 0 -100 44 -100 100s44 100 100 100
c18 0 35 -5 50 -13c15 8 32 13 50 13c-18 0 -35 5 -50 13c-15 -8 -32 -13 -50 -13c-56 0 -100 44 -100 100c0 18 5 35 13 50c-8 15 -13 32 -13 50s5 35 13 50c-8 15 -13 32 -13 50c0 56 44 100 100 100c18 0 35 -5 50 -13c15 8 32 13 50 13s35 -5 50 -13c15 8 32 13 50 13
c56 0 100 -44 100 -100z" />
    <glyph glyph-name="Scaron.ss04" 
d="M300 650c0 -56 -44 -100 -100 -100s-100 44 -100 100c-56 0 -100 44 -100 100s44 100 100 100s100 -44 100 -100c0 56 44 100 100 100s100 -44 100 -100s-44 -100 -100 -100zM400 450c0 -56 -44 -100 -100 -100c-18 0 -35 5 -50 13c-15 -8 -32 -13 -50 -13
c18 0 35 -5 50 -13c15 8 32 13 50 13c56 0 100 -44 100 -100c0 -18 -5 -35 -13 -50c8 -15 13 -32 13 -50s-5 -35 -13 -50c8 -15 13 -32 13 -50c0 -56 -44 -100 -100 -100c-18 0 -35 5 -50 13c-15 -8 -32 -13 -50 -13s-35 5 -50 13c-15 -8 -32 -13 -50 -13
c-56 0 -100 44 -100 100s44 100 100 100c18 0 35 -5 50 -13c15 8 32 13 50 13c-18 0 -35 5 -50 13c-15 -8 -32 -13 -50 -13c-56 0 -100 44 -100 100c0 18 5 35 13 50c-8 15 -13 32 -13 50s5 35 13 50c-8 15 -13 32 -13 50c0 56 44 100 100 100c18 0 35 -5 50 -13
c15 8 32 13 50 13s35 -5 50 -13c15 8 32 13 50 13c56 0 100 -44 100 -100z" />
    <glyph glyph-name="Scedilla.ss04" 
d="M300 350c56 0 100 -44 100 -100c0 -18 -5 -35 -13 -50c8 -15 13 -32 13 -50s-5 -35 -13 -50c8 -15 13 -32 13 -50c0 -56 -44 -100 -100 -100c0 -18 -5 -35 -13 -50c8 -15 13 -32 13 -50c0 -56 -44 -100 -100 -100c-18 0 -35 5 -50 13c-15 -8 -32 -13 -50 -13
c-56 0 -100 44 -100 100s44 100 100 100c-56 0 -100 44 -100 100s44 100 100 100c18 0 35 -5 50 -13c15 8 32 13 50 13c-18 0 -35 5 -50 13c-15 -8 -32 -13 -50 -13c-56 0 -100 44 -100 100c0 18 5 35 13 50c-8 15 -13 32 -13 50s5 35 13 50c-8 15 -13 32 -13 50
c0 56 44 100 100 100c18 0 35 -5 50 -13c15 8 32 13 50 13s35 -5 50 -13c15 8 32 13 50 13c56 0 100 -44 100 -100s-44 -100 -100 -100c-18 0 -35 5 -50 13c-15 -8 -32 -13 -50 -13c18 0 35 -5 50 -13c15 8 32 13 50 13z" />
    </font>
</defs>
</svg>
